<?xml version="1.0" encoding="UTF-8" standalone="no"?>
<!DOCTYPE svg PUBLIC "-//W3C//DTD SVG 1.1//EN"
 "http://www.w3.org/Graphics/SVG/1.1/DTD/svg11.dtd">
<!-- Generated by graphviz version 2.40.1 (20161225.0304)
 -->
<!-- Title: dependencies Pages: 1 -->
<svg width="924pt" height="284pt"
 viewBox="0.00 0.00 924.00 284.00" xmlns="http://www.w3.org/2000/svg" xmlns:xlink="http://www.w3.org/1999/xlink">
<g id="graph0" class="graph" transform="scale(1 1) rotate(0) translate(4 280)">
<title>dependencies</title>
<polygon fill="#ffffff" stroke="transparent" points="-4,4 -4,-280 920,-280 920,4 -4,4"/>
<text text-anchor="start" x="437.0091" y="-42.4" font-family="sans-serif" font-weight="bold" font-size="14.00" fill="#000000">Legend</text>
<polygon fill="#ffffb3" stroke="transparent" points="224,-10 224,-30 244,-30 244,-10 224,-10"/>
<text text-anchor="start" x="247.629" y="-15.4" font-family="sans-serif" font-size="14.00" fill="#000000"> &#160;Declarations</text>
<polygon fill="#8dd3c7" stroke="transparent" points="337,-10 337,-30 357,-30 357,-10 337,-10"/>
<text text-anchor="start" x="360.7251" y="-15.4" font-family="sans-serif" font-size="14.00" fill="#000000"> &#160;Module</text>
<polygon fill="#80b1d3" stroke="transparent" points="423,-10 423,-30 443,-30 443,-10 423,-10"/>
<text text-anchor="start" x="446.7812" y="-15.4" font-family="sans-serif" font-size="14.00" fill="#000000"> &#160;Bootstrap</text>
<polygon fill="#fdb462" stroke="transparent" points="520,-10 520,-30 540,-30 540,-10 520,-10"/>
<text text-anchor="start" x="543.6732" y="-15.4" font-family="sans-serif" font-size="14.00" fill="#000000"> &#160;Providers</text>
<polygon fill="#fb8072" stroke="transparent" points="616,-10 616,-30 636,-30 636,-10 616,-10"/>
<text text-anchor="start" x="639.7258" y="-15.4" font-family="sans-serif" font-size="14.00" fill="#000000"> &#160;Exports</text>
<g id="clust1" class="cluster">
<title>cluster_AnnotationModule</title>
<polygon fill="none" stroke="#000000" stroke-dasharray="1,5" points="8,-70 8,-268 908,-268 908,-70 8,-70"/>
</g>
<g id="clust2" class="cluster">
<title>cluster_AnnotationModule_declarations</title>
<polygon fill="none" stroke="#000000" points="208,-78 208,-130 900,-130 900,-78 208,-78"/>
</g>
<g id="clust7" class="cluster">
<title>cluster_AnnotationModule_imports</title>
<polygon fill="none" stroke="#000000" points="16,-78 16,-130 200,-130 200,-78 16,-78"/>
</g>
<g id="clust8" class="cluster">
<title>cluster_AnnotationModule_exports</title>
<polygon fill="none" stroke="#000000" points="44,-208 44,-260 750,-260 750,-208 44,-208"/>
</g>
<!-- AnnotatedBodyComponent -->
<g id="node1" class="node">
<title>AnnotatedBodyComponent</title>
<polygon fill="#ffffb3" stroke="#000000" points="891.986,-122 722.014,-122 722.014,-86 891.986,-86 891.986,-122"/>
<text text-anchor="middle" x="807" y="-99.8" font-family="Times,serif" font-size="14.00" fill="#000000">AnnotatedBodyComponent</text>
</g>
<!-- AnnotationModule -->
<g id="node5" class="node">
<title>AnnotationModule</title>
<polygon fill="#8dd3c7" stroke="#000000" points="537.0436,-187 534.0436,-191 513.0436,-191 510.0436,-187 414.9564,-187 414.9564,-151 537.0436,-151 537.0436,-187"/>
<text text-anchor="middle" x="476" y="-164.8" font-family="Times,serif" font-size="14.00" fill="#000000">AnnotationModule</text>
</g>
<!-- AnnotatedBodyComponent&#45;&gt;AnnotationModule -->
<g id="edge1" class="edge">
<title>AnnotatedBodyComponent&#45;&gt;AnnotationModule</title>
<path fill="none" stroke="#000000" d="M731.875,-122.1061C731.875,-141.3391 731.875,-169 731.875,-169 731.875,-169 547.2884,-169 547.2884,-169"/>
<polygon fill="#000000" stroke="#000000" points="547.2885,-165.5001 537.2884,-169 547.2884,-172.5001 547.2885,-165.5001"/>
</g>
<!-- AnnotationComponent -->
<g id="node2" class="node">
<title>AnnotationComponent</title>
<polygon fill="#ffffb3" stroke="#000000" points="704.3258,-122 559.6742,-122 559.6742,-86 704.3258,-86 704.3258,-122"/>
<text text-anchor="middle" x="632" y="-99.8" font-family="Times,serif" font-size="14.00" fill="#000000">AnnotationComponent</text>
</g>
<!-- AnnotationComponent&#45;&gt;AnnotationModule -->
<g id="edge2" class="edge">
<title>AnnotationComponent&#45;&gt;AnnotationModule</title>
<path fill="none" stroke="#000000" d="M564.0472,-122.027C564.0472,-138.3976 564.0472,-160 564.0472,-160 564.0472,-160 547.1517,-160 547.1517,-160"/>
<polygon fill="#000000" stroke="#000000" points="547.1517,-156.5001 537.1517,-160 547.1516,-163.5001 547.1517,-156.5001"/>
</g>
<!-- AnnotationDirective -->
<g id="node3" class="node">
<title>AnnotationDirective</title>
<polygon fill="#ffffb3" stroke="#000000" points="541.5758,-122 410.4242,-122 410.4242,-86 541.5758,-86 541.5758,-122"/>
<text text-anchor="middle" x="476" y="-99.8" font-family="Times,serif" font-size="14.00" fill="#000000">AnnotationDirective</text>
</g>
<!-- AnnotationDirective&#45;&gt;AnnotationModule -->
<g id="edge3" class="edge">
<title>AnnotationDirective&#45;&gt;AnnotationModule</title>
<path fill="none" stroke="#000000" d="M476,-122.1061C476,-122.1061 476,-140.991 476,-140.991"/>
<polygon fill="#000000" stroke="#000000" points="472.5001,-140.9909 476,-150.991 479.5001,-140.991 472.5001,-140.9909"/>
</g>
<!-- ShowAnnotationComponent -->
<g id="node4" class="node">
<title>ShowAnnotationComponent</title>
<polygon fill="#ffffb3" stroke="#000000" points="392.2147,-122 215.7853,-122 215.7853,-86 392.2147,-86 392.2147,-122"/>
<text text-anchor="middle" x="304" y="-99.8" font-family="Times,serif" font-size="14.00" fill="#000000">ShowAnnotationComponent</text>
</g>
<!-- ShowAnnotationComponent&#45;&gt;AnnotationModule -->
<g id="edge4" class="edge">
<title>ShowAnnotationComponent&#45;&gt;AnnotationModule</title>
<path fill="none" stroke="#000000" d="M388.1976,-122.0091C388.1976,-138.0494 388.1976,-159 388.1976,-159 388.1976,-159 404.5412,-159 404.5412,-159"/>
<polygon fill="#000000" stroke="#000000" points="404.5413,-162.5001 414.5412,-159 404.5412,-155.5001 404.5413,-162.5001"/>
</g>
<!-- AnnotatedBodyComponent  -->
<g id="node7" class="node">
<title>AnnotatedBodyComponent </title>
<polygon fill="#fb8072" stroke="#000000" points="741.9867,-252 568.0133,-252 568.0133,-216 741.9867,-216 741.9867,-252"/>
<text text-anchor="middle" x="655" y="-229.8" font-family="Times,serif" font-size="14.00" fill="#000000">AnnotatedBodyComponent </text>
</g>
<!-- AnnotationModule&#45;&gt;AnnotatedBodyComponent  -->
<g id="edge6" class="edge">
<title>AnnotationModule&#45;&gt;AnnotatedBodyComponent </title>
<path fill="none" stroke="#000000" stroke-dasharray="5,2" d="M537.4831,-178C582.6631,-178 636.2099,-178 636.2099,-178 636.2099,-178 636.2099,-205.973 636.2099,-205.973"/>
<polygon fill="#000000" stroke="#000000" points="632.7099,-205.973 636.2099,-215.973 639.7099,-205.973 632.7099,-205.973"/>
</g>
<!-- AnnotationComponent  -->
<g id="node8" class="node">
<title>AnnotationComponent </title>
<polygon fill="#fb8072" stroke="#000000" points="549.8255,-252 402.1745,-252 402.1745,-216 549.8255,-216 549.8255,-252"/>
<text text-anchor="middle" x="476" y="-229.8" font-family="Times,serif" font-size="14.00" fill="#000000">AnnotationComponent </text>
</g>
<!-- AnnotationModule&#45;&gt;AnnotationComponent  -->
<g id="edge7" class="edge">
<title>AnnotationModule&#45;&gt;AnnotationComponent </title>
<path fill="none" stroke="#000000" stroke-dasharray="5,2" d="M496.4238,-187.1061C496.4238,-187.1061 496.4238,-205.991 496.4238,-205.991"/>
<polygon fill="#000000" stroke="#000000" points="492.9239,-205.9909 496.4238,-215.991 499.9239,-205.991 492.9239,-205.9909"/>
</g>
<!-- AnnotationModule&#45;&gt;AnnotationComponent  -->
<g id="edge10" class="edge">
<title>AnnotationModule&#45;&gt;AnnotationComponent </title>
<path fill="none" stroke="#000000" stroke-dasharray="1,5" d="M455.5762,-187.1061C455.5762,-187.1061 455.5762,-205.991 455.5762,-205.991"/>
<polygon fill="#000000" stroke="#000000" points="452.0763,-205.9909 455.5762,-215.991 459.0763,-205.991 452.0763,-205.9909"/>
</g>
<!-- AnnotationDirective  -->
<g id="node9" class="node">
<title>AnnotationDirective </title>
<polygon fill="#fb8072" stroke="#000000" points="384.0765,-252 249.9235,-252 249.9235,-216 384.0765,-216 384.0765,-252"/>
<text text-anchor="middle" x="317" y="-229.8" font-family="Times,serif" font-size="14.00" fill="#000000">AnnotationDirective </text>
</g>
<!-- AnnotationModule&#45;&gt;AnnotationDirective  -->
<g id="edge8" class="edge">
<title>AnnotationModule&#45;&gt;AnnotationDirective </title>
<path fill="none" stroke="#000000" stroke-dasharray="5,2" d="M414.5264,-180C369.7839,-180 317,-180 317,-180 317,-180 317,-205.7181 317,-205.7181"/>
<polygon fill="#000000" stroke="#000000" points="313.5001,-205.718 317,-215.7181 320.5001,-205.7181 313.5001,-205.718"/>
</g>
<!-- ShowAnnotationComponent  -->
<g id="node10" class="node">
<title>ShowAnnotationComponent </title>
<polygon fill="#fb8072" stroke="#000000" points="231.7148,-252 52.2852,-252 52.2852,-216 231.7148,-216 231.7148,-252"/>
<text text-anchor="middle" x="142" y="-229.8" font-family="Times,serif" font-size="14.00" fill="#000000">ShowAnnotationComponent </text>
</g>
<!-- AnnotationModule&#45;&gt;ShowAnnotationComponent  -->
<g id="edge9" class="edge">
<title>AnnotationModule&#45;&gt;ShowAnnotationComponent </title>
<path fill="none" stroke="#000000" stroke-dasharray="5,2" d="M414.6457,-173C340.016,-173 223.875,-173 223.875,-173 223.875,-173 223.875,-205.698 223.875,-205.698"/>
<polygon fill="#000000" stroke="#000000" points="220.3751,-205.698 223.875,-215.698 227.3751,-205.698 220.3751,-205.698"/>
</g>
<!-- AnnotationRoutingModule -->
<g id="node6" class="node">
<title>AnnotationRoutingModule</title>
<polygon fill="#8dd3c7" stroke="#000000" points="191.6609,-122 188.6609,-126 167.6609,-126 164.6609,-122 24.3391,-122 24.3391,-86 191.6609,-86 191.6609,-122"/>
<text text-anchor="middle" x="108" y="-99.8" font-family="Times,serif" font-size="14.00" fill="#000000">AnnotationRoutingModule</text>
</g>
<!-- AnnotationRoutingModule&#45;&gt;AnnotationModule -->
<g id="edge5" class="edge">
<title>AnnotationRoutingModule&#45;&gt;AnnotationModule</title>
<path fill="none" stroke="#000000" d="M121.9865,-122.2667C121.9865,-140.5552 121.9865,-166 121.9865,-166 121.9865,-166 404.7397,-166 404.7397,-166"/>
<polygon fill="#000000" stroke="#000000" points="404.7397,-169.5001 414.7397,-166 404.7397,-162.5001 404.7397,-169.5001"/>
</g>
</g>
</svg>
