<?xml version="1.0" encoding="UTF-8" standalone="no"?>
<!DOCTYPE svg PUBLIC "-//W3C//DTD SVG 1.1//EN"
 "http://www.w3.org/Graphics/SVG/1.1/DTD/svg11.dtd">
<!-- Generated by graphviz version 2.40.1 (20161225.0304)
 -->
<!-- Title: dependencies Pages: 1 -->
<svg width="1515pt" height="284pt"
 viewBox="0.00 0.00 1515.00 284.00" xmlns="http://www.w3.org/2000/svg" xmlns:xlink="http://www.w3.org/1999/xlink">
<g id="graph0" class="graph" transform="scale(1 1) rotate(0) translate(4 280)">
<title>dependencies</title>
<polygon fill="#ffffff" stroke="transparent" points="-4,4 -4,-280 1511,-280 1511,4 -4,4"/>
<text text-anchor="start" x="732.5091" y="-42.4" font-family="sans-serif" font-weight="bold" font-size="14.00" fill="#000000">Legend</text>
<polygon fill="#ffffb3" stroke="transparent" points="519.5,-10 519.5,-30 539.5,-30 539.5,-10 519.5,-10"/>
<text text-anchor="start" x="543.129" y="-15.4" font-family="sans-serif" font-size="14.00" fill="#000000"> &#160;Declarations</text>
<polygon fill="#8dd3c7" stroke="transparent" points="632.5,-10 632.5,-30 652.5,-30 652.5,-10 632.5,-10"/>
<text text-anchor="start" x="656.2251" y="-15.4" font-family="sans-serif" font-size="14.00" fill="#000000"> &#160;Module</text>
<polygon fill="#80b1d3" stroke="transparent" points="718.5,-10 718.5,-30 738.5,-30 738.5,-10 718.5,-10"/>
<text text-anchor="start" x="742.2812" y="-15.4" font-family="sans-serif" font-size="14.00" fill="#000000"> &#160;Bootstrap</text>
<polygon fill="#fdb462" stroke="transparent" points="815.5,-10 815.5,-30 835.5,-30 835.5,-10 815.5,-10"/>
<text text-anchor="start" x="839.1732" y="-15.4" font-family="sans-serif" font-size="14.00" fill="#000000"> &#160;Providers</text>
<polygon fill="#fb8072" stroke="transparent" points="911.5,-10 911.5,-30 931.5,-30 931.5,-10 911.5,-10"/>
<text text-anchor="start" x="935.2258" y="-15.4" font-family="sans-serif" font-size="14.00" fill="#000000"> &#160;Exports</text>
<g id="clust1" class="cluster">
<title>cluster_AnnotationModule</title>
<polygon fill="none" stroke="#000000" stroke-dasharray="1,5" points="8,-70 8,-268 1499,-268 1499,-70 8,-70"/>
</g>
<g id="clust2" class="cluster">
<title>cluster_AnnotationModule_declarations</title>
<polygon fill="none" stroke="#000000" points="799,-78 799,-130 1491,-130 1491,-78 799,-78"/>
</g>
<g id="clust7" class="cluster">
<title>cluster_AnnotationModule_imports</title>
<polygon fill="none" stroke="#000000" points="16,-78 16,-130 791,-130 791,-78 16,-78"/>
</g>
<g id="clust8" class="cluster">
<title>cluster_AnnotationModule_exports</title>
<polygon fill="none" stroke="#000000" points="255,-208 255,-260 961,-260 961,-208 255,-208"/>
</g>
<!-- AnnotationComponent -->
<g id="node1" class="node">
<title>AnnotationComponent</title>
<polygon fill="#ffffb3" stroke="#000000" points="1483.3258,-122 1338.6742,-122 1338.6742,-86 1483.3258,-86 1483.3258,-122"/>
<text text-anchor="middle" x="1411" y="-99.8" font-family="Times,serif" font-size="14.00" fill="#000000">AnnotationComponent</text>
</g>
<!-- AnnotationModule -->
<g id="node5" class="node">
<title>AnnotationModule</title>
<polygon fill="#8dd3c7" stroke="#000000" points="788.0436,-187 785.0436,-191 764.0436,-191 761.0436,-187 665.9564,-187 665.9564,-151 788.0436,-151 788.0436,-187"/>
<text text-anchor="middle" x="727" y="-164.8" font-family="Times,serif" font-size="14.00" fill="#000000">AnnotationModule</text>
</g>
<!-- AnnotationComponent&#45;&gt;AnnotationModule -->
<g id="edge1" class="edge">
<title>AnnotationComponent&#45;&gt;AnnotationModule</title>
<path fill="none" stroke="#000000" d="M1411,-122.2843C1411,-143.3211 1411,-175 1411,-175 1411,-175 798.3024,-175 798.3024,-175"/>
<polygon fill="#000000" stroke="#000000" points="798.3024,-171.5001 788.3024,-175 798.3024,-178.5001 798.3024,-171.5001"/>
</g>
<!-- AnnotationDirective -->
<g id="node2" class="node">
<title>AnnotationDirective</title>
<polygon fill="#ffffb3" stroke="#000000" points="1320.5758,-122 1189.4242,-122 1189.4242,-86 1320.5758,-86 1320.5758,-122"/>
<text text-anchor="middle" x="1255" y="-99.8" font-family="Times,serif" font-size="14.00" fill="#000000">AnnotationDirective</text>
</g>
<!-- AnnotationDirective&#45;&gt;AnnotationModule -->
<g id="edge2" class="edge">
<title>AnnotationDirective&#45;&gt;AnnotationModule</title>
<path fill="none" stroke="#000000" d="M1255,-122.1061C1255,-141.3391 1255,-169 1255,-169 1255,-169 798.0841,-169 798.0841,-169"/>
<polygon fill="#000000" stroke="#000000" points="798.0842,-165.5001 788.0841,-169 798.0841,-172.5001 798.0842,-165.5001"/>
</g>
<!-- AnnotatedBodyComponent -->
<g id="node3" class="node">
<title>AnnotatedBodyComponent</title>
<polygon fill="#ffffb3" stroke="#000000" points="1170.986,-122 1001.014,-122 1001.014,-86 1170.986,-86 1170.986,-122"/>
<text text-anchor="middle" x="1086" y="-99.8" font-family="Times,serif" font-size="14.00" fill="#000000">AnnotatedBodyComponent</text>
</g>
<!-- AnnotatedBodyComponent&#45;&gt;AnnotationModule -->
<g id="edge3" class="edge">
<title>AnnotatedBodyComponent&#45;&gt;AnnotationModule</title>
<path fill="none" stroke="#000000" d="M1086,-122.0225C1086,-139.3734 1086,-163 1086,-163 1086,-163 798.3064,-163 798.3064,-163"/>
<polygon fill="#000000" stroke="#000000" points="798.3064,-159.5001 788.3064,-163 798.3064,-166.5001 798.3064,-159.5001"/>
</g>
<!-- ShowAnnotationComponent -->
<g id="node4" class="node">
<title>ShowAnnotationComponent</title>
<polygon fill="#ffffb3" stroke="#000000" points="983.2147,-122 806.7853,-122 806.7853,-86 983.2147,-86 983.2147,-122"/>
<text text-anchor="middle" x="895" y="-99.8" font-family="Times,serif" font-size="14.00" fill="#000000">ShowAnnotationComponent</text>
</g>
<!-- ShowAnnotationComponent&#45;&gt;AnnotationModule -->
<g id="edge4" class="edge">
<title>ShowAnnotationComponent&#45;&gt;AnnotationModule</title>
<path fill="none" stroke="#000000" d="M812.8024,-122.2396C812.8024,-137.5706 812.8024,-157 812.8024,-157 812.8024,-157 798.4444,-157 798.4444,-157"/>
<polygon fill="#000000" stroke="#000000" points="798.4444,-153.5001 788.4444,-157 798.4444,-160.5001 798.4444,-153.5001"/>
</g>
<!-- AnnotationDirective  -->
<g id="node11" class="node">
<title>AnnotationDirective </title>
<polygon fill="#fb8072" stroke="#000000" points="953.0765,-252 818.9235,-252 818.9235,-216 953.0765,-216 953.0765,-252"/>
<text text-anchor="middle" x="886" y="-229.8" font-family="Times,serif" font-size="14.00" fill="#000000">AnnotationDirective </text>
</g>
<!-- AnnotationModule&#45;&gt;AnnotationDirective  -->
<g id="edge10" class="edge">
<title>AnnotationModule&#45;&gt;AnnotationDirective </title>
<path fill="none" stroke="#000000" stroke-dasharray="5,2" d="M788.4736,-181C833.2161,-181 886,-181 886,-181 886,-181 886,-205.7604 886,-205.7604"/>
<polygon fill="#000000" stroke="#000000" points="882.5001,-205.7604 886,-215.7604 889.5001,-205.7604 882.5001,-205.7604"/>
</g>
<!-- AnnotationComponent  -->
<g id="node12" class="node">
<title>AnnotationComponent </title>
<polygon fill="#fb8072" stroke="#000000" points="800.8255,-252 653.1745,-252 653.1745,-216 800.8255,-216 800.8255,-252"/>
<text text-anchor="middle" x="727" y="-229.8" font-family="Times,serif" font-size="14.00" fill="#000000">AnnotationComponent </text>
</g>
<!-- AnnotationModule&#45;&gt;AnnotationComponent  -->
<g id="edge11" class="edge">
<title>AnnotationModule&#45;&gt;AnnotationComponent </title>
<path fill="none" stroke="#000000" stroke-dasharray="5,2" d="M747.4238,-187.1061C747.4238,-187.1061 747.4238,-205.991 747.4238,-205.991"/>
<polygon fill="#000000" stroke="#000000" points="743.9239,-205.9909 747.4238,-215.991 750.9239,-205.991 743.9239,-205.9909"/>
</g>
<!-- AnnotationModule&#45;&gt;AnnotationComponent  -->
<g id="edge14" class="edge">
<title>AnnotationModule&#45;&gt;AnnotationComponent </title>
<path fill="none" stroke="#000000" stroke-dasharray="1,5" d="M706.5762,-187.1061C706.5762,-187.1061 706.5762,-205.991 706.5762,-205.991"/>
<polygon fill="#000000" stroke="#000000" points="703.0763,-205.9909 706.5762,-215.991 710.0763,-205.991 703.0763,-205.9909"/>
</g>
<!-- AnnotatedBodyComponent  -->
<g id="node13" class="node">
<title>AnnotatedBodyComponent </title>
<polygon fill="#fb8072" stroke="#000000" points="634.9867,-252 461.0133,-252 461.0133,-216 634.9867,-216 634.9867,-252"/>
<text text-anchor="middle" x="548" y="-229.8" font-family="Times,serif" font-size="14.00" fill="#000000">AnnotatedBodyComponent </text>
</g>
<!-- AnnotationModule&#45;&gt;AnnotatedBodyComponent  -->
<g id="edge12" class="edge">
<title>AnnotationModule&#45;&gt;AnnotatedBodyComponent </title>
<path fill="none" stroke="#000000" stroke-dasharray="5,2" d="M665.6214,-182C622.2124,-182 571.7002,-182 571.7002,-182 571.7002,-182 571.7002,-205.8129 571.7002,-205.8129"/>
<polygon fill="#000000" stroke="#000000" points="568.2003,-205.8129 571.7002,-215.8129 575.2003,-205.813 568.2003,-205.8129"/>
</g>
<!-- ShowAnnotationComponent  -->
<g id="node14" class="node">
<title>ShowAnnotationComponent </title>
<polygon fill="#fb8072" stroke="#000000" points="442.7148,-252 263.2852,-252 263.2852,-216 442.7148,-216 442.7148,-252"/>
<text text-anchor="middle" x="353" y="-229.8" font-family="Times,serif" font-size="14.00" fill="#000000">ShowAnnotationComponent </text>
</g>
<!-- AnnotationModule&#45;&gt;ShowAnnotationComponent  -->
<g id="edge13" class="edge">
<title>AnnotationModule&#45;&gt;ShowAnnotationComponent </title>
<path fill="none" stroke="#000000" stroke-dasharray="5,2" d="M665.8001,-177C576.0061,-177 419.0966,-177 419.0966,-177 419.0966,-177 419.0966,-205.9648 419.0966,-205.9648"/>
<polygon fill="#000000" stroke="#000000" points="415.5967,-205.9648 419.0966,-215.9648 422.5967,-205.9649 415.5967,-205.9648"/>
</g>
<!-- CommonModule -->
<g id="node6" class="node">
<title>CommonModule</title>
<polygon fill="#8dd3c7" stroke="#000000" points="782.6681,-122 779.6681,-126 758.6681,-126 755.6681,-122 671.3319,-122 671.3319,-86 782.6681,-86 782.6681,-122"/>
<text text-anchor="middle" x="727" y="-99.8" font-family="Times,serif" font-size="14.00" fill="#000000">CommonModule</text>
</g>
<!-- CommonModule&#45;&gt;AnnotationModule -->
<g id="edge5" class="edge">
<title>CommonModule&#45;&gt;AnnotationModule</title>
<path fill="none" stroke="#000000" d="M727,-122.1061C727,-122.1061 727,-140.991 727,-140.991"/>
<polygon fill="#000000" stroke="#000000" points="723.5001,-140.9909 727,-150.991 730.5001,-140.991 723.5001,-140.9909"/>
</g>
<!-- IonicModule.forRoot() -->
<g id="node7" class="node">
<title>IonicModule.forRoot()</title>
<polygon fill="#8dd3c7" stroke="#000000" points="653.1855,-122 650.1855,-126 629.1855,-126 626.1855,-122 508.8145,-122 508.8145,-86 653.1855,-86 653.1855,-122"/>
<text text-anchor="middle" x="581" y="-99.8" font-family="Times,serif" font-size="14.00" fill="#000000">IonicModule.forRoot()</text>
</g>
<!-- IonicModule.forRoot()&#45;&gt;AnnotationModule -->
<g id="edge6" class="edge">
<title>IonicModule.forRoot()&#45;&gt;AnnotationModule</title>
<path fill="none" stroke="#000000" d="M643.9152,-122.2396C643.9152,-137.5706 643.9152,-157 643.9152,-157 643.9152,-157 655.7447,-157 655.7447,-157"/>
<polygon fill="#000000" stroke="#000000" points="655.7448,-160.5001 665.7447,-157 655.7447,-153.5001 655.7448,-160.5001"/>
</g>
<!-- FormsModule -->
<g id="node8" class="node">
<title>FormsModule</title>
<polygon fill="#8dd3c7" stroke="#000000" points="490.8288,-122 487.8288,-126 466.8288,-126 463.8288,-122 395.1712,-122 395.1712,-86 490.8288,-86 490.8288,-122"/>
<text text-anchor="middle" x="443" y="-99.8" font-family="Times,serif" font-size="14.00" fill="#000000">FormsModule</text>
</g>
<!-- FormsModule&#45;&gt;AnnotationModule -->
<g id="edge7" class="edge">
<title>FormsModule&#45;&gt;AnnotationModule</title>
<path fill="none" stroke="#000000" d="M475.9606,-122.0336C475.9606,-139.0597 475.9606,-162 475.9606,-162 475.9606,-162 655.9099,-162 655.9099,-162"/>
<polygon fill="#000000" stroke="#000000" points="655.9099,-165.5001 665.9099,-162 655.9098,-158.5001 655.9099,-165.5001"/>
</g>
<!-- AnnotationRoutingModule -->
<g id="node9" class="node">
<title>AnnotationRoutingModule</title>
<polygon fill="#8dd3c7" stroke="#000000" points="377.6609,-122 374.6609,-126 353.6609,-126 350.6609,-122 210.3391,-122 210.3391,-86 377.6609,-86 377.6609,-122"/>
<text text-anchor="middle" x="294" y="-99.8" font-family="Times,serif" font-size="14.00" fill="#000000">AnnotationRoutingModule</text>
</g>
<!-- AnnotationRoutingModule&#45;&gt;AnnotationModule -->
<g id="edge8" class="edge">
<title>AnnotationRoutingModule&#45;&gt;AnnotationModule</title>
<path fill="none" stroke="#000000" d="M320.4865,-122.2222C320.4865,-140.8285 320.4865,-167 320.4865,-167 320.4865,-167 655.7007,-167 655.7007,-167"/>
<polygon fill="#000000" stroke="#000000" points="655.7007,-170.5001 665.7007,-167 655.7006,-163.5001 655.7007,-170.5001"/>
</g>
<!-- TextInputHighlightModule -->
<g id="node10" class="node">
<title>TextInputHighlightModule</title>
<polygon fill="#8dd3c7" stroke="#000000" points="192.4283,-122 189.4283,-126 168.4283,-126 165.4283,-122 23.5717,-122 23.5717,-86 192.4283,-86 192.4283,-122"/>
<text text-anchor="middle" x="108" y="-99.8" font-family="Times,serif" font-size="14.00" fill="#000000">TextInputHighlightModule</text>
</g>
<!-- TextInputHighlightModule&#45;&gt;AnnotationModule -->
<g id="edge9" class="edge">
<title>TextInputHighlightModule&#45;&gt;AnnotationModule</title>
<path fill="none" stroke="#000000" d="M108,-122.2228C108,-142.3652 108,-172 108,-172 108,-172 655.9538,-172 655.9538,-172"/>
<polygon fill="#000000" stroke="#000000" points="655.9539,-175.5001 665.9538,-172 655.9538,-168.5001 655.9539,-175.5001"/>
</g>
</g>
</svg>
