<?xml version="1.0" encoding="UTF-8" standalone="no"?>
<!DOCTYPE svg PUBLIC "-//W3C//DTD SVG 1.1//EN"
 "http://www.w3.org/Graphics/SVG/1.1/DTD/svg11.dtd">
<!-- Generated by graphviz version 2.40.1 (20161225.0304)
 -->
<!-- Title: dependencies Pages: 1 -->
<svg width="2908pt" height="211pt"
 viewBox="0.00 0.00 2908.00 211.00" xmlns="http://www.w3.org/2000/svg" xmlns:xlink="http://www.w3.org/1999/xlink">
<g id="graph0" class="graph" transform="scale(1 1) rotate(0) translate(4 207)">
<title>dependencies</title>
<polygon fill="#ffffff" stroke="transparent" points="-4,4 -4,-207 2904,-207 2904,4 -4,4"/>
<text text-anchor="start" x="1429.0091" y="-42.4" font-family="sans-serif" font-weight="bold" font-size="14.00" fill="#000000">Legend</text>
<polygon fill="#ffffb3" stroke="transparent" points="1216,-10 1216,-30 1236,-30 1236,-10 1216,-10"/>
<text text-anchor="start" x="1239.629" y="-15.4" font-family="sans-serif" font-size="14.00" fill="#000000"> &#160;Declarations</text>
<polygon fill="#8dd3c7" stroke="transparent" points="1329,-10 1329,-30 1349,-30 1349,-10 1329,-10"/>
<text text-anchor="start" x="1352.7251" y="-15.4" font-family="sans-serif" font-size="14.00" fill="#000000"> &#160;Module</text>
<polygon fill="#80b1d3" stroke="transparent" points="1415,-10 1415,-30 1435,-30 1435,-10 1415,-10"/>
<text text-anchor="start" x="1438.7812" y="-15.4" font-family="sans-serif" font-size="14.00" fill="#000000"> &#160;Bootstrap</text>
<polygon fill="#fdb462" stroke="transparent" points="1512,-10 1512,-30 1532,-30 1532,-10 1512,-10"/>
<text text-anchor="start" x="1535.6732" y="-15.4" font-family="sans-serif" font-size="14.00" fill="#000000"> &#160;Providers</text>
<polygon fill="#fb8072" stroke="transparent" points="1608,-10 1608,-30 1628,-30 1628,-10 1608,-10"/>
<text text-anchor="start" x="1631.7258" y="-15.4" font-family="sans-serif" font-size="14.00" fill="#000000"> &#160;Exports</text>
<g id="clust1" class="cluster">
<title>cluster_AuthModule</title>
<polygon fill="none" stroke="#000000" stroke-dasharray="1,5" points="8,-70 8,-195 2892,-195 2892,-70 8,-70"/>
</g>
<g id="clust2" class="cluster">
<title>cluster_AuthModule_declarations</title>
<polygon fill="none" stroke="#000000" points="2259,-78 2259,-130 2884,-130 2884,-78 2259,-78"/>
</g>
<g id="clust8" class="cluster">
<title>cluster_AuthModule_imports</title>
<polygon fill="none" stroke="#000000" points="1569,-78 1569,-130 2251,-130 2251,-78 1569,-78"/>
</g>
<g id="clust11" class="cluster">
<title>cluster_AuthModule_providers</title>
<polygon fill="none" stroke="#000000" points="16,-78 16,-130 1561,-130 1561,-78 16,-78"/>
</g>
<!-- SigninPage -->
<g id="node1" class="node">
<title>SigninPage</title>
<polygon fill="#ffffb3" stroke="#000000" points="2875.7759,-122 2796.2241,-122 2796.2241,-86 2875.7759,-86 2875.7759,-122"/>
<text text-anchor="middle" x="2836" y="-99.8" font-family="Times,serif" font-size="14.00" fill="#000000">SigninPage</text>
</g>
<!-- AuthModule -->
<g id="node6" class="node">
<title>AuthModule</title>
<polygon fill="#8dd3c7" stroke="#000000" points="1909.5482,-187 1906.5482,-191 1885.5482,-191 1882.5482,-187 1822.4518,-187 1822.4518,-151 1909.5482,-151 1909.5482,-187"/>
<text text-anchor="middle" x="1866" y="-164.8" font-family="Times,serif" font-size="14.00" fill="#000000">AuthModule</text>
</g>
<!-- SigninPage&#45;&gt;AuthModule -->
<g id="edge1" class="edge">
<title>SigninPage&#45;&gt;AuthModule</title>
<path fill="none" stroke="#000000" d="M2836,-122.3228C2836,-145.6602 2836,-183 2836,-183 2836,-183 1919.5633,-183 1919.5633,-183"/>
<polygon fill="#000000" stroke="#000000" points="1919.5633,-179.5001 1909.5633,-183 1919.5633,-186.5001 1919.5633,-179.5001"/>
</g>
<!-- SignupPage -->
<g id="node2" class="node">
<title>SignupPage</title>
<polygon fill="#ffffb3" stroke="#000000" points="2778.3851,-122 2695.6149,-122 2695.6149,-86 2778.3851,-86 2778.3851,-122"/>
<text text-anchor="middle" x="2737" y="-99.8" font-family="Times,serif" font-size="14.00" fill="#000000">SignupPage</text>
</g>
<!-- SignupPage&#45;&gt;AuthModule -->
<g id="edge2" class="edge">
<title>SignupPage&#45;&gt;AuthModule</title>
<path fill="none" stroke="#000000" d="M2737,-122.2921C2737,-144.2057 2737,-178 2737,-178 2737,-178 1919.7899,-178 1919.7899,-178"/>
<polygon fill="#000000" stroke="#000000" points="1919.79,-174.5001 1909.7899,-178 1919.7899,-181.5001 1919.79,-174.5001"/>
</g>
<!-- ForgotPasswordPage -->
<g id="node3" class="node">
<title>ForgotPasswordPage</title>
<polygon fill="#ffffb3" stroke="#000000" points="2677.1993,-122 2542.8007,-122 2542.8007,-86 2677.1993,-86 2677.1993,-122"/>
<text text-anchor="middle" x="2610" y="-99.8" font-family="Times,serif" font-size="14.00" fill="#000000">ForgotPasswordPage</text>
</g>
<!-- ForgotPasswordPage&#45;&gt;AuthModule -->
<g id="edge3" class="edge">
<title>ForgotPasswordPage&#45;&gt;AuthModule</title>
<path fill="none" stroke="#000000" d="M2610,-122.0267C2610,-142.7672 2610,-174 2610,-174 2610,-174 1919.763,-174 1919.763,-174"/>
<polygon fill="#000000" stroke="#000000" points="1919.763,-170.5001 1909.763,-174 1919.7629,-177.5001 1919.763,-170.5001"/>
</g>
<!-- ChangePasswordPage -->
<g id="node4" class="node">
<title>ChangePasswordPage</title>
<polygon fill="#ffffb3" stroke="#000000" points="2524.6317,-122 2385.3683,-122 2385.3683,-86 2524.6317,-86 2524.6317,-122"/>
<text text-anchor="middle" x="2455" y="-99.8" font-family="Times,serif" font-size="14.00" fill="#000000">ChangePasswordPage</text>
</g>
<!-- ChangePasswordPage&#45;&gt;AuthModule -->
<g id="edge4" class="edge">
<title>ChangePasswordPage&#45;&gt;AuthModule</title>
<path fill="none" stroke="#000000" d="M2455,-122.1061C2455,-141.3391 2455,-169 2455,-169 2455,-169 1919.7895,-169 1919.7895,-169"/>
<polygon fill="#000000" stroke="#000000" points="1919.7896,-165.5001 1909.7895,-169 1919.7895,-172.5001 1919.7896,-165.5001"/>
</g>
<!-- NotFoundPage -->
<g id="node5" class="node">
<title>NotFoundPage</title>
<polygon fill="#ffffb3" stroke="#000000" points="2366.9916,-122 2267.0084,-122 2267.0084,-86 2366.9916,-86 2366.9916,-122"/>
<text text-anchor="middle" x="2317" y="-99.8" font-family="Times,serif" font-size="14.00" fill="#000000">NotFoundPage</text>
</g>
<!-- NotFoundPage&#45;&gt;AuthModule -->
<g id="edge5" class="edge">
<title>NotFoundPage&#45;&gt;AuthModule</title>
<path fill="none" stroke="#000000" d="M2317,-122.302C2317,-140.2699 2317,-165 2317,-165 2317,-165 1919.6536,-165 1919.6536,-165"/>
<polygon fill="#000000" stroke="#000000" points="1919.6536,-161.5001 1909.6536,-165 1919.6535,-168.5001 1919.6536,-161.5001"/>
</g>
<!-- CommonModule -->
<g id="node7" class="node">
<title>CommonModule</title>
<polygon fill="#8dd3c7" stroke="#000000" points="2242.6681,-122 2239.6681,-126 2218.6681,-126 2215.6681,-122 2131.3319,-122 2131.3319,-86 2242.6681,-86 2242.6681,-122"/>
<text text-anchor="middle" x="2187" y="-99.8" font-family="Times,serif" font-size="14.00" fill="#000000">CommonModule</text>
</g>
<!-- CommonModule&#45;&gt;AuthModule -->
<g id="edge6" class="edge">
<title>CommonModule&#45;&gt;AuthModule</title>
<path fill="none" stroke="#000000" d="M2187,-122.027C2187,-138.3976 2187,-160 2187,-160 2187,-160 1919.6256,-160 1919.6256,-160"/>
<polygon fill="#000000" stroke="#000000" points="1919.6256,-156.5001 1909.6256,-160 1919.6255,-163.5001 1919.6256,-156.5001"/>
</g>
<!-- HttpClientModule -->
<g id="node8" class="node">
<title>HttpClientModule</title>
<polygon fill="#8dd3c7" stroke="#000000" points="2113.1611,-122 2110.1611,-126 2089.1611,-126 2086.1611,-122 1994.8389,-122 1994.8389,-86 2113.1611,-86 2113.1611,-122"/>
<text text-anchor="middle" x="2054" y="-99.8" font-family="Times,serif" font-size="14.00" fill="#000000">HttpClientModule</text>
</g>
<!-- HttpClientModule&#45;&gt;AuthModule -->
<g id="edge7" class="edge">
<title>HttpClientModule&#45;&gt;AuthModule</title>
<path fill="none" stroke="#000000" d="M2054,-122.1871C2054,-137.1824 2054,-156 2054,-156 2054,-156 1919.6035,-156 1919.6035,-156"/>
<polygon fill="#000000" stroke="#000000" points="1919.6036,-152.5001 1909.6035,-156 1919.6035,-159.5001 1919.6036,-152.5001"/>
</g>
<!-- IonicModule -->
<g id="node9" class="node">
<title>IonicModule</title>
<polygon fill="#8dd3c7" stroke="#000000" points="1977.3162,-122 1974.3162,-126 1953.3162,-126 1950.3162,-122 1888.6838,-122 1888.6838,-86 1977.3162,-86 1977.3162,-122"/>
<text text-anchor="middle" x="1933" y="-99.8" font-family="Times,serif" font-size="14.00" fill="#000000">IonicModule</text>
</g>
<!-- IonicModule&#45;&gt;AuthModule -->
<g id="edge8" class="edge">
<title>IonicModule&#45;&gt;AuthModule</title>
<path fill="none" stroke="#000000" d="M1899.3079,-122.1061C1899.3079,-122.1061 1899.3079,-140.991 1899.3079,-140.991"/>
<polygon fill="#000000" stroke="#000000" points="1895.8079,-140.9909 1899.3079,-150.991 1902.8079,-140.991 1895.8079,-140.9909"/>
</g>
<!-- ReactiveFormsModule -->
<g id="node10" class="node">
<title>ReactiveFormsModule</title>
<polygon fill="#8dd3c7" stroke="#000000" points="1871.3047,-122 1868.3047,-126 1847.3047,-126 1844.3047,-122 1726.6953,-122 1726.6953,-86 1871.3047,-86 1871.3047,-122"/>
<text text-anchor="middle" x="1799" y="-99.8" font-family="Times,serif" font-size="14.00" fill="#000000">ReactiveFormsModule</text>
</g>
<!-- ReactiveFormsModule&#45;&gt;AuthModule -->
<g id="edge9" class="edge">
<title>ReactiveFormsModule&#45;&gt;AuthModule</title>
<path fill="none" stroke="#000000" d="M1846.6894,-122.1061C1846.6894,-122.1061 1846.6894,-140.991 1846.6894,-140.991"/>
<polygon fill="#000000" stroke="#000000" points="1843.1894,-140.9909 1846.6894,-150.991 1850.1894,-140.991 1843.1894,-140.9909"/>
</g>
<!-- AuthRoutingModule -->
<g id="node11" class="node">
<title>AuthRoutingModule</title>
<polygon fill="#8dd3c7" stroke="#000000" points="1709.1652,-122 1706.1652,-126 1685.1652,-126 1682.1652,-122 1576.8348,-122 1576.8348,-86 1709.1652,-86 1709.1652,-122"/>
<text text-anchor="middle" x="1643" y="-99.8" font-family="Times,serif" font-size="14.00" fill="#000000">AuthRoutingModule</text>
</g>
<!-- AuthRoutingModule&#45;&gt;AuthModule -->
<g id="edge10" class="edge">
<title>AuthRoutingModule&#45;&gt;AuthModule</title>
<path fill="none" stroke="#000000" d="M1643,-122.1871C1643,-137.1824 1643,-156 1643,-156 1643,-156 1812.2084,-156 1812.2084,-156"/>
<polygon fill="#000000" stroke="#000000" points="1812.2085,-159.5001 1822.2084,-156 1812.2084,-152.5001 1812.2085,-159.5001"/>
</g>
<!-- AuthService -->
<g id="node12" class="node">
<title>AuthService</title>
<ellipse fill="#fdb462" stroke="#000000" cx="1494" cy="-104" rx="59.1083" ry="18"/>
<text text-anchor="middle" x="1494" y="-99.8" font-family="Times,serif" font-size="14.00" fill="#000000">AuthService</text>
</g>
<!-- AuthService&#45;&gt;AuthModule -->
<g id="edge11" class="edge">
<title>AuthService&#45;&gt;AuthModule</title>
<path fill="none" stroke="#000000" d="M1494,-122.027C1494,-138.3976 1494,-160 1494,-160 1494,-160 1812.233,-160 1812.233,-160"/>
<polygon fill="#000000" stroke="#000000" points="1812.233,-163.5001 1822.233,-160 1812.2329,-156.5001 1812.233,-163.5001"/>
</g>
<!-- AuthGuard -->
<g id="node13" class="node">
<title>AuthGuard</title>
<ellipse fill="#fdb462" stroke="#000000" cx="1362" cy="-104" rx="54.4566" ry="18"/>
<text text-anchor="middle" x="1362" y="-99.8" font-family="Times,serif" font-size="14.00" fill="#000000">AuthGuard</text>
</g>
<!-- AuthGuard&#45;&gt;AuthModule -->
<g id="edge12" class="edge">
<title>AuthGuard&#45;&gt;AuthModule</title>
<path fill="none" stroke="#000000" d="M1362,-122.302C1362,-140.2699 1362,-165 1362,-165 1362,-165 1812.155,-165 1812.155,-165"/>
<polygon fill="#000000" stroke="#000000" points="1812.155,-168.5001 1822.155,-165 1812.1549,-161.5001 1812.155,-168.5001"/>
</g>
<!-- NoAuthGuard -->
<g id="node14" class="node">
<title>NoAuthGuard</title>
<ellipse fill="#fdb462" stroke="#000000" cx="1223" cy="-104" rx="66.0569" ry="18"/>
<text text-anchor="middle" x="1223" y="-99.8" font-family="Times,serif" font-size="14.00" fill="#000000">NoAuthGuard</text>
</g>
<!-- NoAuthGuard&#45;&gt;AuthModule -->
<g id="edge13" class="edge">
<title>NoAuthGuard&#45;&gt;AuthModule</title>
<path fill="none" stroke="#000000" d="M1223,-122.1061C1223,-141.3391 1223,-169 1223,-169 1223,-169 1812.3095,-169 1812.3095,-169"/>
<polygon fill="#000000" stroke="#000000" points="1812.3096,-172.5001 1822.3095,-169 1812.3095,-165.5001 1812.3096,-172.5001"/>
</g>
<!-- { provide: HTTP_INTERCEPTORS, useClass: JwtInterceptor, multi: &#160;} -->
<g id="node15" class="node">
<title>{ provide: HTTP_INTERCEPTORS, useClass: JwtInterceptor, multi: &#160;}</title>
<ellipse fill="#fdb462" stroke="#000000" cx="849" cy="-104" rx="289.1299" ry="18"/>
<text text-anchor="middle" x="849" y="-99.8" font-family="Times,serif" font-size="14.00" fill="#000000">{ provide: HTTP_INTERCEPTORS, useClass: JwtInterceptor, multi: &#160;}</text>
</g>
<!-- { provide: HTTP_INTERCEPTORS, useClass: JwtInterceptor, multi: &#160;}&#45;&gt;AuthModule -->
<g id="edge14" class="edge">
<title>{ provide: HTTP_INTERCEPTORS, useClass: JwtInterceptor, multi: &#160;}&#45;&gt;AuthModule</title>
<path fill="none" stroke="#000000" d="M849,-122.0267C849,-142.7672 849,-174 849,-174 849,-174 1812.3008,-174 1812.3008,-174"/>
<polygon fill="#000000" stroke="#000000" points="1812.3008,-177.5001 1822.3008,-174 1812.3007,-170.5001 1812.3008,-177.5001"/>
</g>
<!-- { provide: JWT_OPTIONS, useValue: &#160;} -->
<g id="node16" class="node">
<title>{ provide: JWT_OPTIONS, useValue: &#160;}</title>
<ellipse fill="#fdb462" stroke="#000000" cx="372" cy="-104" rx="169.8966" ry="18"/>
<text text-anchor="middle" x="372" y="-99.8" font-family="Times,serif" font-size="14.00" fill="#000000">{ provide: JWT_OPTIONS, useValue: &#160;}</text>
</g>
<!-- { provide: JWT_OPTIONS, useValue: &#160;}&#45;&gt;AuthModule -->
<g id="edge15" class="edge">
<title>{ provide: JWT_OPTIONS, useValue: &#160;}&#45;&gt;AuthModule</title>
<path fill="none" stroke="#000000" d="M372,-122.2921C372,-144.2057 372,-178 372,-178 372,-178 1812.0965,-178 1812.0965,-178"/>
<polygon fill="#000000" stroke="#000000" points="1812.0966,-181.5001 1822.0965,-178 1812.0965,-174.5001 1812.0966,-181.5001"/>
</g>
<!-- JwtHelperService -->
<g id="node17" class="node">
<title>JwtHelperService</title>
<ellipse fill="#fdb462" stroke="#000000" cx="104" cy="-104" rx="79.8488" ry="18"/>
<text text-anchor="middle" x="104" y="-99.8" font-family="Times,serif" font-size="14.00" fill="#000000">JwtHelperService</text>
</g>
<!-- JwtHelperService&#45;&gt;AuthModule -->
<g id="edge16" class="edge">
<title>JwtHelperService&#45;&gt;AuthModule</title>
<path fill="none" stroke="#000000" d="M104,-122.3228C104,-145.6602 104,-183 104,-183 104,-183 1812.4447,-183 1812.4447,-183"/>
<polygon fill="#000000" stroke="#000000" points="1812.4447,-186.5001 1822.4447,-183 1812.4447,-179.5001 1812.4447,-186.5001"/>
</g>
</g>
</svg>
