<?xml version="1.0" encoding="UTF-8" standalone="no"?>
<!DOCTYPE svg PUBLIC "-//W3C//DTD SVG 1.1//EN"
 "http://www.w3.org/Graphics/SVG/1.1/DTD/svg11.dtd">
<!-- Generated by graphviz version 2.40.1 (20161225.0304)
 -->
<!-- Title: dependencies Pages: 1 -->
<svg width="962pt" height="211pt"
 viewBox="0.00 0.00 962.00 211.00" xmlns="http://www.w3.org/2000/svg" xmlns:xlink="http://www.w3.org/1999/xlink">
<g id="graph0" class="graph" transform="scale(1 1) rotate(0) translate(4 207)">
<title>dependencies</title>
<polygon fill="#ffffff" stroke="transparent" points="-4,4 -4,-207 958,-207 958,4 -4,4"/>
<text text-anchor="start" x="456.0091" y="-42.4" font-family="sans-serif" font-weight="bold" font-size="14.00" fill="#000000">Legend</text>
<polygon fill="#ffffb3" stroke="transparent" points="243,-10 243,-30 263,-30 263,-10 243,-10"/>
<text text-anchor="start" x="266.629" y="-15.4" font-family="sans-serif" font-size="14.00" fill="#000000"> &#160;Declarations</text>
<polygon fill="#8dd3c7" stroke="transparent" points="356,-10 356,-30 376,-30 376,-10 356,-10"/>
<text text-anchor="start" x="379.7251" y="-15.4" font-family="sans-serif" font-size="14.00" fill="#000000"> &#160;Module</text>
<polygon fill="#80b1d3" stroke="transparent" points="442,-10 442,-30 462,-30 462,-10 442,-10"/>
<text text-anchor="start" x="465.7812" y="-15.4" font-family="sans-serif" font-size="14.00" fill="#000000"> &#160;Bootstrap</text>
<polygon fill="#fdb462" stroke="transparent" points="539,-10 539,-30 559,-30 559,-10 539,-10"/>
<text text-anchor="start" x="562.6732" y="-15.4" font-family="sans-serif" font-size="14.00" fill="#000000"> &#160;Providers</text>
<polygon fill="#fb8072" stroke="transparent" points="635,-10 635,-30 655,-30 655,-10 635,-10"/>
<text text-anchor="start" x="658.7258" y="-15.4" font-family="sans-serif" font-size="14.00" fill="#000000"> &#160;Exports</text>
<g id="clust1" class="cluster">
<title>cluster_AuthModule</title>
<polygon fill="none" stroke="#000000" stroke-dasharray="1,5" points="8,-70 8,-195 946,-195 946,-70 8,-70"/>
</g>
<g id="clust2" class="cluster">
<title>cluster_AuthModule_declarations</title>
<polygon fill="none" stroke="#000000" points="314,-78 314,-130 938,-130 938,-78 314,-78"/>
</g>
<g id="clust8" class="cluster">
<title>cluster_AuthModule_imports</title>
<polygon fill="none" stroke="#000000" points="158,-78 158,-130 306,-130 306,-78 158,-78"/>
</g>
<g id="clust11" class="cluster">
<title>cluster_AuthModule_providers</title>
<polygon fill="none" stroke="#000000" points="16,-78 16,-130 150,-130 150,-78 16,-78"/>
</g>
<!-- ChangePasswordPage -->
<g id="node1" class="node">
<title>ChangePasswordPage</title>
<polygon fill="#ffffb3" stroke="#000000" points="929.6317,-122 790.3683,-122 790.3683,-86 929.6317,-86 929.6317,-122"/>
<text text-anchor="middle" x="860" y="-99.8" font-family="Times,serif" font-size="14.00" fill="#000000">ChangePasswordPage</text>
</g>
<!-- AuthModule -->
<g id="node6" class="node">
<title>AuthModule</title>
<polygon fill="#8dd3c7" stroke="#000000" points="505.5482,-187 502.5482,-191 481.5482,-191 478.5482,-187 418.4518,-187 418.4518,-151 505.5482,-151 505.5482,-187"/>
<text text-anchor="middle" x="462" y="-164.8" font-family="Times,serif" font-size="14.00" fill="#000000">AuthModule</text>
</g>
<!-- ChangePasswordPage&#45;&gt;AuthModule -->
<g id="edge1" class="edge">
<title>ChangePasswordPage&#45;&gt;AuthModule</title>
<path fill="none" stroke="#000000" d="M860,-122.2921C860,-144.2057 860,-178 860,-178 860,-178 515.7315,-178 515.7315,-178"/>
<polygon fill="#000000" stroke="#000000" points="515.7315,-174.5001 505.7315,-178 515.7314,-181.5001 515.7315,-174.5001"/>
</g>
<!-- ForgotPasswordPage -->
<g id="node2" class="node">
<title>ForgotPasswordPage</title>
<polygon fill="#ffffb3" stroke="#000000" points="772.1993,-122 637.8007,-122 637.8007,-86 772.1993,-86 772.1993,-122"/>
<text text-anchor="middle" x="705" y="-99.8" font-family="Times,serif" font-size="14.00" fill="#000000">ForgotPasswordPage</text>
</g>
<!-- ForgotPasswordPage&#45;&gt;AuthModule -->
<g id="edge2" class="edge">
<title>ForgotPasswordPage&#45;&gt;AuthModule</title>
<path fill="none" stroke="#000000" d="M705,-122.1061C705,-141.3391 705,-169 705,-169 705,-169 515.7242,-169 515.7242,-169"/>
<polygon fill="#000000" stroke="#000000" points="515.7242,-165.5001 505.7242,-169 515.7241,-172.5001 515.7242,-165.5001"/>
</g>
<!-- NotFoundPage -->
<g id="node3" class="node">
<title>NotFoundPage</title>
<polygon fill="#ffffb3" stroke="#000000" points="619.9916,-122 520.0084,-122 520.0084,-86 619.9916,-86 619.9916,-122"/>
<text text-anchor="middle" x="570" y="-99.8" font-family="Times,serif" font-size="14.00" fill="#000000">NotFoundPage</text>
</g>
<!-- NotFoundPage&#45;&gt;AuthModule -->
<g id="edge3" class="edge">
<title>NotFoundPage&#45;&gt;AuthModule</title>
<path fill="none" stroke="#000000" d="M570,-122.027C570,-138.3976 570,-160 570,-160 570,-160 515.6164,-160 515.6164,-160"/>
<polygon fill="#000000" stroke="#000000" points="515.6165,-156.5001 505.6164,-160 515.6164,-163.5001 515.6165,-156.5001"/>
</g>
<!-- SigninPage -->
<g id="node4" class="node">
<title>SigninPage</title>
<polygon fill="#ffffb3" stroke="#000000" points="501.7759,-122 422.2241,-122 422.2241,-86 501.7759,-86 501.7759,-122"/>
<text text-anchor="middle" x="462" y="-99.8" font-family="Times,serif" font-size="14.00" fill="#000000">SigninPage</text>
</g>
<!-- SigninPage&#45;&gt;AuthModule -->
<g id="edge4" class="edge">
<title>SigninPage&#45;&gt;AuthModule</title>
<path fill="none" stroke="#000000" d="M462,-122.1061C462,-122.1061 462,-140.991 462,-140.991"/>
<polygon fill="#000000" stroke="#000000" points="458.5001,-140.9909 462,-150.991 465.5001,-140.991 458.5001,-140.9909"/>
</g>
<!-- SignupPage -->
<g id="node5" class="node">
<title>SignupPage</title>
<polygon fill="#ffffb3" stroke="#000000" points="404.3851,-122 321.6149,-122 321.6149,-86 404.3851,-86 404.3851,-122"/>
<text text-anchor="middle" x="363" y="-99.8" font-family="Times,serif" font-size="14.00" fill="#000000">SignupPage</text>
</g>
<!-- SignupPage&#45;&gt;AuthModule -->
<g id="edge5" class="edge">
<title>SignupPage&#45;&gt;AuthModule</title>
<path fill="none" stroke="#000000" d="M363,-122.027C363,-138.3976 363,-160 363,-160 363,-160 408.289,-160 408.289,-160"/>
<polygon fill="#000000" stroke="#000000" points="408.289,-163.5001 418.289,-160 408.2889,-156.5001 408.289,-163.5001"/>
</g>
<!-- AuthRoutingModule -->
<g id="node7" class="node">
<title>AuthRoutingModule</title>
<polygon fill="#8dd3c7" stroke="#000000" points="298.1652,-122 295.1652,-126 274.1652,-126 271.1652,-122 165.8348,-122 165.8348,-86 298.1652,-86 298.1652,-122"/>
<text text-anchor="middle" x="232" y="-99.8" font-family="Times,serif" font-size="14.00" fill="#000000">AuthRoutingModule</text>
</g>
<!-- AuthRoutingModule&#45;&gt;AuthModule -->
<g id="edge6" class="edge">
<title>AuthRoutingModule&#45;&gt;AuthModule</title>
<path fill="none" stroke="#000000" d="M232,-122.1061C232,-141.3391 232,-169 232,-169 232,-169 408.1974,-169 408.1974,-169"/>
<polygon fill="#000000" stroke="#000000" points="408.1974,-172.5001 418.1974,-169 408.1973,-165.5001 408.1974,-172.5001"/>
</g>
<!-- AuthService -->
<g id="node8" class="node">
<title>AuthService</title>
<ellipse fill="#fdb462" stroke="#000000" cx="83" cy="-104" rx="59.1083" ry="18"/>
<text text-anchor="middle" x="83" y="-99.8" font-family="Times,serif" font-size="14.00" fill="#000000">AuthService</text>
</g>
<!-- AuthService&#45;&gt;AuthModule -->
<g id="edge7" class="edge">
<title>AuthService&#45;&gt;AuthModule</title>
<path fill="none" stroke="#000000" d="M83,-122.2921C83,-144.2057 83,-178 83,-178 83,-178 408.1536,-178 408.1536,-178"/>
<polygon fill="#000000" stroke="#000000" points="408.1537,-181.5001 418.1536,-178 408.1536,-174.5001 408.1537,-181.5001"/>
</g>
</g>
</svg>
