<?xml version="1.0" encoding="UTF-8" standalone="no"?>
<!DOCTYPE svg PUBLIC "-//W3C//DTD SVG 1.1//EN"
 "http://www.w3.org/Graphics/SVG/1.1/DTD/svg11.dtd">
<!-- Generated by graphviz version 2.40.1 (20161225.0304)
 -->
<!-- Title: dependencies Pages: 1 -->
<svg width="1759pt" height="211pt"
 viewBox="0.00 0.00 1759.00 211.00" xmlns="http://www.w3.org/2000/svg" xmlns:xlink="http://www.w3.org/1999/xlink">
<g id="graph0" class="graph" transform="scale(1 1) rotate(0) translate(4 207)">
<title>dependencies</title>
<polygon fill="#ffffff" stroke="transparent" points="-4,4 -4,-207 1755,-207 1755,4 -4,4"/>
<text text-anchor="start" x="854.5091" y="-42.4" font-family="sans-serif" font-weight="bold" font-size="14.00" fill="#000000">Legend</text>
<polygon fill="#ffffb3" stroke="transparent" points="641.5,-10 641.5,-30 661.5,-30 661.5,-10 641.5,-10"/>
<text text-anchor="start" x="665.129" y="-15.4" font-family="sans-serif" font-size="14.00" fill="#000000"> &#160;Declarations</text>
<polygon fill="#8dd3c7" stroke="transparent" points="754.5,-10 754.5,-30 774.5,-30 774.5,-10 754.5,-10"/>
<text text-anchor="start" x="778.2251" y="-15.4" font-family="sans-serif" font-size="14.00" fill="#000000"> &#160;Module</text>
<polygon fill="#80b1d3" stroke="transparent" points="840.5,-10 840.5,-30 860.5,-30 860.5,-10 840.5,-10"/>
<text text-anchor="start" x="864.2812" y="-15.4" font-family="sans-serif" font-size="14.00" fill="#000000"> &#160;Bootstrap</text>
<polygon fill="#fdb462" stroke="transparent" points="937.5,-10 937.5,-30 957.5,-30 957.5,-10 937.5,-10"/>
<text text-anchor="start" x="961.1732" y="-15.4" font-family="sans-serif" font-size="14.00" fill="#000000"> &#160;Providers</text>
<polygon fill="#fb8072" stroke="transparent" points="1033.5,-10 1033.5,-30 1053.5,-30 1053.5,-10 1033.5,-10"/>
<text text-anchor="start" x="1057.2258" y="-15.4" font-family="sans-serif" font-size="14.00" fill="#000000"> &#160;Exports</text>
<g id="clust1" class="cluster">
<title>cluster_AppConfigModule</title>
<polygon fill="none" stroke="#000000" stroke-dasharray="1,5" points="8,-70 8,-195 1743,-195 1743,-70 8,-70"/>
</g>
<g id="clust6" class="cluster">
<title>cluster_AppConfigModule_providers</title>
<polygon fill="none" stroke="#000000" points="16,-78 16,-130 1735,-130 1735,-78 16,-78"/>
</g>
<!-- { provide: &#39;ENDPOINT&#39;, useValue: &#160;} -->
<g id="node1" class="node">
<title>{ provide: &#39;ENDPOINT&#39;, useValue: &#160;}</title>
<ellipse fill="#fdb462" stroke="#000000" cx="1567" cy="-104" rx="160.0637" ry="18"/>
<text text-anchor="middle" x="1567" y="-99.8" font-family="Times,serif" font-size="14.00" fill="#000000">{ provide: &#39;ENDPOINT&#39;, useValue: &#160;}</text>
</g>
<!-- AppConfigModule -->
<g id="node5" class="node">
<title>AppConfigModule</title>
<polygon fill="#8dd3c7" stroke="#000000" points="1098.045,-187 1095.045,-191 1074.045,-191 1071.045,-187 975.955,-187 975.955,-151 1098.045,-151 1098.045,-187"/>
<text text-anchor="middle" x="1037" y="-164.8" font-family="Times,serif" font-size="14.00" fill="#000000">AppConfigModule</text>
</g>
<!-- { provide: &#39;ENDPOINT&#39;, useValue: &#160;}&#45;&gt;AppConfigModule -->
<g id="edge1" class="edge">
<title>{ provide: &#39;ENDPOINT&#39;, useValue: &#160;}&#45;&gt;AppConfigModule</title>
<path fill="none" stroke="#000000" d="M1567,-122.1061C1567,-141.3391 1567,-169 1567,-169 1567,-169 1108.0564,-169 1108.0564,-169"/>
<polygon fill="#000000" stroke="#000000" points="1108.0564,-165.5001 1098.0564,-169 1108.0564,-172.5001 1108.0564,-165.5001"/>
</g>
<!-- { provide: &#39;RESOURCE&#39;, useValue: &#160;} -->
<g id="node2" class="node">
<title>{ provide: &#39;RESOURCE&#39;, useValue: &#160;}</title>
<ellipse fill="#fdb462" stroke="#000000" cx="1226" cy="-104" rx="162.3897" ry="18"/>
<text text-anchor="middle" x="1226" y="-99.8" font-family="Times,serif" font-size="14.00" fill="#000000">{ provide: &#39;RESOURCE&#39;, useValue: &#160;}</text>
</g>
<!-- { provide: &#39;RESOURCE&#39;, useValue: &#160;}&#45;&gt;AppConfigModule -->
<g id="edge2" class="edge">
<title>{ provide: &#39;RESOURCE&#39;, useValue: &#160;}&#45;&gt;AppConfigModule</title>
<path fill="none" stroke="#000000" d="M1080.9136,-112.2323C1080.9136,-112.2323 1080.9136,-140.7574 1080.9136,-140.7574"/>
<polygon fill="#000000" stroke="#000000" points="1077.4137,-140.7574 1080.9136,-150.7574 1084.4137,-140.7575 1077.4137,-140.7574"/>
</g>
<!-- { provide: &#39;GOOGLE_API_KEY&#39;, useValue: &#160;} -->
<g id="node3" class="node">
<title>{ provide: &#39;GOOGLE_API_KEY&#39;, useValue: &#160;}</title>
<ellipse fill="#fdb462" stroke="#000000" cx="849" cy="-104" rx="196.5045" ry="18"/>
<text text-anchor="middle" x="849" y="-99.8" font-family="Times,serif" font-size="14.00" fill="#000000">{ provide: &#39;GOOGLE_API_KEY&#39;, useValue: &#160;}</text>
</g>
<!-- { provide: &#39;GOOGLE_API_KEY&#39;, useValue: &#160;}&#45;&gt;AppConfigModule -->
<g id="edge3" class="edge">
<title>{ provide: &#39;GOOGLE_API_KEY&#39;, useValue: &#160;}&#45;&gt;AppConfigModule</title>
<path fill="none" stroke="#000000" d="M1010.74,-114.4434C1010.74,-114.4434 1010.74,-140.9681 1010.74,-140.9681"/>
<polygon fill="#000000" stroke="#000000" points="1007.2401,-140.968 1010.74,-150.9681 1014.2401,-140.9681 1007.2401,-140.968"/>
</g>
<!-- { provide: HTTP_INTERCEPTORS, useClass: InterceptorService, multi: &#160;} -->
<g id="node4" class="node">
<title>{ provide: HTTP_INTERCEPTORS, useClass: InterceptorService, multi: &#160;}</title>
<ellipse fill="#fdb462" stroke="#000000" cx="329" cy="-104" rx="304.7194" ry="18"/>
<text text-anchor="middle" x="329" y="-99.8" font-family="Times,serif" font-size="14.00" fill="#000000">{ provide: HTTP_INTERCEPTORS, useClass: InterceptorService, multi: &#160;}</text>
</g>
<!-- { provide: HTTP_INTERCEPTORS, useClass: InterceptorService, multi: &#160;}&#45;&gt;AppConfigModule -->
<g id="edge4" class="edge">
<title>{ provide: HTTP_INTERCEPTORS, useClass: InterceptorService, multi: &#160;}&#45;&gt;AppConfigModule</title>
<path fill="none" stroke="#000000" d="M329,-122.1061C329,-141.3391 329,-169 329,-169 329,-169 965.7162,-169 965.7162,-169"/>
<polygon fill="#000000" stroke="#000000" points="965.7162,-172.5001 975.7162,-169 965.7161,-165.5001 965.7162,-172.5001"/>
</g>
</g>
</svg>
