<?xml version="1.0" encoding="UTF-8" standalone="no"?>
<!DOCTYPE svg PUBLIC "-//W3C//DTD SVG 1.1//EN"
 "http://www.w3.org/Graphics/SVG/1.1/DTD/svg11.dtd">
<!-- Generated by graphviz version 2.40.1 (20161225.0304)
 -->
<!-- Title: dependencies Pages: 1 -->
<svg width="504pt" height="211pt"
 viewBox="0.00 0.00 504.00 211.00" xmlns="http://www.w3.org/2000/svg" xmlns:xlink="http://www.w3.org/1999/xlink">
<g id="graph0" class="graph" transform="scale(1 1) rotate(0) translate(4 207)">
<title>dependencies</title>
<polygon fill="#ffffff" stroke="transparent" points="-4,4 -4,-207 500,-207 500,4 -4,4"/>
<text text-anchor="start" x="227.0091" y="-42.4" font-family="sans-serif" font-weight="bold" font-size="14.00" fill="#000000">Legend</text>
<polygon fill="#ffffb3" stroke="transparent" points="14,-10 14,-30 34,-30 34,-10 14,-10"/>
<text text-anchor="start" x="37.629" y="-15.4" font-family="sans-serif" font-size="14.00" fill="#000000"> &#160;Declarations</text>
<polygon fill="#8dd3c7" stroke="transparent" points="127,-10 127,-30 147,-30 147,-10 127,-10"/>
<text text-anchor="start" x="150.7251" y="-15.4" font-family="sans-serif" font-size="14.00" fill="#000000"> &#160;Module</text>
<polygon fill="#80b1d3" stroke="transparent" points="213,-10 213,-30 233,-30 233,-10 213,-10"/>
<text text-anchor="start" x="236.7812" y="-15.4" font-family="sans-serif" font-size="14.00" fill="#000000"> &#160;Bootstrap</text>
<polygon fill="#fdb462" stroke="transparent" points="310,-10 310,-30 330,-30 330,-10 310,-10"/>
<text text-anchor="start" x="333.6732" y="-15.4" font-family="sans-serif" font-size="14.00" fill="#000000"> &#160;Providers</text>
<polygon fill="#fb8072" stroke="transparent" points="406,-10 406,-30 426,-30 426,-10 406,-10"/>
<text text-anchor="start" x="429.7258" y="-15.4" font-family="sans-serif" font-size="14.00" fill="#000000"> &#160;Exports</text>
<g id="clust1" class="cluster">
<title>cluster_NativeModule</title>
<polygon fill="none" stroke="#000000" stroke-dasharray="1,5" points="103,-70 103,-195 393,-195 393,-70 103,-70"/>
</g>
<g id="clust6" class="cluster">
<title>cluster_NativeModule_providers</title>
<polygon fill="none" stroke="#000000" points="111,-78 111,-130 385,-130 385,-78 111,-78"/>
</g>
<!-- FileService -->
<g id="node1" class="node">
<title>FileService</title>
<ellipse fill="#fdb462" stroke="#000000" cx="322" cy="-104" rx="55.0285" ry="18"/>
<text text-anchor="middle" x="322" y="-99.8" font-family="Times,serif" font-size="14.00" fill="#000000">FileService</text>
</g>
<!-- NativeModule -->
<g id="node3" class="node">
<title>NativeModule</title>
<polygon fill="#8dd3c7" stroke="#000000" points="301.3669,-187 298.3669,-191 277.3669,-191 274.3669,-187 204.6331,-187 204.6331,-151 301.3669,-151 301.3669,-187"/>
<text text-anchor="middle" x="253" y="-164.8" font-family="Times,serif" font-size="14.00" fill="#000000">NativeModule</text>
</g>
<!-- FileService&#45;&gt;NativeModule -->
<g id="edge1" class="edge">
<title>FileService&#45;&gt;NativeModule</title>
<path fill="none" stroke="#000000" d="M284.2096,-117.1537C284.2096,-117.1537 284.2096,-140.6938 284.2096,-140.6938"/>
<polygon fill="#000000" stroke="#000000" points="280.7097,-140.6938 284.2096,-150.6938 287.7097,-140.6939 280.7097,-140.6938"/>
</g>
<!-- MediaService -->
<g id="node2" class="node">
<title>MediaService</title>
<ellipse fill="#fdb462" stroke="#000000" cx="184" cy="-104" rx="64.8234" ry="18"/>
<text text-anchor="middle" x="184" y="-99.8" font-family="Times,serif" font-size="14.00" fill="#000000">MediaService</text>
</g>
<!-- MediaService&#45;&gt;NativeModule -->
<g id="edge2" class="edge">
<title>MediaService&#45;&gt;NativeModule</title>
<path fill="none" stroke="#000000" d="M226.6141,-117.7848C226.6141,-117.7848 226.6141,-140.5475 226.6141,-140.5475"/>
<polygon fill="#000000" stroke="#000000" points="223.1142,-140.5474 226.6141,-150.5475 230.1142,-140.5475 223.1142,-140.5474"/>
</g>
</g>
</svg>
