<?xml version="1.0" encoding="UTF-8" standalone="no"?>
<!DOCTYPE svg PUBLIC "-//W3C//DTD SVG 1.1//EN"
 "http://www.w3.org/Graphics/SVG/1.1/DTD/svg11.dtd">
<!-- Generated by graphviz version 2.40.1 (20161225.0304)
 -->
<!-- Title: dependencies Pages: 1 -->
<svg width="810pt" height="211pt"
 viewBox="0.00 0.00 810.00 211.00" xmlns="http://www.w3.org/2000/svg" xmlns:xlink="http://www.w3.org/1999/xlink">
<g id="graph0" class="graph" transform="scale(1 1) rotate(0) translate(4 207)">
<title>dependencies</title>
<polygon fill="#ffffff" stroke="transparent" points="-4,4 -4,-207 806,-207 806,4 -4,4"/>
<text text-anchor="start" x="380.0091" y="-42.4" font-family="sans-serif" font-weight="bold" font-size="14.00" fill="#000000">Legend</text>
<polygon fill="#ffffb3" stroke="transparent" points="167,-10 167,-30 187,-30 187,-10 167,-10"/>
<text text-anchor="start" x="190.629" y="-15.4" font-family="sans-serif" font-size="14.00" fill="#000000"> &#160;Declarations</text>
<polygon fill="#8dd3c7" stroke="transparent" points="280,-10 280,-30 300,-30 300,-10 280,-10"/>
<text text-anchor="start" x="303.7251" y="-15.4" font-family="sans-serif" font-size="14.00" fill="#000000"> &#160;Module</text>
<polygon fill="#80b1d3" stroke="transparent" points="366,-10 366,-30 386,-30 386,-10 366,-10"/>
<text text-anchor="start" x="389.7812" y="-15.4" font-family="sans-serif" font-size="14.00" fill="#000000"> &#160;Bootstrap</text>
<polygon fill="#fdb462" stroke="transparent" points="463,-10 463,-30 483,-30 483,-10 463,-10"/>
<text text-anchor="start" x="486.6732" y="-15.4" font-family="sans-serif" font-size="14.00" fill="#000000"> &#160;Providers</text>
<polygon fill="#fb8072" stroke="transparent" points="559,-10 559,-30 579,-30 579,-10 559,-10"/>
<text text-anchor="start" x="582.7258" y="-15.4" font-family="sans-serif" font-size="14.00" fill="#000000"> &#160;Exports</text>
<g id="clust1" class="cluster">
<title>cluster_NativeModule</title>
<polygon fill="none" stroke="#000000" stroke-dasharray="1,5" points="8,-70 8,-195 794,-195 794,-70 8,-70"/>
</g>
<g id="clust3" class="cluster">
<title>cluster_NativeModule_imports</title>
<polygon fill="none" stroke="#000000" points="658,-78 658,-130 786,-130 786,-78 658,-78"/>
</g>
<g id="clust6" class="cluster">
<title>cluster_NativeModule_providers</title>
<polygon fill="none" stroke="#000000" points="16,-78 16,-130 650,-130 650,-78 16,-78"/>
</g>
<!-- CommonModule -->
<g id="node1" class="node">
<title>CommonModule</title>
<polygon fill="#8dd3c7" stroke="#000000" points="777.6681,-122 774.6681,-126 753.6681,-126 750.6681,-122 666.3319,-122 666.3319,-86 777.6681,-86 777.6681,-122"/>
<text text-anchor="middle" x="722" y="-99.8" font-family="Times,serif" font-size="14.00" fill="#000000">CommonModule</text>
</g>
<!-- NativeModule -->
<g id="node2" class="node">
<title>NativeModule</title>
<polygon fill="#8dd3c7" stroke="#000000" points="467.3669,-187 464.3669,-191 443.3669,-191 440.3669,-187 370.6331,-187 370.6331,-151 467.3669,-151 467.3669,-187"/>
<text text-anchor="middle" x="419" y="-164.8" font-family="Times,serif" font-size="14.00" fill="#000000">NativeModule</text>
</g>
<!-- CommonModule&#45;&gt;NativeModule -->
<g id="edge1" class="edge">
<title>CommonModule&#45;&gt;NativeModule</title>
<path fill="none" stroke="#000000" d="M722,-122.2843C722,-143.3211 722,-175 722,-175 722,-175 477.6822,-175 477.6822,-175"/>
<polygon fill="#000000" stroke="#000000" points="477.6822,-171.5001 467.6822,-175 477.6822,-178.5001 477.6822,-171.5001"/>
</g>
<!-- FileNative -->
<g id="node3" class="node">
<title>FileNative</title>
<ellipse fill="#fdb462" stroke="#000000" cx="590" cy="-104" rx="51.5996" ry="18"/>
<text text-anchor="middle" x="590" y="-99.8" font-family="Times,serif" font-size="14.00" fill="#000000">FileNative</text>
</g>
<!-- FileNative&#45;&gt;NativeModule -->
<g id="edge2" class="edge">
<title>FileNative&#45;&gt;NativeModule</title>
<path fill="none" stroke="#000000" d="M590,-122.0225C590,-139.3734 590,-163 590,-163 590,-163 477.5443,-163 477.5443,-163"/>
<polygon fill="#000000" stroke="#000000" points="477.5444,-159.5001 467.5443,-163 477.5443,-166.5001 477.5444,-159.5001"/>
</g>
<!-- Camera -->
<g id="node4" class="node">
<title>Camera</title>
<ellipse fill="#fdb462" stroke="#000000" cx="479" cy="-104" rx="41.1277" ry="18"/>
<text text-anchor="middle" x="479" y="-99.8" font-family="Times,serif" font-size="14.00" fill="#000000">Camera</text>
</g>
<!-- Camera&#45;&gt;NativeModule -->
<g id="edge3" class="edge">
<title>Camera&#45;&gt;NativeModule</title>
<path fill="none" stroke="#000000" d="M452.6848,-118.104C452.6848,-118.104 452.6848,-140.7209 452.6848,-140.7209"/>
<polygon fill="#000000" stroke="#000000" points="449.1849,-140.7209 452.6848,-150.7209 456.1849,-140.7209 449.1849,-140.7209"/>
</g>
<!-- ImagePicker -->
<g id="node5" class="node">
<title>ImagePicker</title>
<ellipse fill="#fdb462" stroke="#000000" cx="360" cy="-104" rx="59.6685" ry="18"/>
<text text-anchor="middle" x="360" y="-99.8" font-family="Times,serif" font-size="14.00" fill="#000000">ImagePicker</text>
</g>
<!-- ImagePicker&#45;&gt;NativeModule -->
<g id="edge4" class="edge">
<title>ImagePicker&#45;&gt;NativeModule</title>
<path fill="none" stroke="#000000" d="M395.2003,-118.7495C395.2003,-118.7495 395.2003,-140.5882 395.2003,-140.5882"/>
<polygon fill="#000000" stroke="#000000" points="391.7004,-140.5881 395.2003,-150.5882 398.7004,-140.5882 391.7004,-140.5881"/>
</g>
<!-- FileService -->
<g id="node6" class="node">
<title>FileService</title>
<ellipse fill="#fdb462" stroke="#000000" cx="227" cy="-104" rx="55.0285" ry="18"/>
<text text-anchor="middle" x="227" y="-99.8" font-family="Times,serif" font-size="14.00" fill="#000000">FileService</text>
</g>
<!-- FileService&#45;&gt;NativeModule -->
<g id="edge5" class="edge">
<title>FileService&#45;&gt;NativeModule</title>
<path fill="none" stroke="#000000" d="M227,-122.0225C227,-139.3734 227,-163 227,-163 227,-163 360.5503,-163 360.5503,-163"/>
<polygon fill="#000000" stroke="#000000" points="360.5503,-166.5001 370.5503,-163 360.5503,-159.5001 360.5503,-166.5001"/>
</g>
<!-- MediaService -->
<g id="node7" class="node">
<title>MediaService</title>
<ellipse fill="#fdb462" stroke="#000000" cx="89" cy="-104" rx="64.8234" ry="18"/>
<text text-anchor="middle" x="89" y="-99.8" font-family="Times,serif" font-size="14.00" fill="#000000">MediaService</text>
</g>
<!-- MediaService&#45;&gt;NativeModule -->
<g id="edge6" class="edge">
<title>MediaService&#45;&gt;NativeModule</title>
<path fill="none" stroke="#000000" d="M89,-122.2843C89,-143.3211 89,-175 89,-175 89,-175 360.3074,-175 360.3074,-175"/>
<polygon fill="#000000" stroke="#000000" points="360.3074,-178.5001 370.3074,-175 360.3073,-171.5001 360.3074,-178.5001"/>
</g>
</g>
</svg>
