<?xml version="1.0" encoding="UTF-8" standalone="no"?>
<!DOCTYPE svg PUBLIC "-//W3C//DTD SVG 1.1//EN"
 "http://www.w3.org/Graphics/SVG/1.1/DTD/svg11.dtd">
<!-- Generated by graphviz version 2.40.1 (20161225.0304)
 -->
<!-- Title: dependencies Pages: 1 -->
<svg width="752pt" height="284pt"
 viewBox="0.00 0.00 752.00 284.00" xmlns="http://www.w3.org/2000/svg" xmlns:xlink="http://www.w3.org/1999/xlink">
<g id="graph0" class="graph" transform="scale(1 1) rotate(0) translate(4 280)">
<title>dependencies</title>
<polygon fill="#ffffff" stroke="transparent" points="-4,4 -4,-280 748,-280 748,4 -4,4"/>
<text text-anchor="start" x="351.0091" y="-42.4" font-family="sans-serif" font-weight="bold" font-size="14.00" fill="#000000">Legend</text>
<polygon fill="#ffffb3" stroke="transparent" points="138,-10 138,-30 158,-30 158,-10 138,-10"/>
<text text-anchor="start" x="161.629" y="-15.4" font-family="sans-serif" font-size="14.00" fill="#000000"> &#160;Declarations</text>
<polygon fill="#8dd3c7" stroke="transparent" points="251,-10 251,-30 271,-30 271,-10 251,-10"/>
<text text-anchor="start" x="274.7251" y="-15.4" font-family="sans-serif" font-size="14.00" fill="#000000"> &#160;Module</text>
<polygon fill="#80b1d3" stroke="transparent" points="337,-10 337,-30 357,-30 357,-10 337,-10"/>
<text text-anchor="start" x="360.7812" y="-15.4" font-family="sans-serif" font-size="14.00" fill="#000000"> &#160;Bootstrap</text>
<polygon fill="#fdb462" stroke="transparent" points="434,-10 434,-30 454,-30 454,-10 434,-10"/>
<text text-anchor="start" x="457.6732" y="-15.4" font-family="sans-serif" font-size="14.00" fill="#000000"> &#160;Providers</text>
<polygon fill="#fb8072" stroke="transparent" points="530,-10 530,-30 550,-30 550,-10 530,-10"/>
<text text-anchor="start" x="553.7258" y="-15.4" font-family="sans-serif" font-size="14.00" fill="#000000"> &#160;Exports</text>
<g id="clust1" class="cluster">
<title>cluster_SharedModule</title>
<polygon fill="none" stroke="#000000" stroke-dasharray="1,5" points="8,-70 8,-268 736,-268 736,-70 8,-70"/>
</g>
<g id="clust2" class="cluster">
<title>cluster_SharedModule_declarations</title>
<polygon fill="none" stroke="#000000" points="25,-78 25,-130 719,-130 719,-78 25,-78"/>
</g>
<g id="clust9" class="cluster">
<title>cluster_SharedModule_exports</title>
<polygon fill="none" stroke="#000000" points="16,-208 16,-260 728,-260 728,-208 16,-208"/>
</g>
<!-- EventCardComponent -->
<g id="node1" class="node">
<title>EventCardComponent</title>
<polygon fill="#ffffb3" stroke="#000000" points="710.7021,-122 569.2979,-122 569.2979,-86 710.7021,-86 710.7021,-122"/>
<text text-anchor="middle" x="640" y="-99.8" font-family="Times,serif" font-size="14.00" fill="#000000">EventCardComponent</text>
</g>
<!-- SharedModule -->
<g id="node6" class="node">
<title>SharedModule</title>
<polygon fill="#8dd3c7" stroke="#000000" points="417.4231,-187 414.4231,-191 393.4231,-191 390.4231,-187 318.5769,-187 318.5769,-151 417.4231,-151 417.4231,-187"/>
<text text-anchor="middle" x="368" y="-164.8" font-family="Times,serif" font-size="14.00" fill="#000000">SharedModule</text>
</g>
<!-- EventCardComponent&#45;&gt;SharedModule -->
<g id="edge1" class="edge">
<title>EventCardComponent&#45;&gt;SharedModule</title>
<path fill="none" stroke="#000000" d="M665.617,-122.2667C665.617,-140.5552 665.617,-166 665.617,-166 665.617,-166 427.4795,-166 427.4795,-166"/>
<polygon fill="#000000" stroke="#000000" points="427.4795,-162.5001 417.4795,-166 427.4794,-169.5001 427.4795,-162.5001"/>
</g>
<!-- MapComponent -->
<g id="node2" class="node">
<title>MapComponent</title>
<polygon fill="#ffffb3" stroke="#000000" points="551.4916,-122 444.5084,-122 444.5084,-86 551.4916,-86 551.4916,-122"/>
<text text-anchor="middle" x="498" y="-99.8" font-family="Times,serif" font-size="14.00" fill="#000000">MapComponent</text>
</g>
<!-- MapComponent&#45;&gt;SharedModule -->
<g id="edge2" class="edge">
<title>MapComponent&#45;&gt;SharedModule</title>
<path fill="none" stroke="#000000" d="M516.5819,-122.0091C516.5819,-138.0494 516.5819,-159 516.5819,-159 516.5819,-159 427.4756,-159 427.4756,-159"/>
<polygon fill="#000000" stroke="#000000" points="427.4757,-155.5001 417.4756,-159 427.4756,-162.5001 427.4757,-155.5001"/>
</g>
<!-- MediaComponent -->
<g id="node3" class="node">
<title>MediaComponent</title>
<polygon fill="#ffffb3" stroke="#000000" points="426.5968,-122 309.4032,-122 309.4032,-86 426.5968,-86 426.5968,-122"/>
<text text-anchor="middle" x="368" y="-99.8" font-family="Times,serif" font-size="14.00" fill="#000000">MediaComponent</text>
</g>
<!-- MediaComponent&#45;&gt;SharedModule -->
<g id="edge3" class="edge">
<title>MediaComponent&#45;&gt;SharedModule</title>
<path fill="none" stroke="#000000" d="M368,-122.1061C368,-122.1061 368,-140.991 368,-140.991"/>
<polygon fill="#000000" stroke="#000000" points="364.5001,-140.9909 368,-150.991 371.5001,-140.991 364.5001,-140.9909"/>
</g>
<!-- SliderComponent -->
<g id="node4" class="node">
<title>SliderComponent</title>
<polygon fill="#ffffb3" stroke="#000000" points="291.2716,-122 176.7284,-122 176.7284,-86 291.2716,-86 291.2716,-122"/>
<text text-anchor="middle" x="234" y="-99.8" font-family="Times,serif" font-size="14.00" fill="#000000">SliderComponent</text>
</g>
<!-- SliderComponent&#45;&gt;SharedModule -->
<g id="edge4" class="edge">
<title>SliderComponent&#45;&gt;SharedModule</title>
<path fill="none" stroke="#000000" d="M252.2952,-122.0091C252.2952,-138.0494 252.2952,-159 252.2952,-159 252.2952,-159 308.5951,-159 308.5951,-159"/>
<polygon fill="#000000" stroke="#000000" points="308.5952,-162.5001 318.5951,-159 308.5951,-155.5001 308.5952,-162.5001"/>
</g>
<!-- ToolbarComponent -->
<g id="node5" class="node">
<title>ToolbarComponent</title>
<polygon fill="#ffffb3" stroke="#000000" points="158.6513,-122 33.3487,-122 33.3487,-86 158.6513,-86 158.6513,-122"/>
<text text-anchor="middle" x="96" y="-99.8" font-family="Times,serif" font-size="14.00" fill="#000000">ToolbarComponent</text>
</g>
<!-- ToolbarComponent&#45;&gt;SharedModule -->
<g id="edge5" class="edge">
<title>ToolbarComponent&#45;&gt;SharedModule</title>
<path fill="none" stroke="#000000" d="M113.4418,-122.2667C113.4418,-140.5552 113.4418,-166 113.4418,-166 113.4418,-166 308.6168,-166 308.6168,-166"/>
<polygon fill="#000000" stroke="#000000" points="308.6168,-169.5001 318.6168,-166 308.6168,-162.5001 308.6168,-169.5001"/>
</g>
<!-- EventCardComponent  -->
<g id="node7" class="node">
<title>EventCardComponent </title>
<polygon fill="#fb8072" stroke="#000000" points="720.2023,-252 575.7977,-252 575.7977,-216 720.2023,-216 720.2023,-252"/>
<text text-anchor="middle" x="648" y="-229.8" font-family="Times,serif" font-size="14.00" fill="#000000">EventCardComponent </text>
</g>
<!-- SharedModule&#45;&gt;EventCardComponent  -->
<g id="edge6" class="edge">
<title>SharedModule&#45;&gt;EventCardComponent </title>
<path fill="none" stroke="#000000" stroke-dasharray="5,2" d="M417.3099,-173C490.8307,-173 620.633,-173 620.633,-173 620.633,-173 620.633,-205.698 620.633,-205.698"/>
<polygon fill="#000000" stroke="#000000" points="617.1331,-205.698 620.633,-215.698 624.1331,-205.698 617.1331,-205.698"/>
</g>
<!-- MapComponent  -->
<g id="node8" class="node">
<title>MapComponent </title>
<polygon fill="#fb8072" stroke="#000000" points="557.4927,-252 446.5073,-252 446.5073,-216 557.4927,-216 557.4927,-252"/>
<text text-anchor="middle" x="502" y="-229.8" font-family="Times,serif" font-size="14.00" fill="#000000">MapComponent </text>
</g>
<!-- SharedModule&#45;&gt;MapComponent  -->
<g id="edge7" class="edge">
<title>SharedModule&#45;&gt;MapComponent </title>
<path fill="none" stroke="#000000" stroke-dasharray="5,2" d="M417.5258,-180C448.157,-180 481.6681,-180 481.6681,-180 481.6681,-180 481.6681,-205.7181 481.6681,-205.7181"/>
<polygon fill="#000000" stroke="#000000" points="478.1682,-205.718 481.6681,-215.7181 485.1682,-205.7181 478.1682,-205.718"/>
</g>
<!-- MediaComponent  -->
<g id="node9" class="node">
<title>MediaComponent </title>
<polygon fill="#fb8072" stroke="#000000" points="428.0975,-252 307.9025,-252 307.9025,-216 428.0975,-216 428.0975,-252"/>
<text text-anchor="middle" x="368" y="-229.8" font-family="Times,serif" font-size="14.00" fill="#000000">MediaComponent </text>
</g>
<!-- SharedModule&#45;&gt;MediaComponent  -->
<g id="edge8" class="edge">
<title>SharedModule&#45;&gt;MediaComponent </title>
<path fill="none" stroke="#000000" stroke-dasharray="5,2" d="M368,-187.1061C368,-187.1061 368,-205.991 368,-205.991"/>
<polygon fill="#000000" stroke="#000000" points="364.5001,-205.9909 368,-215.991 371.5001,-205.991 364.5001,-205.9909"/>
</g>
<!-- SliderComponent  -->
<g id="node10" class="node">
<title>SliderComponent </title>
<polygon fill="#fb8072" stroke="#000000" points="290.2717,-252 171.7283,-252 171.7283,-216 290.2717,-216 290.2717,-252"/>
<text text-anchor="middle" x="231" y="-229.8" font-family="Times,serif" font-size="14.00" fill="#000000">SliderComponent </text>
</g>
<!-- SharedModule&#45;&gt;SliderComponent  -->
<g id="edge9" class="edge">
<title>SharedModule&#45;&gt;SliderComponent </title>
<path fill="none" stroke="#000000" stroke-dasharray="5,2" d="M318.5721,-180C273.686,-180 214.4548,-180 214.4548,-180 214.4548,-180 214.4548,-205.7181 214.4548,-205.7181"/>
<polygon fill="#000000" stroke="#000000" points="210.9549,-205.718 214.4548,-215.7181 217.9549,-205.7181 210.9549,-205.718"/>
</g>
<!-- ToolbarComponent  -->
<g id="node11" class="node">
<title>ToolbarComponent </title>
<polygon fill="#fb8072" stroke="#000000" points="153.6509,-252 24.3491,-252 24.3491,-216 153.6509,-216 153.6509,-252"/>
<text text-anchor="middle" x="89" y="-229.8" font-family="Times,serif" font-size="14.00" fill="#000000">ToolbarComponent </text>
</g>
<!-- SharedModule&#45;&gt;ToolbarComponent  -->
<g id="edge10" class="edge">
<title>SharedModule&#45;&gt;ToolbarComponent </title>
<path fill="none" stroke="#000000" stroke-dasharray="5,2" d="M318.6752,-173C234.7837,-173 73.3082,-173 73.3082,-173 73.3082,-173 73.3082,-205.698 73.3082,-205.698"/>
<polygon fill="#000000" stroke="#000000" points="69.8083,-205.698 73.3082,-215.698 76.8083,-205.698 69.8083,-205.698"/>
</g>
</g>
</svg>
