<?xml version="1.0" encoding="UTF-8" standalone="no"?>
<!DOCTYPE svg PUBLIC "-//W3C//DTD SVG 1.1//EN"
 "http://www.w3.org/Graphics/SVG/1.1/DTD/svg11.dtd">
<!-- Generated by graphviz version 2.40.1 (20161225.0304)
 -->
<!-- Title: dependencies Pages: 1 -->
<svg width="1556pt" height="284pt"
 viewBox="0.00 0.00 1556.00 284.00" xmlns="http://www.w3.org/2000/svg" xmlns:xlink="http://www.w3.org/1999/xlink">
<g id="graph0" class="graph" transform="scale(1 1) rotate(0) translate(4 280)">
<title>dependencies</title>
<polygon fill="#ffffff" stroke="transparent" points="-4,4 -4,-280 1552,-280 1552,4 -4,4"/>
<text text-anchor="start" x="753.0091" y="-42.4" font-family="sans-serif" font-weight="bold" font-size="14.00" fill="#000000">Legend</text>
<polygon fill="#ffffb3" stroke="transparent" points="540,-10 540,-30 560,-30 560,-10 540,-10"/>
<text text-anchor="start" x="563.629" y="-15.4" font-family="sans-serif" font-size="14.00" fill="#000000"> &#160;Declarations</text>
<polygon fill="#8dd3c7" stroke="transparent" points="653,-10 653,-30 673,-30 673,-10 653,-10"/>
<text text-anchor="start" x="676.7251" y="-15.4" font-family="sans-serif" font-size="14.00" fill="#000000"> &#160;Module</text>
<polygon fill="#80b1d3" stroke="transparent" points="739,-10 739,-30 759,-30 759,-10 739,-10"/>
<text text-anchor="start" x="762.7812" y="-15.4" font-family="sans-serif" font-size="14.00" fill="#000000"> &#160;Bootstrap</text>
<polygon fill="#fdb462" stroke="transparent" points="836,-10 836,-30 856,-30 856,-10 836,-10"/>
<text text-anchor="start" x="859.6732" y="-15.4" font-family="sans-serif" font-size="14.00" fill="#000000"> &#160;Providers</text>
<polygon fill="#fb8072" stroke="transparent" points="932,-10 932,-30 952,-30 952,-10 932,-10"/>
<text text-anchor="start" x="955.7258" y="-15.4" font-family="sans-serif" font-size="14.00" fill="#000000"> &#160;Exports</text>
<g id="clust1" class="cluster">
<title>cluster_SharedModule</title>
<polygon fill="none" stroke="#000000" stroke-dasharray="1,5" points="8,-70 8,-268 1540,-268 1540,-70 8,-70"/>
</g>
<g id="clust2" class="cluster">
<title>cluster_SharedModule_declarations</title>
<polygon fill="none" stroke="#000000" points="839,-78 839,-130 1532,-130 1532,-78 839,-78"/>
</g>
<g id="clust8" class="cluster">
<title>cluster_SharedModule_imports</title>
<polygon fill="none" stroke="#000000" points="156,-78 156,-130 831,-130 831,-78 156,-78"/>
</g>
<g id="clust9" class="cluster">
<title>cluster_SharedModule_exports</title>
<polygon fill="none" stroke="#000000" points="409,-208 409,-260 1120,-260 1120,-208 409,-208"/>
</g>
<g id="clust11" class="cluster">
<title>cluster_SharedModule_providers</title>
<polygon fill="none" stroke="#000000" points="16,-78 16,-130 148,-130 148,-78 16,-78"/>
</g>
<!-- ToolbarComponent -->
<g id="node1" class="node">
<title>ToolbarComponent</title>
<polygon fill="#ffffb3" stroke="#000000" points="1523.6513,-122 1398.3487,-122 1398.3487,-86 1523.6513,-86 1523.6513,-122"/>
<text text-anchor="middle" x="1461" y="-99.8" font-family="Times,serif" font-size="14.00" fill="#000000">ToolbarComponent</text>
</g>
<!-- SharedModule -->
<g id="node6" class="node">
<title>SharedModule</title>
<polygon fill="#8dd3c7" stroke="#000000" points="816.4231,-187 813.4231,-191 792.4231,-191 789.4231,-187 717.5769,-187 717.5769,-151 816.4231,-151 816.4231,-187"/>
<text text-anchor="middle" x="767" y="-164.8" font-family="Times,serif" font-size="14.00" fill="#000000">SharedModule</text>
</g>
<!-- ToolbarComponent&#45;&gt;SharedModule -->
<g id="edge1" class="edge">
<title>ToolbarComponent&#45;&gt;SharedModule</title>
<path fill="none" stroke="#000000" d="M1461,-122.0267C1461,-142.7672 1461,-174 1461,-174 1461,-174 826.3544,-174 826.3544,-174"/>
<polygon fill="#000000" stroke="#000000" points="826.3544,-170.5001 816.3544,-174 826.3544,-177.5001 826.3544,-170.5001"/>
</g>
<!-- SliderComponent -->
<g id="node2" class="node">
<title>SliderComponent</title>
<polygon fill="#ffffb3" stroke="#000000" points="1380.2716,-122 1265.7284,-122 1265.7284,-86 1380.2716,-86 1380.2716,-122"/>
<text text-anchor="middle" x="1323" y="-99.8" font-family="Times,serif" font-size="14.00" fill="#000000">SliderComponent</text>
</g>
<!-- SliderComponent&#45;&gt;SharedModule -->
<g id="edge2" class="edge">
<title>SliderComponent&#45;&gt;SharedModule</title>
<path fill="none" stroke="#000000" d="M1323,-122.1061C1323,-141.3391 1323,-169 1323,-169 1323,-169 826.3413,-169 826.3413,-169"/>
<polygon fill="#000000" stroke="#000000" points="826.3413,-165.5001 816.3413,-169 826.3413,-172.5001 826.3413,-165.5001"/>
</g>
<!-- MediaComponent -->
<g id="node3" class="node">
<title>MediaComponent</title>
<polygon fill="#ffffb3" stroke="#000000" points="1247.5968,-122 1130.4032,-122 1130.4032,-86 1247.5968,-86 1247.5968,-122"/>
<text text-anchor="middle" x="1189" y="-99.8" font-family="Times,serif" font-size="14.00" fill="#000000">MediaComponent</text>
</g>
<!-- MediaComponent&#45;&gt;SharedModule -->
<g id="edge3" class="edge">
<title>MediaComponent&#45;&gt;SharedModule</title>
<path fill="none" stroke="#000000" d="M1189,-122.302C1189,-140.2699 1189,-165 1189,-165 1189,-165 826.2347,-165 826.2347,-165"/>
<polygon fill="#000000" stroke="#000000" points="826.2347,-161.5001 816.2347,-165 826.2346,-168.5001 826.2347,-161.5001"/>
</g>
<!-- EventCardComponent -->
<g id="node4" class="node">
<title>EventCardComponent</title>
<polygon fill="#ffffb3" stroke="#000000" points="1112.7021,-122 971.2979,-122 971.2979,-86 1112.7021,-86 1112.7021,-122"/>
<text text-anchor="middle" x="1042" y="-99.8" font-family="Times,serif" font-size="14.00" fill="#000000">EventCardComponent</text>
</g>
<!-- EventCardComponent&#45;&gt;SharedModule -->
<g id="edge4" class="edge">
<title>EventCardComponent&#45;&gt;SharedModule</title>
<path fill="none" stroke="#000000" d="M976.9118,-122.027C976.9118,-138.3976 976.9118,-160 976.9118,-160 976.9118,-160 826.215,-160 826.215,-160"/>
<polygon fill="#000000" stroke="#000000" points="826.215,-156.5001 816.215,-160 826.215,-163.5001 826.215,-156.5001"/>
</g>
<!-- MapComponent -->
<g id="node5" class="node">
<title>MapComponent</title>
<polygon fill="#ffffb3" stroke="#000000" points="953.4916,-122 846.5084,-122 846.5084,-86 953.4916,-86 953.4916,-122"/>
<text text-anchor="middle" x="900" y="-99.8" font-family="Times,serif" font-size="14.00" fill="#000000">MapComponent</text>
</g>
<!-- MapComponent&#45;&gt;SharedModule -->
<g id="edge5" class="edge">
<title>MapComponent&#45;&gt;SharedModule</title>
<path fill="none" stroke="#000000" d="M917.8319,-122.1871C917.8319,-137.1824 917.8319,-156 917.8319,-156 917.8319,-156 826.388,-156 826.388,-156"/>
<polygon fill="#000000" stroke="#000000" points="826.3881,-152.5001 816.388,-156 826.388,-159.5001 826.3881,-152.5001"/>
</g>
<!-- ToolbarComponent  -->
<g id="node12" class="node">
<title>ToolbarComponent </title>
<polygon fill="#fb8072" stroke="#000000" points="1111.6509,-252 982.3491,-252 982.3491,-216 1111.6509,-216 1111.6509,-252"/>
<text text-anchor="middle" x="1047" y="-229.8" font-family="Times,serif" font-size="14.00" fill="#000000">ToolbarComponent </text>
</g>
<!-- SharedModule&#45;&gt;ToolbarComponent  -->
<g id="edge11" class="edge">
<title>SharedModule&#45;&gt;ToolbarComponent </title>
<path fill="none" stroke="#000000" stroke-dasharray="5,2" d="M816.4138,-178C896.7963,-178 1047,-178 1047,-178 1047,-178 1047,-205.973 1047,-205.973"/>
<polygon fill="#000000" stroke="#000000" points="1043.5001,-205.973 1047,-215.973 1050.5001,-205.973 1043.5001,-205.973"/>
</g>
<!-- MediaComponent  -->
<g id="node13" class="node">
<title>MediaComponent </title>
<polygon fill="#fb8072" stroke="#000000" points="964.0975,-252 843.9025,-252 843.9025,-216 964.0975,-216 964.0975,-252"/>
<text text-anchor="middle" x="904" y="-229.8" font-family="Times,serif" font-size="14.00" fill="#000000">MediaComponent </text>
</g>
<!-- SharedModule&#45;&gt;MediaComponent  -->
<g id="edge12" class="edge">
<title>SharedModule&#45;&gt;MediaComponent </title>
<path fill="none" stroke="#000000" stroke-dasharray="5,2" d="M816.51,-183C847.7245,-183 882.1681,-183 882.1681,-183 882.1681,-183 882.1681,-205.8757 882.1681,-205.8757"/>
<polygon fill="#000000" stroke="#000000" points="878.6682,-205.8757 882.1681,-215.8757 885.6682,-205.8757 878.6682,-205.8757"/>
</g>
<!-- SliderComponent  -->
<g id="node14" class="node">
<title>SliderComponent </title>
<polygon fill="#fb8072" stroke="#000000" points="826.2717,-252 707.7283,-252 707.7283,-216 826.2717,-216 826.2717,-252"/>
<text text-anchor="middle" x="767" y="-229.8" font-family="Times,serif" font-size="14.00" fill="#000000">SliderComponent </text>
</g>
<!-- SharedModule&#45;&gt;SliderComponent  -->
<g id="edge13" class="edge">
<title>SharedModule&#45;&gt;SliderComponent </title>
<path fill="none" stroke="#000000" stroke-dasharray="5,2" d="M767,-187.1061C767,-187.1061 767,-205.991 767,-205.991"/>
<polygon fill="#000000" stroke="#000000" points="763.5001,-205.9909 767,-215.991 770.5001,-205.991 763.5001,-205.9909"/>
</g>
<!-- MapComponent  -->
<g id="node15" class="node">
<title>MapComponent </title>
<polygon fill="#fb8072" stroke="#000000" points="690.4927,-252 579.5073,-252 579.5073,-216 690.4927,-216 690.4927,-252"/>
<text text-anchor="middle" x="635" y="-229.8" font-family="Times,serif" font-size="14.00" fill="#000000">MapComponent </text>
</g>
<!-- SharedModule&#45;&gt;MapComponent  -->
<g id="edge14" class="edge">
<title>SharedModule&#45;&gt;MapComponent </title>
<path fill="none" stroke="#000000" stroke-dasharray="5,2" d="M717.5986,-183C679.5154,-183 633.3101,-183 633.3101,-183 633.3101,-183 633.3101,-205.8757 633.3101,-205.8757"/>
<polygon fill="#000000" stroke="#000000" points="629.8102,-205.8757 633.3101,-215.8757 636.8102,-205.8757 629.8102,-205.8757"/>
</g>
<!-- EventCardComponent  -->
<g id="node16" class="node">
<title>EventCardComponent </title>
<polygon fill="#fb8072" stroke="#000000" points="561.2023,-252 416.7977,-252 416.7977,-216 561.2023,-216 561.2023,-252"/>
<text text-anchor="middle" x="489" y="-229.8" font-family="Times,serif" font-size="14.00" fill="#000000">EventCardComponent </text>
</g>
<!-- SharedModule&#45;&gt;EventCardComponent  -->
<g id="edge15" class="edge">
<title>SharedModule&#45;&gt;EventCardComponent </title>
<path fill="none" stroke="#000000" stroke-dasharray="5,2" d="M717.4975,-178C646.774,-178 525.2624,-178 525.2624,-178 525.2624,-178 525.2624,-205.973 525.2624,-205.973"/>
<polygon fill="#000000" stroke="#000000" points="521.7625,-205.973 525.2624,-215.973 528.7625,-205.973 521.7625,-205.973"/>
</g>
<!-- CommonModule -->
<g id="node7" class="node">
<title>CommonModule</title>
<polygon fill="#8dd3c7" stroke="#000000" points="822.6681,-122 819.6681,-126 798.6681,-126 795.6681,-122 711.3319,-122 711.3319,-86 822.6681,-86 822.6681,-122"/>
<text text-anchor="middle" x="767" y="-99.8" font-family="Times,serif" font-size="14.00" fill="#000000">CommonModule</text>
</g>
<!-- CommonModule&#45;&gt;SharedModule -->
<g id="edge6" class="edge">
<title>CommonModule&#45;&gt;SharedModule</title>
<path fill="none" stroke="#000000" d="M767,-122.1061C767,-122.1061 767,-140.991 767,-140.991"/>
<polygon fill="#000000" stroke="#000000" points="763.5001,-140.9909 767,-150.991 770.5001,-140.991 763.5001,-140.9909"/>
</g>
<!-- IonicModule -->
<g id="node8" class="node">
<title>IonicModule</title>
<polygon fill="#8dd3c7" stroke="#000000" points="693.3162,-122 690.3162,-126 669.3162,-126 666.3162,-122 604.6838,-122 604.6838,-86 693.3162,-86 693.3162,-122"/>
<text text-anchor="middle" x="649" y="-99.8" font-family="Times,serif" font-size="14.00" fill="#000000">IonicModule</text>
</g>
<!-- IonicModule&#45;&gt;SharedModule -->
<g id="edge7" class="edge">
<title>IonicModule&#45;&gt;SharedModule</title>
<path fill="none" stroke="#000000" d="M661.7779,-122.1871C661.7779,-137.1824 661.7779,-156 661.7779,-156 661.7779,-156 707.7778,-156 707.7778,-156"/>
<polygon fill="#000000" stroke="#000000" points="707.7779,-159.5001 717.7778,-156 707.7778,-152.5001 707.7779,-159.5001"/>
</g>
<!-- RouterModule -->
<g id="node9" class="node">
<title>RouterModule</title>
<polygon fill="#8dd3c7" stroke="#000000" points="586.6528,-122 583.6528,-126 562.6528,-126 559.6528,-122 489.3472,-122 489.3472,-86 586.6528,-86 586.6528,-122"/>
<text text-anchor="middle" x="538" y="-99.8" font-family="Times,serif" font-size="14.00" fill="#000000">RouterModule</text>
</g>
<!-- RouterModule&#45;&gt;SharedModule -->
<g id="edge8" class="edge">
<title>RouterModule&#45;&gt;SharedModule</title>
<path fill="none" stroke="#000000" d="M583.2902,-122.027C583.2902,-138.3976 583.2902,-160 583.2902,-160 583.2902,-160 707.7691,-160 707.7691,-160"/>
<polygon fill="#000000" stroke="#000000" points="707.7692,-163.5001 717.7691,-160 707.7691,-156.5001 707.7692,-163.5001"/>
</g>
<!-- FormsModule -->
<g id="node10" class="node">
<title>FormsModule</title>
<polygon fill="#8dd3c7" stroke="#000000" points="471.8288,-122 468.8288,-126 447.8288,-126 444.8288,-122 376.1712,-122 376.1712,-86 471.8288,-86 471.8288,-122"/>
<text text-anchor="middle" x="424" y="-99.8" font-family="Times,serif" font-size="14.00" fill="#000000">FormsModule</text>
</g>
<!-- FormsModule&#45;&gt;SharedModule -->
<g id="edge9" class="edge">
<title>FormsModule&#45;&gt;SharedModule</title>
<path fill="none" stroke="#000000" d="M444.1566,-122.302C444.1566,-140.2699 444.1566,-165 444.1566,-165 444.1566,-165 707.6156,-165 707.6156,-165"/>
<polygon fill="#000000" stroke="#000000" points="707.6156,-168.5001 717.6156,-165 707.6156,-161.5001 707.6156,-168.5001"/>
</g>
<!-- AgmCoreModule.forRoot(args) -->
<g id="node11" class="node">
<title>AgmCoreModule.forRoot(args)</title>
<polygon fill="#8dd3c7" stroke="#000000" points="358.4487,-122 355.4487,-126 334.4487,-126 331.4487,-122 163.5513,-122 163.5513,-86 358.4487,-86 358.4487,-122"/>
<text text-anchor="middle" x="261" y="-99.8" font-family="Times,serif" font-size="14.00" fill="#000000">AgmCoreModule.forRoot(args)</text>
</g>
<!-- AgmCoreModule.forRoot(args)&#45;&gt;SharedModule -->
<g id="edge10" class="edge">
<title>AgmCoreModule.forRoot(args)&#45;&gt;SharedModule</title>
<path fill="none" stroke="#000000" d="M261,-122.1061C261,-141.3391 261,-169 261,-169 261,-169 707.5613,-169 707.5613,-169"/>
<polygon fill="#000000" stroke="#000000" points="707.5613,-172.5001 717.5613,-169 707.5613,-165.5001 707.5613,-172.5001"/>
</g>
<!-- Geolocation -->
<g id="node17" class="node">
<title>Geolocation</title>
<ellipse fill="#fdb462" stroke="#000000" cx="82" cy="-104" rx="58.4667" ry="18"/>
<text text-anchor="middle" x="82" y="-99.8" font-family="Times,serif" font-size="14.00" fill="#000000">Geolocation</text>
</g>
<!-- Geolocation&#45;&gt;SharedModule -->
<g id="edge16" class="edge">
<title>Geolocation&#45;&gt;SharedModule</title>
<path fill="none" stroke="#000000" d="M82,-122.0267C82,-142.7672 82,-174 82,-174 82,-174 707.7365,-174 707.7365,-174"/>
<polygon fill="#000000" stroke="#000000" points="707.7365,-177.5001 717.7365,-174 707.7365,-170.5001 707.7365,-177.5001"/>
</g>
</g>
</svg>
