<?xml version="1.0" encoding="UTF-8" standalone="no"?>
<!DOCTYPE svg PUBLIC "-//W3C//DTD SVG 1.1//EN"
 "http://www.w3.org/Graphics/SVG/1.1/DTD/svg11.dtd">
<!-- Generated by graphviz version 2.40.1 (20161225.0304)
 -->
<!-- Title: dependencies Pages: 1 -->
<svg width="1023pt" height="211pt"
 viewBox="0.00 0.00 1023.00 211.00" xmlns="http://www.w3.org/2000/svg" xmlns:xlink="http://www.w3.org/1999/xlink">
<g id="graph0" class="graph" transform="scale(1 1) rotate(0) translate(4 207)">
<title>dependencies</title>
<polygon fill="#ffffff" stroke="transparent" points="-4,4 -4,-207 1019,-207 1019,4 -4,4"/>
<text text-anchor="start" x="486.5091" y="-42.4" font-family="sans-serif" font-weight="bold" font-size="14.00" fill="#000000">Legend</text>
<polygon fill="#ffffb3" stroke="transparent" points="273.5,-10 273.5,-30 293.5,-30 293.5,-10 273.5,-10"/>
<text text-anchor="start" x="297.129" y="-15.4" font-family="sans-serif" font-size="14.00" fill="#000000"> &#160;Declarations</text>
<polygon fill="#8dd3c7" stroke="transparent" points="386.5,-10 386.5,-30 406.5,-30 406.5,-10 386.5,-10"/>
<text text-anchor="start" x="410.2251" y="-15.4" font-family="sans-serif" font-size="14.00" fill="#000000"> &#160;Module</text>
<polygon fill="#80b1d3" stroke="transparent" points="472.5,-10 472.5,-30 492.5,-30 492.5,-10 472.5,-10"/>
<text text-anchor="start" x="496.2812" y="-15.4" font-family="sans-serif" font-size="14.00" fill="#000000"> &#160;Bootstrap</text>
<polygon fill="#fdb462" stroke="transparent" points="569.5,-10 569.5,-30 589.5,-30 589.5,-10 569.5,-10"/>
<text text-anchor="start" x="593.1732" y="-15.4" font-family="sans-serif" font-size="14.00" fill="#000000"> &#160;Providers</text>
<polygon fill="#fb8072" stroke="transparent" points="665.5,-10 665.5,-30 685.5,-30 685.5,-10 665.5,-10"/>
<text text-anchor="start" x="689.2258" y="-15.4" font-family="sans-serif" font-size="14.00" fill="#000000"> &#160;Exports</text>
<g id="clust1" class="cluster">
<title>cluster_DataModule</title>
<polygon fill="none" stroke="#000000" stroke-dasharray="1,5" points="8,-70 8,-195 1007,-195 1007,-70 8,-70"/>
</g>
<g id="clust3" class="cluster">
<title>cluster_DataModule_imports</title>
<polygon fill="none" stroke="#000000" points="735,-78 735,-130 999,-130 999,-78 735,-78"/>
</g>
<g id="clust6" class="cluster">
<title>cluster_DataModule_providers</title>
<polygon fill="none" stroke="#000000" points="16,-78 16,-130 727,-130 727,-78 16,-78"/>
</g>
<!-- CommonModule -->
<g id="node1" class="node">
<title>CommonModule</title>
<polygon fill="#8dd3c7" stroke="#000000" points="990.6681,-122 987.6681,-126 966.6681,-126 963.6681,-122 879.3319,-122 879.3319,-86 990.6681,-86 990.6681,-122"/>
<text text-anchor="middle" x="935" y="-99.8" font-family="Times,serif" font-size="14.00" fill="#000000">CommonModule</text>
</g>
<!-- DataModule -->
<g id="node3" class="node">
<title>DataModule</title>
<polygon fill="#8dd3c7" stroke="#000000" points="549.9762,-187 546.9762,-191 525.9762,-191 522.9762,-187 464.0238,-187 464.0238,-151 549.9762,-151 549.9762,-187"/>
<text text-anchor="middle" x="507" y="-164.8" font-family="Times,serif" font-size="14.00" fill="#000000">DataModule</text>
</g>
<!-- CommonModule&#45;&gt;DataModule -->
<g id="edge1" class="edge">
<title>CommonModule&#45;&gt;DataModule</title>
<path fill="none" stroke="#000000" d="M935,-122.2921C935,-144.2057 935,-178 935,-178 935,-178 559.9979,-178 559.9979,-178"/>
<polygon fill="#000000" stroke="#000000" points="559.9979,-174.5001 549.9979,-178 559.9979,-181.5001 559.9979,-174.5001"/>
</g>
<!-- HttpClientModule -->
<g id="node2" class="node">
<title>HttpClientModule</title>
<polygon fill="#8dd3c7" stroke="#000000" points="861.1611,-122 858.1611,-126 837.1611,-126 834.1611,-122 742.8389,-122 742.8389,-86 861.1611,-86 861.1611,-122"/>
<text text-anchor="middle" x="802" y="-99.8" font-family="Times,serif" font-size="14.00" fill="#000000">HttpClientModule</text>
</g>
<!-- HttpClientModule&#45;&gt;DataModule -->
<g id="edge2" class="edge">
<title>HttpClientModule&#45;&gt;DataModule</title>
<path fill="none" stroke="#000000" d="M802,-122.1061C802,-141.3391 802,-169 802,-169 802,-169 560.2115,-169 560.2115,-169"/>
<polygon fill="#000000" stroke="#000000" points="560.2115,-165.5001 550.2115,-169 560.2114,-172.5001 560.2115,-165.5001"/>
</g>
<!-- EventService -->
<g id="node4" class="node">
<title>EventService</title>
<ellipse fill="#fdb462" stroke="#000000" cx="656" cy="-104" rx="62.5373" ry="18"/>
<text text-anchor="middle" x="656" y="-99.8" font-family="Times,serif" font-size="14.00" fill="#000000">EventService</text>
</g>
<!-- EventService&#45;&gt;DataModule -->
<g id="edge3" class="edge">
<title>EventService&#45;&gt;DataModule</title>
<path fill="none" stroke="#000000" d="M656,-122.027C656,-138.3976 656,-160 656,-160 656,-160 560.097,-160 560.097,-160"/>
<polygon fill="#000000" stroke="#000000" points="560.097,-156.5001 550.097,-160 560.0969,-163.5001 560.097,-156.5001"/>
</g>
<!-- UploadService -->
<g id="node5" class="node">
<title>UploadService</title>
<ellipse fill="#fdb462" stroke="#000000" cx="507" cy="-104" rx="68.3382" ry="18"/>
<text text-anchor="middle" x="507" y="-99.8" font-family="Times,serif" font-size="14.00" fill="#000000">UploadService</text>
</g>
<!-- UploadService&#45;&gt;DataModule -->
<g id="edge4" class="edge">
<title>UploadService&#45;&gt;DataModule</title>
<path fill="none" stroke="#000000" d="M507,-122.1061C507,-122.1061 507,-140.991 507,-140.991"/>
<polygon fill="#000000" stroke="#000000" points="503.5001,-140.9909 507,-150.991 510.5001,-140.991 503.5001,-140.9909"/>
</g>
<!-- SearchService -->
<g id="node6" class="node">
<title>SearchService</title>
<ellipse fill="#fdb462" stroke="#000000" cx="354" cy="-104" rx="66.0281" ry="18"/>
<text text-anchor="middle" x="354" y="-99.8" font-family="Times,serif" font-size="14.00" fill="#000000">SearchService</text>
</g>
<!-- SearchService&#45;&gt;DataModule -->
<g id="edge5" class="edge">
<title>SearchService&#45;&gt;DataModule</title>
<path fill="none" stroke="#000000" d="M354,-122.027C354,-138.3976 354,-160 354,-160 354,-160 453.9738,-160 453.9738,-160"/>
<polygon fill="#000000" stroke="#000000" points="453.9738,-163.5001 463.9738,-160 453.9738,-156.5001 453.9738,-163.5001"/>
</g>
<!-- TagService -->
<g id="node7" class="node">
<title>TagService</title>
<ellipse fill="#fdb462" stroke="#000000" cx="215" cy="-104" rx="55.013" ry="18"/>
<text text-anchor="middle" x="215" y="-99.8" font-family="Times,serif" font-size="14.00" fill="#000000">TagService</text>
</g>
<!-- TagService&#45;&gt;DataModule -->
<g id="edge6" class="edge">
<title>TagService&#45;&gt;DataModule</title>
<path fill="none" stroke="#000000" d="M215,-122.1061C215,-141.3391 215,-169 215,-169 215,-169 453.9144,-169 453.9144,-169"/>
<polygon fill="#000000" stroke="#000000" points="453.9144,-172.5001 463.9144,-169 453.9144,-165.5001 453.9144,-172.5001"/>
</g>
<!-- FeedService -->
<g id="node8" class="node">
<title>FeedService</title>
<ellipse fill="#fdb462" stroke="#000000" cx="83" cy="-104" rx="58.5251" ry="18"/>
<text text-anchor="middle" x="83" y="-99.8" font-family="Times,serif" font-size="14.00" fill="#000000">FeedService</text>
</g>
<!-- FeedService&#45;&gt;DataModule -->
<g id="edge7" class="edge">
<title>FeedService&#45;&gt;DataModule</title>
<path fill="none" stroke="#000000" d="M83,-122.2921C83,-144.2057 83,-178 83,-178 83,-178 454.0113,-178 454.0113,-178"/>
<polygon fill="#000000" stroke="#000000" points="454.0113,-181.5001 464.0113,-178 454.0112,-174.5001 454.0113,-181.5001"/>
</g>
</g>
</svg>
