<?xml version="1.0" encoding="UTF-8" standalone="no"?>
<!DOCTYPE svg PUBLIC "-//W3C//DTD SVG 1.1//EN"
 "http://www.w3.org/Graphics/SVG/1.1/DTD/svg11.dtd">
<!-- Generated by graphviz version 2.40.1 (20161225.0304)
 -->
<!-- Title: dependencies Pages: 1 -->
<svg width="749pt" height="211pt"
 viewBox="0.00 0.00 749.00 211.00" xmlns="http://www.w3.org/2000/svg" xmlns:xlink="http://www.w3.org/1999/xlink">
<g id="graph0" class="graph" transform="scale(1 1) rotate(0) translate(4 207)">
<title>dependencies</title>
<polygon fill="#ffffff" stroke="transparent" points="-4,4 -4,-207 745,-207 745,4 -4,4"/>
<text text-anchor="start" x="349.5091" y="-42.4" font-family="sans-serif" font-weight="bold" font-size="14.00" fill="#000000">Legend</text>
<polygon fill="#ffffb3" stroke="transparent" points="136.5,-10 136.5,-30 156.5,-30 156.5,-10 136.5,-10"/>
<text text-anchor="start" x="160.129" y="-15.4" font-family="sans-serif" font-size="14.00" fill="#000000"> &#160;Declarations</text>
<polygon fill="#8dd3c7" stroke="transparent" points="249.5,-10 249.5,-30 269.5,-30 269.5,-10 249.5,-10"/>
<text text-anchor="start" x="273.2251" y="-15.4" font-family="sans-serif" font-size="14.00" fill="#000000"> &#160;Module</text>
<polygon fill="#80b1d3" stroke="transparent" points="335.5,-10 335.5,-30 355.5,-30 355.5,-10 335.5,-10"/>
<text text-anchor="start" x="359.2812" y="-15.4" font-family="sans-serif" font-size="14.00" fill="#000000"> &#160;Bootstrap</text>
<polygon fill="#fdb462" stroke="transparent" points="432.5,-10 432.5,-30 452.5,-30 452.5,-10 432.5,-10"/>
<text text-anchor="start" x="456.1732" y="-15.4" font-family="sans-serif" font-size="14.00" fill="#000000"> &#160;Providers</text>
<polygon fill="#fb8072" stroke="transparent" points="528.5,-10 528.5,-30 548.5,-30 548.5,-10 528.5,-10"/>
<text text-anchor="start" x="552.2258" y="-15.4" font-family="sans-serif" font-size="14.00" fill="#000000"> &#160;Exports</text>
<g id="clust1" class="cluster">
<title>cluster_DataModule</title>
<polygon fill="none" stroke="#000000" stroke-dasharray="1,5" points="8,-70 8,-195 733,-195 733,-70 8,-70"/>
</g>
<g id="clust6" class="cluster">
<title>cluster_DataModule_providers</title>
<polygon fill="none" stroke="#000000" points="16,-78 16,-130 725,-130 725,-78 16,-78"/>
</g>
<!-- EventService -->
<g id="node1" class="node">
<title>EventService</title>
<ellipse fill="#fdb462" stroke="#000000" cx="654" cy="-104" rx="62.5373" ry="18"/>
<text text-anchor="middle" x="654" y="-99.8" font-family="Times,serif" font-size="14.00" fill="#000000">EventService</text>
</g>
<!-- DataModule -->
<g id="node6" class="node">
<title>DataModule</title>
<polygon fill="#8dd3c7" stroke="#000000" points="414.9762,-187 411.9762,-191 390.9762,-191 387.9762,-187 329.0238,-187 329.0238,-151 414.9762,-151 414.9762,-187"/>
<text text-anchor="middle" x="372" y="-164.8" font-family="Times,serif" font-size="14.00" fill="#000000">DataModule</text>
</g>
<!-- EventService&#45;&gt;DataModule -->
<g id="edge1" class="edge">
<title>EventService&#45;&gt;DataModule</title>
<path fill="none" stroke="#000000" d="M654,-122.2843C654,-143.3211 654,-175 654,-175 654,-175 425.1367,-175 425.1367,-175"/>
<polygon fill="#000000" stroke="#000000" points="425.1367,-171.5001 415.1367,-175 425.1367,-178.5001 425.1367,-171.5001"/>
</g>
<!-- FeedService -->
<g id="node2" class="node">
<title>FeedService</title>
<ellipse fill="#fdb462" stroke="#000000" cx="515" cy="-104" rx="58.5251" ry="18"/>
<text text-anchor="middle" x="515" y="-99.8" font-family="Times,serif" font-size="14.00" fill="#000000">FeedService</text>
</g>
<!-- FeedService&#45;&gt;DataModule -->
<g id="edge2" class="edge">
<title>FeedService&#45;&gt;DataModule</title>
<path fill="none" stroke="#000000" d="M515,-122.0225C515,-139.3734 515,-163 515,-163 515,-163 425.2928,-163 425.2928,-163"/>
<polygon fill="#000000" stroke="#000000" points="425.2928,-159.5001 415.2928,-163 425.2927,-166.5001 425.2928,-159.5001"/>
</g>
<!-- SearchService -->
<g id="node3" class="node">
<title>SearchService</title>
<ellipse fill="#fdb462" stroke="#000000" cx="372" cy="-104" rx="66.0281" ry="18"/>
<text text-anchor="middle" x="372" y="-99.8" font-family="Times,serif" font-size="14.00" fill="#000000">SearchService</text>
</g>
<!-- SearchService&#45;&gt;DataModule -->
<g id="edge3" class="edge">
<title>SearchService&#45;&gt;DataModule</title>
<path fill="none" stroke="#000000" d="M372,-122.1061C372,-122.1061 372,-140.991 372,-140.991"/>
<polygon fill="#000000" stroke="#000000" points="368.5001,-140.9909 372,-150.991 375.5001,-140.991 368.5001,-140.9909"/>
</g>
<!-- TagService -->
<g id="node4" class="node">
<title>TagService</title>
<ellipse fill="#fdb462" stroke="#000000" cx="233" cy="-104" rx="55.013" ry="18"/>
<text text-anchor="middle" x="233" y="-99.8" font-family="Times,serif" font-size="14.00" fill="#000000">TagService</text>
</g>
<!-- TagService&#45;&gt;DataModule -->
<g id="edge4" class="edge">
<title>TagService&#45;&gt;DataModule</title>
<path fill="none" stroke="#000000" d="M233,-122.0225C233,-139.3734 233,-163 233,-163 233,-163 318.7815,-163 318.7815,-163"/>
<polygon fill="#000000" stroke="#000000" points="318.7815,-166.5001 328.7815,-163 318.7814,-159.5001 318.7815,-166.5001"/>
</g>
<!-- UploadService -->
<g id="node5" class="node">
<title>UploadService</title>
<ellipse fill="#fdb462" stroke="#000000" cx="92" cy="-104" rx="68.3382" ry="18"/>
<text text-anchor="middle" x="92" y="-99.8" font-family="Times,serif" font-size="14.00" fill="#000000">UploadService</text>
</g>
<!-- UploadService&#45;&gt;DataModule -->
<g id="edge5" class="edge">
<title>UploadService&#45;&gt;DataModule</title>
<path fill="none" stroke="#000000" d="M92,-122.2843C92,-143.3211 92,-175 92,-175 92,-175 318.8636,-175 318.8636,-175"/>
<polygon fill="#000000" stroke="#000000" points="318.8637,-178.5001 328.8636,-175 318.8636,-171.5001 318.8637,-178.5001"/>
</g>
</g>
</svg>
