<?xml version="1.0" encoding="UTF-8" standalone="no"?>
<!DOCTYPE svg PUBLIC "-//W3C//DTD SVG 1.1//EN"
 "http://www.w3.org/Graphics/SVG/1.1/DTD/svg11.dtd">
<!-- Generated by graphviz version 2.40.1 (20161225.0304)
 -->
<!-- Title: dependencies Pages: 1 -->
<svg width="1975pt" height="211pt"
 viewBox="0.00 0.00 1975.00 211.00" xmlns="http://www.w3.org/2000/svg" xmlns:xlink="http://www.w3.org/1999/xlink">
<g id="graph0" class="graph" transform="scale(1 1) rotate(0) translate(4 207)">
<title>dependencies</title>
<polygon fill="#ffffff" stroke="transparent" points="-4,4 -4,-207 1971,-207 1971,4 -4,4"/>
<text text-anchor="start" x="962.5091" y="-42.4" font-family="sans-serif" font-weight="bold" font-size="14.00" fill="#000000">Legend</text>
<polygon fill="#ffffb3" stroke="transparent" points="749.5,-10 749.5,-30 769.5,-30 769.5,-10 749.5,-10"/>
<text text-anchor="start" x="773.129" y="-15.4" font-family="sans-serif" font-size="14.00" fill="#000000"> &#160;Declarations</text>
<polygon fill="#8dd3c7" stroke="transparent" points="862.5,-10 862.5,-30 882.5,-30 882.5,-10 862.5,-10"/>
<text text-anchor="start" x="886.2251" y="-15.4" font-family="sans-serif" font-size="14.00" fill="#000000"> &#160;Module</text>
<polygon fill="#80b1d3" stroke="transparent" points="948.5,-10 948.5,-30 968.5,-30 968.5,-10 948.5,-10"/>
<text text-anchor="start" x="972.2812" y="-15.4" font-family="sans-serif" font-size="14.00" fill="#000000"> &#160;Bootstrap</text>
<polygon fill="#fdb462" stroke="transparent" points="1045.5,-10 1045.5,-30 1065.5,-30 1065.5,-10 1045.5,-10"/>
<text text-anchor="start" x="1069.1732" y="-15.4" font-family="sans-serif" font-size="14.00" fill="#000000"> &#160;Providers</text>
<polygon fill="#fb8072" stroke="transparent" points="1141.5,-10 1141.5,-30 1161.5,-30 1161.5,-10 1141.5,-10"/>
<text text-anchor="start" x="1165.2258" y="-15.4" font-family="sans-serif" font-size="14.00" fill="#000000"> &#160;Exports</text>
<g id="clust1" class="cluster">
<title>cluster_EventsModule</title>
<polygon fill="none" stroke="#000000" stroke-dasharray="1,5" points="8,-70 8,-195 1959,-195 1959,-70 8,-70"/>
</g>
<g id="clust2" class="cluster">
<title>cluster_EventsModule_declarations</title>
<polygon fill="none" stroke="#000000" points="434,-78 434,-130 1951,-130 1951,-78 434,-78"/>
</g>
<g id="clust14" class="cluster">
<title>cluster_EventsModule_imports</title>
<polygon fill="none" stroke="#000000" points="16,-78 16,-130 426,-130 426,-78 16,-78"/>
</g>
<!-- CommentBoxComponent -->
<g id="node1" class="node">
<title>CommentBoxComponent</title>
<polygon fill="#ffffb3" stroke="#000000" points="1942.892,-122 1783.108,-122 1783.108,-86 1942.892,-86 1942.892,-122"/>
<text text-anchor="middle" x="1863" y="-99.8" font-family="Times,serif" font-size="14.00" fill="#000000">CommentBoxComponent</text>
</g>
<!-- EventsModule -->
<g id="node12" class="node">
<title>EventsModule</title>
<polygon fill="#8dd3c7" stroke="#000000" points="1036.6528,-187 1033.6528,-191 1012.6528,-191 1009.6528,-187 939.3472,-187 939.3472,-151 1036.6528,-151 1036.6528,-187"/>
<text text-anchor="middle" x="988" y="-164.8" font-family="Times,serif" font-size="14.00" fill="#000000">EventsModule</text>
</g>
<!-- CommentBoxComponent&#45;&gt;EventsModule -->
<g id="edge1" class="edge">
<title>CommentBoxComponent&#45;&gt;EventsModule</title>
<path fill="none" stroke="#000000" d="M1863,-122.0908C1863,-145.1328 1863,-182 1863,-182 1863,-182 1046.9187,-182 1046.9187,-182"/>
<polygon fill="#000000" stroke="#000000" points="1046.9188,-178.5001 1036.9187,-182 1046.9187,-185.5001 1046.9188,-178.5001"/>
</g>
<!-- DateSelectorComponent -->
<g id="node2" class="node">
<title>DateSelectorComponent</title>
<polygon fill="#ffffb3" stroke="#000000" points="1764.6275,-122 1611.3725,-122 1611.3725,-86 1764.6275,-86 1764.6275,-122"/>
<text text-anchor="middle" x="1688" y="-99.8" font-family="Times,serif" font-size="14.00" fill="#000000">DateSelectorComponent</text>
</g>
<!-- DateSelectorComponent&#45;&gt;EventsModule -->
<g id="edge2" class="edge">
<title>DateSelectorComponent&#45;&gt;EventsModule</title>
<path fill="none" stroke="#000000" d="M1688,-122.0449C1688,-143.6623 1688,-177 1688,-177 1688,-177 1046.6669,-177 1046.6669,-177"/>
<polygon fill="#000000" stroke="#000000" points="1046.6669,-173.5001 1036.6669,-177 1046.6668,-180.5001 1046.6669,-173.5001"/>
</g>
<!-- EventCreatePage -->
<g id="node3" class="node">
<title>EventCreatePage</title>
<polygon fill="#ffffb3" stroke="#000000" points="1593.4019,-122 1480.5981,-122 1480.5981,-86 1593.4019,-86 1593.4019,-122"/>
<text text-anchor="middle" x="1537" y="-99.8" font-family="Times,serif" font-size="14.00" fill="#000000">EventCreatePage</text>
</g>
<!-- EventCreatePage&#45;&gt;EventsModule -->
<g id="edge3" class="edge">
<title>EventCreatePage&#45;&gt;EventsModule</title>
<path fill="none" stroke="#000000" d="M1537,-122.2228C1537,-142.3652 1537,-172 1537,-172 1537,-172 1046.7201,-172 1046.7201,-172"/>
<polygon fill="#000000" stroke="#000000" points="1046.7201,-168.5001 1036.7201,-172 1046.7201,-175.5001 1046.7201,-168.5001"/>
</g>
<!-- EventEditPage -->
<g id="node4" class="node">
<title>EventEditPage</title>
<polygon fill="#ffffb3" stroke="#000000" points="1462.7036,-122 1363.2964,-122 1363.2964,-86 1462.7036,-86 1462.7036,-122"/>
<text text-anchor="middle" x="1413" y="-99.8" font-family="Times,serif" font-size="14.00" fill="#000000">EventEditPage</text>
</g>
<!-- EventEditPage&#45;&gt;EventsModule -->
<g id="edge4" class="edge">
<title>EventEditPage&#45;&gt;EventsModule</title>
<path fill="none" stroke="#000000" d="M1413,-122.2222C1413,-140.8285 1413,-167 1413,-167 1413,-167 1046.7529,-167 1046.7529,-167"/>
<polygon fill="#000000" stroke="#000000" points="1046.7529,-163.5001 1036.7529,-167 1046.7529,-170.5001 1046.7529,-163.5001"/>
</g>
<!-- EventFormComponent -->
<g id="node5" class="node">
<title>EventFormComponent</title>
<polygon fill="#ffffb3" stroke="#000000" points="1345.3244,-122 1200.6756,-122 1200.6756,-86 1345.3244,-86 1345.3244,-122"/>
<text text-anchor="middle" x="1273" y="-99.8" font-family="Times,serif" font-size="14.00" fill="#000000">EventFormComponent</text>
</g>
<!-- EventFormComponent&#45;&gt;EventsModule -->
<g id="edge5" class="edge">
<title>EventFormComponent&#45;&gt;EventsModule</title>
<path fill="none" stroke="#000000" d="M1273,-122.0336C1273,-139.0597 1273,-162 1273,-162 1273,-162 1046.6694,-162 1046.6694,-162"/>
<polygon fill="#000000" stroke="#000000" points="1046.6695,-158.5001 1036.6694,-162 1046.6694,-165.5001 1046.6695,-158.5001"/>
</g>
<!-- EventPage -->
<g id="node6" class="node">
<title>EventPage</title>
<polygon fill="#ffffb3" stroke="#000000" points="1182.8697,-122 1107.1303,-122 1107.1303,-86 1182.8697,-86 1182.8697,-122"/>
<text text-anchor="middle" x="1145" y="-99.8" font-family="Times,serif" font-size="14.00" fill="#000000">EventPage</text>
</g>
<!-- EventPage&#45;&gt;EventsModule -->
<g id="edge6" class="edge">
<title>EventPage&#45;&gt;EventsModule</title>
<path fill="none" stroke="#000000" d="M1145,-122.2396C1145,-137.5706 1145,-157 1145,-157 1145,-157 1046.8152,-157 1046.8152,-157"/>
<polygon fill="#000000" stroke="#000000" points="1046.8152,-153.5001 1036.8152,-157 1046.8151,-160.5001 1046.8152,-153.5001"/>
</g>
<!-- FeedPage -->
<g id="node7" class="node">
<title>FeedPage</title>
<polygon fill="#ffffb3" stroke="#000000" points="1089.4249,-122 1018.5751,-122 1018.5751,-86 1089.4249,-86 1089.4249,-122"/>
<text text-anchor="middle" x="1054" y="-99.8" font-family="Times,serif" font-size="14.00" fill="#000000">FeedPage</text>
</g>
<!-- FeedPage&#45;&gt;EventsModule -->
<g id="edge7" class="edge">
<title>FeedPage&#45;&gt;EventsModule</title>
<path fill="none" stroke="#000000" d="M1027.8072,-122.1061C1027.8072,-122.1061 1027.8072,-140.991 1027.8072,-140.991"/>
<polygon fill="#000000" stroke="#000000" points="1024.3072,-140.9909 1027.8072,-150.991 1031.3072,-140.991 1024.3072,-140.9909"/>
</g>
<!-- PriceSelectorComponent -->
<g id="node8" class="node">
<title>PriceSelectorComponent</title>
<polygon fill="#ffffb3" stroke="#000000" points="1000.9636,-122 845.0364,-122 845.0364,-86 1000.9636,-86 1000.9636,-122"/>
<text text-anchor="middle" x="923" y="-99.8" font-family="Times,serif" font-size="14.00" fill="#000000">PriceSelectorComponent</text>
</g>
<!-- PriceSelectorComponent&#45;&gt;EventsModule -->
<g id="edge8" class="edge">
<title>PriceSelectorComponent&#45;&gt;EventsModule</title>
<path fill="none" stroke="#000000" d="M970.0779,-122.1061C970.0779,-122.1061 970.0779,-140.991 970.0779,-140.991"/>
<polygon fill="#000000" stroke="#000000" points="966.5779,-140.9909 970.0779,-150.991 973.5779,-140.991 966.5779,-140.9909"/>
</g>
<!-- SearchComponent -->
<g id="node9" class="node">
<title>SearchComponent</title>
<polygon fill="#ffffb3" stroke="#000000" points="826.9201,-122 707.0799,-122 707.0799,-86 826.9201,-86 826.9201,-122"/>
<text text-anchor="middle" x="767" y="-99.8" font-family="Times,serif" font-size="14.00" fill="#000000">SearchComponent</text>
</g>
<!-- SearchComponent&#45;&gt;EventsModule -->
<g id="edge9" class="edge">
<title>SearchComponent&#45;&gt;EventsModule</title>
<path fill="none" stroke="#000000" d="M767,-122.2396C767,-137.5706 767,-157 767,-157 767,-157 929.227,-157 929.227,-157"/>
<polygon fill="#000000" stroke="#000000" points="929.2271,-160.5001 939.227,-157 929.227,-153.5001 929.2271,-160.5001"/>
</g>
<!-- SearchPage -->
<g id="node10" class="node">
<title>SearchPage</title>
<polygon fill="#ffffb3" stroke="#000000" points="689.7994,-122 608.2006,-122 608.2006,-86 689.7994,-86 689.7994,-122"/>
<text text-anchor="middle" x="649" y="-99.8" font-family="Times,serif" font-size="14.00" fill="#000000">SearchPage</text>
</g>
<!-- SearchPage&#45;&gt;EventsModule -->
<g id="edge10" class="edge">
<title>SearchPage&#45;&gt;EventsModule</title>
<path fill="none" stroke="#000000" d="M649,-122.0336C649,-139.0597 649,-162 649,-162 649,-162 929.0685,-162 929.0685,-162"/>
<polygon fill="#000000" stroke="#000000" points="929.0686,-165.5001 939.0685,-162 929.0685,-158.5001 929.0686,-165.5001"/>
</g>
<!-- TagSelectorComponent -->
<g id="node11" class="node">
<title>TagSelectorComponent</title>
<polygon fill="#ffffb3" stroke="#000000" points="590.4678,-122 441.5322,-122 441.5322,-86 590.4678,-86 590.4678,-122"/>
<text text-anchor="middle" x="516" y="-99.8" font-family="Times,serif" font-size="14.00" fill="#000000">TagSelectorComponent</text>
</g>
<!-- TagSelectorComponent&#45;&gt;EventsModule -->
<g id="edge11" class="edge">
<title>TagSelectorComponent&#45;&gt;EventsModule</title>
<path fill="none" stroke="#000000" d="M516,-122.2222C516,-140.8285 516,-167 516,-167 516,-167 929.2655,-167 929.2655,-167"/>
<polygon fill="#000000" stroke="#000000" points="929.2655,-170.5001 939.2655,-167 929.2654,-163.5001 929.2655,-170.5001"/>
</g>
<!-- AnnotationModule -->
<g id="node13" class="node">
<title>AnnotationModule</title>
<polygon fill="#8dd3c7" stroke="#000000" points="418.0436,-122 415.0436,-126 394.0436,-126 391.0436,-122 295.9564,-122 295.9564,-86 418.0436,-86 418.0436,-122"/>
<text text-anchor="middle" x="357" y="-99.8" font-family="Times,serif" font-size="14.00" fill="#000000">AnnotationModule</text>
</g>
<!-- AnnotationModule&#45;&gt;EventsModule -->
<g id="edge12" class="edge">
<title>AnnotationModule&#45;&gt;EventsModule</title>
<path fill="none" stroke="#000000" d="M357,-122.2228C357,-142.3652 357,-172 357,-172 357,-172 929.2732,-172 929.2732,-172"/>
<polygon fill="#000000" stroke="#000000" points="929.2732,-175.5001 939.2732,-172 929.2732,-168.5001 929.2732,-175.5001"/>
</g>
<!-- EventRoutingModule -->
<g id="node14" class="node">
<title>EventRoutingModule</title>
<polygon fill="#8dd3c7" stroke="#000000" points="277.8258,-122 274.8258,-126 253.8258,-126 250.8258,-122 140.1742,-122 140.1742,-86 277.8258,-86 277.8258,-122"/>
<text text-anchor="middle" x="209" y="-99.8" font-family="Times,serif" font-size="14.00" fill="#000000">EventRoutingModule</text>
</g>
<!-- EventRoutingModule&#45;&gt;EventsModule -->
<g id="edge13" class="edge">
<title>EventRoutingModule&#45;&gt;EventsModule</title>
<path fill="none" stroke="#000000" d="M209,-122.0449C209,-143.6623 209,-177 209,-177 209,-177 929.2701,-177 929.2701,-177"/>
<polygon fill="#000000" stroke="#000000" points="929.2701,-180.5001 939.2701,-177 929.27,-173.5001 929.2701,-180.5001"/>
</g>
<!-- SharedModule -->
<g id="node15" class="node">
<title>SharedModule</title>
<polygon fill="#8dd3c7" stroke="#000000" points="122.4231,-122 119.4231,-126 98.4231,-126 95.4231,-122 23.5769,-122 23.5769,-86 122.4231,-86 122.4231,-122"/>
<text text-anchor="middle" x="73" y="-99.8" font-family="Times,serif" font-size="14.00" fill="#000000">SharedModule</text>
</g>
<!-- SharedModule&#45;&gt;EventsModule -->
<g id="edge14" class="edge">
<title>SharedModule&#45;&gt;EventsModule</title>
<path fill="none" stroke="#000000" d="M73,-122.0908C73,-145.1328 73,-182 73,-182 73,-182 929.1291,-182 929.1291,-182"/>
<polygon fill="#000000" stroke="#000000" points="929.1291,-185.5001 939.1291,-182 929.1291,-178.5001 929.1291,-185.5001"/>
</g>
</g>
</svg>
