<?xml version="1.0" encoding="UTF-8" standalone="no"?>
<!DOCTYPE svg PUBLIC "-//W3C//DTD SVG 1.1//EN"
 "http://www.w3.org/Graphics/SVG/1.1/DTD/svg11.dtd">
<!-- Generated by graphviz version 2.40.1 (20161225.0304)
 -->
<!-- Title: dependencies Pages: 1 -->
<svg width="2486pt" height="211pt"
 viewBox="0.00 0.00 2486.00 211.00" xmlns="http://www.w3.org/2000/svg" xmlns:xlink="http://www.w3.org/1999/xlink">
<g id="graph0" class="graph" transform="scale(1 1) rotate(0) translate(4 207)">
<title>dependencies</title>
<polygon fill="#ffffff" stroke="transparent" points="-4,4 -4,-207 2482,-207 2482,4 -4,4"/>
<text text-anchor="start" x="1218.0091" y="-42.4" font-family="sans-serif" font-weight="bold" font-size="14.00" fill="#000000">Legend</text>
<polygon fill="#ffffb3" stroke="transparent" points="1005,-10 1005,-30 1025,-30 1025,-10 1005,-10"/>
<text text-anchor="start" x="1028.629" y="-15.4" font-family="sans-serif" font-size="14.00" fill="#000000"> &#160;Declarations</text>
<polygon fill="#8dd3c7" stroke="transparent" points="1118,-10 1118,-30 1138,-30 1138,-10 1118,-10"/>
<text text-anchor="start" x="1141.7251" y="-15.4" font-family="sans-serif" font-size="14.00" fill="#000000"> &#160;Module</text>
<polygon fill="#80b1d3" stroke="transparent" points="1204,-10 1204,-30 1224,-30 1224,-10 1204,-10"/>
<text text-anchor="start" x="1227.7812" y="-15.4" font-family="sans-serif" font-size="14.00" fill="#000000"> &#160;Bootstrap</text>
<polygon fill="#fdb462" stroke="transparent" points="1301,-10 1301,-30 1321,-30 1321,-10 1301,-10"/>
<text text-anchor="start" x="1324.6732" y="-15.4" font-family="sans-serif" font-size="14.00" fill="#000000"> &#160;Providers</text>
<polygon fill="#fb8072" stroke="transparent" points="1397,-10 1397,-30 1417,-30 1417,-10 1397,-10"/>
<text text-anchor="start" x="1420.7258" y="-15.4" font-family="sans-serif" font-size="14.00" fill="#000000"> &#160;Exports</text>
<g id="clust1" class="cluster">
<title>cluster_EventsModule</title>
<polygon fill="none" stroke="#000000" stroke-dasharray="1,5" points="8,-70 8,-195 2470,-195 2470,-70 8,-70"/>
</g>
<g id="clust2" class="cluster">
<title>cluster_EventsModule_declarations</title>
<polygon fill="none" stroke="#000000" points="945,-78 945,-130 2462,-130 2462,-78 945,-78"/>
</g>
<g id="clust14" class="cluster">
<title>cluster_EventsModule_imports</title>
<polygon fill="none" stroke="#000000" points="16,-78 16,-130 937,-130 937,-78 16,-78"/>
</g>
<!-- FeedPage -->
<g id="node1" class="node">
<title>FeedPage</title>
<polygon fill="#ffffb3" stroke="#000000" points="2454.4249,-122 2383.5751,-122 2383.5751,-86 2454.4249,-86 2454.4249,-122"/>
<text text-anchor="middle" x="2419" y="-99.8" font-family="Times,serif" font-size="14.00" fill="#000000">FeedPage</text>
</g>
<!-- EventsModule -->
<g id="node12" class="node">
<title>EventsModule</title>
<polygon fill="#8dd3c7" stroke="#000000" points="1336.6528,-187 1333.6528,-191 1312.6528,-191 1309.6528,-187 1239.3472,-187 1239.3472,-151 1336.6528,-151 1336.6528,-187"/>
<text text-anchor="middle" x="1288" y="-164.8" font-family="Times,serif" font-size="14.00" fill="#000000">EventsModule</text>
</g>
<!-- FeedPage&#45;&gt;EventsModule -->
<g id="edge1" class="edge">
<title>FeedPage&#45;&gt;EventsModule</title>
<path fill="none" stroke="#000000" d="M2419,-122.3228C2419,-145.6602 2419,-183 2419,-183 2419,-183 1346.9607,-183 1346.9607,-183"/>
<polygon fill="#000000" stroke="#000000" points="1346.9607,-179.5001 1336.9607,-183 1346.9606,-186.5001 1346.9607,-179.5001"/>
</g>
<!-- EventPage -->
<g id="node2" class="node">
<title>EventPage</title>
<polygon fill="#ffffb3" stroke="#000000" points="2365.8697,-122 2290.1303,-122 2290.1303,-86 2365.8697,-86 2365.8697,-122"/>
<text text-anchor="middle" x="2328" y="-99.8" font-family="Times,serif" font-size="14.00" fill="#000000">EventPage</text>
</g>
<!-- EventPage&#45;&gt;EventsModule -->
<g id="edge2" class="edge">
<title>EventPage&#45;&gt;EventsModule</title>
<path fill="none" stroke="#000000" d="M2328,-122.1554C2328,-144.3519 2328,-179 2328,-179 2328,-179 1346.7664,-179 1346.7664,-179"/>
<polygon fill="#000000" stroke="#000000" points="1346.7665,-175.5001 1336.7664,-179 1346.7664,-182.5001 1346.7665,-175.5001"/>
</g>
<!-- EventCreatePage -->
<g id="node3" class="node">
<title>EventCreatePage</title>
<polygon fill="#ffffb3" stroke="#000000" points="2272.4019,-122 2159.5981,-122 2159.5981,-86 2272.4019,-86 2272.4019,-122"/>
<text text-anchor="middle" x="2216" y="-99.8" font-family="Times,serif" font-size="14.00" fill="#000000">EventCreatePage</text>
</g>
<!-- EventCreatePage&#45;&gt;EventsModule -->
<g id="edge3" class="edge">
<title>EventCreatePage&#45;&gt;EventsModule</title>
<path fill="none" stroke="#000000" d="M2216,-122.2843C2216,-143.3211 2216,-175 2216,-175 2216,-175 1346.9119,-175 1346.9119,-175"/>
<polygon fill="#000000" stroke="#000000" points="1346.912,-171.5001 1336.9119,-175 1346.9119,-178.5001 1346.912,-171.5001"/>
</g>
<!-- SearchPage -->
<g id="node4" class="node">
<title>SearchPage</title>
<polygon fill="#ffffb3" stroke="#000000" points="2141.7994,-122 2060.2006,-122 2060.2006,-86 2141.7994,-86 2141.7994,-122"/>
<text text-anchor="middle" x="2101" y="-99.8" font-family="Times,serif" font-size="14.00" fill="#000000">SearchPage</text>
</g>
<!-- SearchPage&#45;&gt;EventsModule -->
<g id="edge4" class="edge">
<title>SearchPage&#45;&gt;EventsModule</title>
<path fill="none" stroke="#000000" d="M2101,-122.308C2101,-142.1455 2101,-171 2101,-171 2101,-171 1346.7236,-171 1346.7236,-171"/>
<polygon fill="#000000" stroke="#000000" points="1346.7237,-167.5001 1336.7236,-171 1346.7236,-174.5001 1346.7237,-167.5001"/>
</g>
<!-- SearchComponent -->
<g id="node5" class="node">
<title>SearchComponent</title>
<polygon fill="#ffffb3" stroke="#000000" points="2042.9201,-122 1923.0799,-122 1923.0799,-86 2042.9201,-86 2042.9201,-122"/>
<text text-anchor="middle" x="1983" y="-99.8" font-family="Times,serif" font-size="14.00" fill="#000000">SearchComponent</text>
</g>
<!-- SearchComponent&#45;&gt;EventsModule -->
<g id="edge5" class="edge">
<title>SearchComponent&#45;&gt;EventsModule</title>
<path fill="none" stroke="#000000" d="M1983,-122.2222C1983,-140.8285 1983,-167 1983,-167 1983,-167 1346.8711,-167 1346.8711,-167"/>
<polygon fill="#000000" stroke="#000000" points="1346.8711,-163.5001 1336.8711,-167 1346.871,-170.5001 1346.8711,-163.5001"/>
</g>
<!-- CommentBoxComponent -->
<g id="node6" class="node">
<title>CommentBoxComponent</title>
<polygon fill="#ffffb3" stroke="#000000" points="1904.892,-122 1745.108,-122 1745.108,-86 1904.892,-86 1904.892,-122"/>
<text text-anchor="middle" x="1825" y="-99.8" font-family="Times,serif" font-size="14.00" fill="#000000">CommentBoxComponent</text>
</g>
<!-- CommentBoxComponent&#45;&gt;EventsModule -->
<g id="edge6" class="edge">
<title>CommentBoxComponent&#45;&gt;EventsModule</title>
<path fill="none" stroke="#000000" d="M1825,-122.0225C1825,-139.3734 1825,-163 1825,-163 1825,-163 1347.0787,-163 1347.0787,-163"/>
<polygon fill="#000000" stroke="#000000" points="1347.0788,-159.5001 1337.0787,-163 1347.0787,-166.5001 1347.0788,-159.5001"/>
</g>
<!-- EventFormComponent -->
<g id="node7" class="node">
<title>EventFormComponent</title>
<polygon fill="#ffffb3" stroke="#000000" points="1727.3244,-122 1582.6756,-122 1582.6756,-86 1727.3244,-86 1727.3244,-122"/>
<text text-anchor="middle" x="1655" y="-99.8" font-family="Times,serif" font-size="14.00" fill="#000000">EventFormComponent</text>
</g>
<!-- EventFormComponent&#45;&gt;EventsModule -->
<g id="edge7" class="edge">
<title>EventFormComponent&#45;&gt;EventsModule</title>
<path fill="none" stroke="#000000" d="M1655,-122.0091C1655,-138.0494 1655,-159 1655,-159 1655,-159 1346.7348,-159 1346.7348,-159"/>
<polygon fill="#000000" stroke="#000000" points="1346.7348,-155.5001 1336.7348,-159 1346.7347,-162.5001 1346.7348,-155.5001"/>
</g>
<!-- EventEditPage -->
<g id="node8" class="node">
<title>EventEditPage</title>
<polygon fill="#ffffb3" stroke="#000000" points="1564.7036,-122 1465.2964,-122 1465.2964,-86 1564.7036,-86 1564.7036,-122"/>
<text text-anchor="middle" x="1515" y="-99.8" font-family="Times,serif" font-size="14.00" fill="#000000">EventEditPage</text>
</g>
<!-- EventEditPage&#45;&gt;EventsModule -->
<g id="edge8" class="edge">
<title>EventEditPage&#45;&gt;EventsModule</title>
<path fill="none" stroke="#000000" d="M1515,-122.1243C1515,-136.7832 1515,-155 1515,-155 1515,-155 1346.6972,-155 1346.6972,-155"/>
<polygon fill="#000000" stroke="#000000" points="1346.6972,-151.5001 1336.6972,-155 1346.6972,-158.5001 1346.6972,-151.5001"/>
</g>
<!-- TagSelectorComponent -->
<g id="node9" class="node">
<title>TagSelectorComponent</title>
<polygon fill="#ffffb3" stroke="#000000" points="1447.4678,-122 1298.5322,-122 1298.5322,-86 1447.4678,-86 1447.4678,-122"/>
<text text-anchor="middle" x="1373" y="-99.8" font-family="Times,serif" font-size="14.00" fill="#000000">TagSelectorComponent</text>
</g>
<!-- TagSelectorComponent&#45;&gt;EventsModule -->
<g id="edge9" class="edge">
<title>TagSelectorComponent&#45;&gt;EventsModule</title>
<path fill="none" stroke="#000000" d="M1317.6711,-122.1061C1317.6711,-122.1061 1317.6711,-140.991 1317.6711,-140.991"/>
<polygon fill="#000000" stroke="#000000" points="1314.1712,-140.9909 1317.6711,-150.991 1321.1712,-140.991 1314.1712,-140.9909"/>
</g>
<!-- DateSelectorComponent -->
<g id="node10" class="node">
<title>DateSelectorComponent</title>
<polygon fill="#ffffb3" stroke="#000000" points="1280.6275,-122 1127.3725,-122 1127.3725,-86 1280.6275,-86 1280.6275,-122"/>
<text text-anchor="middle" x="1204" y="-99.8" font-family="Times,serif" font-size="14.00" fill="#000000">DateSelectorComponent</text>
</g>
<!-- DateSelectorComponent&#45;&gt;EventsModule -->
<g id="edge10" class="edge">
<title>DateSelectorComponent&#45;&gt;EventsModule</title>
<path fill="none" stroke="#000000" d="M1259.9937,-122.1061C1259.9937,-122.1061 1259.9937,-140.991 1259.9937,-140.991"/>
<polygon fill="#000000" stroke="#000000" points="1256.4938,-140.9909 1259.9937,-150.991 1263.4938,-140.991 1256.4938,-140.9909"/>
</g>
<!-- PriceSelectorComponent -->
<g id="node11" class="node">
<title>PriceSelectorComponent</title>
<polygon fill="#ffffb3" stroke="#000000" points="1108.9636,-122 953.0364,-122 953.0364,-86 1108.9636,-86 1108.9636,-122"/>
<text text-anchor="middle" x="1031" y="-99.8" font-family="Times,serif" font-size="14.00" fill="#000000">PriceSelectorComponent</text>
</g>
<!-- PriceSelectorComponent&#45;&gt;EventsModule -->
<g id="edge11" class="edge">
<title>PriceSelectorComponent&#45;&gt;EventsModule</title>
<path fill="none" stroke="#000000" d="M1031,-122.1243C1031,-136.7832 1031,-155 1031,-155 1031,-155 1229.0553,-155 1229.0553,-155"/>
<polygon fill="#000000" stroke="#000000" points="1229.0554,-158.5001 1239.0553,-155 1229.0553,-151.5001 1229.0554,-158.5001"/>
</g>
<!-- CommonModule -->
<g id="node13" class="node">
<title>CommonModule</title>
<polygon fill="#8dd3c7" stroke="#000000" points="928.6681,-122 925.6681,-126 904.6681,-126 901.6681,-122 817.3319,-122 817.3319,-86 928.6681,-86 928.6681,-122"/>
<text text-anchor="middle" x="873" y="-99.8" font-family="Times,serif" font-size="14.00" fill="#000000">CommonModule</text>
</g>
<!-- CommonModule&#45;&gt;EventsModule -->
<g id="edge12" class="edge">
<title>CommonModule&#45;&gt;EventsModule</title>
<path fill="none" stroke="#000000" d="M873,-122.0091C873,-138.0494 873,-159 873,-159 873,-159 1229.1739,-159 1229.1739,-159"/>
<polygon fill="#000000" stroke="#000000" points="1229.1739,-162.5001 1239.1739,-159 1229.1738,-155.5001 1229.1739,-162.5001"/>
</g>
<!-- IonicModule -->
<g id="node14" class="node">
<title>IonicModule</title>
<polygon fill="#8dd3c7" stroke="#000000" points="799.3162,-122 796.3162,-126 775.3162,-126 772.3162,-122 710.6838,-122 710.6838,-86 799.3162,-86 799.3162,-122"/>
<text text-anchor="middle" x="755" y="-99.8" font-family="Times,serif" font-size="14.00" fill="#000000">IonicModule</text>
</g>
<!-- IonicModule&#45;&gt;EventsModule -->
<g id="edge13" class="edge">
<title>IonicModule&#45;&gt;EventsModule</title>
<path fill="none" stroke="#000000" d="M755,-122.0225C755,-139.3734 755,-163 755,-163 755,-163 1229.2868,-163 1229.2868,-163"/>
<polygon fill="#000000" stroke="#000000" points="1229.2869,-166.5001 1239.2868,-163 1229.2868,-159.5001 1229.2869,-166.5001"/>
</g>
<!-- ReactiveFormsModule -->
<g id="node15" class="node">
<title>ReactiveFormsModule</title>
<polygon fill="#8dd3c7" stroke="#000000" points="693.3047,-122 690.3047,-126 669.3047,-126 666.3047,-122 548.6953,-122 548.6953,-86 693.3047,-86 693.3047,-122"/>
<text text-anchor="middle" x="621" y="-99.8" font-family="Times,serif" font-size="14.00" fill="#000000">ReactiveFormsModule</text>
</g>
<!-- ReactiveFormsModule&#45;&gt;EventsModule -->
<g id="edge14" class="edge">
<title>ReactiveFormsModule&#45;&gt;EventsModule</title>
<path fill="none" stroke="#000000" d="M621,-122.2222C621,-140.8285 621,-167 621,-167 621,-167 1229.2241,-167 1229.2241,-167"/>
<polygon fill="#000000" stroke="#000000" points="1229.2242,-170.5001 1239.2241,-167 1229.2241,-163.5001 1229.2242,-170.5001"/>
</g>
<!-- EventRoutingModule -->
<g id="node16" class="node">
<title>EventRoutingModule</title>
<polygon fill="#8dd3c7" stroke="#000000" points="530.8258,-122 527.8258,-126 506.8258,-126 503.8258,-122 393.1742,-122 393.1742,-86 530.8258,-86 530.8258,-122"/>
<text text-anchor="middle" x="462" y="-99.8" font-family="Times,serif" font-size="14.00" fill="#000000">EventRoutingModule</text>
</g>
<!-- EventRoutingModule&#45;&gt;EventsModule -->
<g id="edge15" class="edge">
<title>EventRoutingModule&#45;&gt;EventsModule</title>
<path fill="none" stroke="#000000" d="M462,-122.308C462,-142.1455 462,-171 462,-171 462,-171 1229.1091,-171 1229.1091,-171"/>
<polygon fill="#000000" stroke="#000000" points="1229.1091,-174.5001 1239.1091,-171 1229.109,-167.5001 1229.1091,-174.5001"/>
</g>
<!-- FormsModule -->
<g id="node17" class="node">
<title>FormsModule</title>
<polygon fill="#8dd3c7" stroke="#000000" points="375.8288,-122 372.8288,-126 351.8288,-126 348.8288,-122 280.1712,-122 280.1712,-86 375.8288,-86 375.8288,-122"/>
<text text-anchor="middle" x="328" y="-99.8" font-family="Times,serif" font-size="14.00" fill="#000000">FormsModule</text>
</g>
<!-- FormsModule&#45;&gt;EventsModule -->
<g id="edge16" class="edge">
<title>FormsModule&#45;&gt;EventsModule</title>
<path fill="none" stroke="#000000" d="M328,-122.2843C328,-143.3211 328,-175 328,-175 328,-175 1229.0736,-175 1229.0736,-175"/>
<polygon fill="#000000" stroke="#000000" points="1229.0737,-178.5001 1239.0736,-175 1229.0736,-171.5001 1229.0737,-178.5001"/>
</g>
<!-- AnnotationModule -->
<g id="node18" class="node">
<title>AnnotationModule</title>
<polygon fill="#8dd3c7" stroke="#000000" points="262.0436,-122 259.0436,-126 238.0436,-126 235.0436,-122 139.9564,-122 139.9564,-86 262.0436,-86 262.0436,-122"/>
<text text-anchor="middle" x="201" y="-99.8" font-family="Times,serif" font-size="14.00" fill="#000000">AnnotationModule</text>
</g>
<!-- AnnotationModule&#45;&gt;EventsModule -->
<g id="edge17" class="edge">
<title>AnnotationModule&#45;&gt;EventsModule</title>
<path fill="none" stroke="#000000" d="M201,-122.1554C201,-144.3519 201,-179 201,-179 201,-179 1229.1822,-179 1229.1822,-179"/>
<polygon fill="#000000" stroke="#000000" points="1229.1822,-182.5001 1239.1822,-179 1229.1821,-175.5001 1229.1822,-182.5001"/>
</g>
<!-- SharedModule -->
<g id="node19" class="node">
<title>SharedModule</title>
<polygon fill="#8dd3c7" stroke="#000000" points="122.4231,-122 119.4231,-126 98.4231,-126 95.4231,-122 23.5769,-122 23.5769,-86 122.4231,-86 122.4231,-122"/>
<text text-anchor="middle" x="73" y="-99.8" font-family="Times,serif" font-size="14.00" fill="#000000">SharedModule</text>
</g>
<!-- SharedModule&#45;&gt;EventsModule -->
<g id="edge18" class="edge">
<title>SharedModule&#45;&gt;EventsModule</title>
<path fill="none" stroke="#000000" d="M73,-122.3228C73,-145.6602 73,-183 73,-183 73,-183 1229.2439,-183 1229.2439,-183"/>
<polygon fill="#000000" stroke="#000000" points="1229.244,-186.5001 1239.2439,-183 1229.2439,-179.5001 1229.244,-186.5001"/>
</g>
</g>
</svg>
