<?xml version="1.0" encoding="UTF-8" standalone="no"?>
<!DOCTYPE svg PUBLIC "-//W3C//DTD SVG 1.1//EN"
 "http://www.w3.org/Graphics/SVG/1.1/DTD/svg11.dtd">
<!-- Generated by graphviz version 2.40.1 (20161225.0304)
 -->
<!-- Title: dependencies Pages: 1 -->
<svg width="2175pt" height="284pt"
 viewBox="0.00 0.00 2175.00 284.00" xmlns="http://www.w3.org/2000/svg" xmlns:xlink="http://www.w3.org/1999/xlink">
<g id="graph0" class="graph" transform="scale(1 1) rotate(0) translate(4 280)">
<title>dependencies</title>
<polygon fill="#ffffff" stroke="transparent" points="-4,4 -4,-280 2171,-280 2171,4 -4,4"/>
<text text-anchor="start" x="1062.5091" y="-42.4" font-family="sans-serif" font-weight="bold" font-size="14.00" fill="#000000">Legend</text>
<polygon fill="#ffffb3" stroke="transparent" points="849.5,-10 849.5,-30 869.5,-30 869.5,-10 849.5,-10"/>
<text text-anchor="start" x="873.129" y="-15.4" font-family="sans-serif" font-size="14.00" fill="#000000"> &#160;Declarations</text>
<polygon fill="#8dd3c7" stroke="transparent" points="962.5,-10 962.5,-30 982.5,-30 982.5,-10 962.5,-10"/>
<text text-anchor="start" x="986.2251" y="-15.4" font-family="sans-serif" font-size="14.00" fill="#000000"> &#160;Module</text>
<polygon fill="#80b1d3" stroke="transparent" points="1048.5,-10 1048.5,-30 1068.5,-30 1068.5,-10 1048.5,-10"/>
<text text-anchor="start" x="1072.2812" y="-15.4" font-family="sans-serif" font-size="14.00" fill="#000000"> &#160;Bootstrap</text>
<polygon fill="#fdb462" stroke="transparent" points="1145.5,-10 1145.5,-30 1165.5,-30 1165.5,-10 1145.5,-10"/>
<text text-anchor="start" x="1169.1732" y="-15.4" font-family="sans-serif" font-size="14.00" fill="#000000"> &#160;Providers</text>
<polygon fill="#fb8072" stroke="transparent" points="1241.5,-10 1241.5,-30 1261.5,-30 1261.5,-10 1241.5,-10"/>
<text text-anchor="start" x="1265.2258" y="-15.4" font-family="sans-serif" font-size="14.00" fill="#000000"> &#160;Exports</text>
<g id="clust1" class="cluster">
<title>cluster_AppModule</title>
<polygon fill="none" stroke="#000000" stroke-dasharray="1,5" points="8,-70 8,-268 2159,-268 2159,-70 8,-70"/>
</g>
<g id="clust2" class="cluster">
<title>cluster_AppModule_declarations</title>
<polygon fill="none" stroke="#000000" points="2029,-78 2029,-130 2151,-130 2151,-78 2029,-78"/>
</g>
<g id="clust4" class="cluster">
<title>cluster_AppModule_imports</title>
<polygon fill="none" stroke="#000000" points="814,-78 814,-130 2021,-130 2021,-78 814,-78"/>
</g>
<g id="clust6" class="cluster">
<title>cluster_AppModule_bootstrap</title>
<polygon fill="none" stroke="#000000" points="1187,-208 1187,-260 1311,-260 1311,-208 1187,-208"/>
</g>
<g id="clust7" class="cluster">
<title>cluster_AppModule_providers</title>
<polygon fill="none" stroke="#000000" points="16,-78 16,-130 806,-130 806,-78 16,-78"/>
</g>
<!-- AppComponent -->
<g id="node1" class="node">
<title>AppComponent</title>
<polygon fill="#ffffb3" stroke="#000000" points="2142.9399,-122 2037.0601,-122 2037.0601,-86 2142.9399,-86 2142.9399,-122"/>
<text text-anchor="middle" x="2090" y="-99.8" font-family="Times,serif" font-size="14.00" fill="#000000">AppComponent</text>
</g>
<!-- AppModule -->
<g id="node2" class="node">
<title>AppModule</title>
<polygon fill="#8dd3c7" stroke="#000000" points="1290.6571,-187 1287.6571,-191 1266.6571,-191 1263.6571,-187 1207.3429,-187 1207.3429,-151 1290.6571,-151 1290.6571,-187"/>
<text text-anchor="middle" x="1249" y="-164.8" font-family="Times,serif" font-size="14.00" fill="#000000">AppModule</text>
</g>
<!-- AppComponent&#45;&gt;AppModule -->
<g id="edge1" class="edge">
<title>AppComponent&#45;&gt;AppModule</title>
<path fill="none" stroke="#000000" d="M2090,-122.2479C2090,-145.0179 2090,-181 2090,-181 2090,-181 1300.7053,-181 1300.7053,-181"/>
<polygon fill="#000000" stroke="#000000" points="1300.7054,-177.5001 1290.7053,-181 1300.7053,-184.5001 1300.7054,-177.5001"/>
</g>
<!-- AppComponent  -->
<g id="node11" class="node">
<title>AppComponent </title>
<polygon fill="#80b1d3" stroke="#000000" points="1303.439,-252 1194.561,-252 1194.561,-216 1303.439,-216 1303.439,-252"/>
<text text-anchor="middle" x="1249" y="-229.8" font-family="Times,serif" font-size="14.00" fill="#000000">AppComponent </text>
</g>
<!-- AppModule&#45;&gt;AppComponent  -->
<g id="edge10" class="edge">
<title>AppModule&#45;&gt;AppComponent </title>
<path fill="none" stroke="#000000" stroke-dasharray="1,5" d="M1249,-187.1061C1249,-187.1061 1249,-205.991 1249,-205.991"/>
<polygon fill="#000000" stroke="#000000" points="1245.5001,-205.9909 1249,-215.991 1252.5001,-205.991 1245.5001,-205.9909"/>
</g>
<!-- BrowserModule -->
<g id="node3" class="node">
<title>BrowserModule</title>
<polygon fill="#8dd3c7" stroke="#000000" points="2013.4734,-122 2010.4734,-126 1989.4734,-126 1986.4734,-122 1906.5266,-122 1906.5266,-86 2013.4734,-86 2013.4734,-122"/>
<text text-anchor="middle" x="1960" y="-99.8" font-family="Times,serif" font-size="14.00" fill="#000000">BrowserModule</text>
</g>
<!-- BrowserModule&#45;&gt;AppModule -->
<g id="edge2" class="edge">
<title>BrowserModule&#45;&gt;AppModule</title>
<path fill="none" stroke="#000000" d="M1960,-122.2843C1960,-143.3211 1960,-175 1960,-175 1960,-175 1300.8219,-175 1300.8219,-175"/>
<polygon fill="#000000" stroke="#000000" points="1300.8219,-171.5001 1290.8219,-175 1300.8218,-178.5001 1300.8219,-171.5001"/>
</g>
<!-- IonicModule.forRoot() -->
<g id="node4" class="node">
<title>IonicModule.forRoot()</title>
<polygon fill="#8dd3c7" stroke="#000000" points="1888.1855,-122 1885.1855,-126 1864.1855,-126 1861.1855,-122 1743.8145,-122 1743.8145,-86 1888.1855,-86 1888.1855,-122"/>
<text text-anchor="middle" x="1816" y="-99.8" font-family="Times,serif" font-size="14.00" fill="#000000">IonicModule.forRoot()</text>
</g>
<!-- IonicModule.forRoot()&#45;&gt;AppModule -->
<g id="edge3" class="edge">
<title>IonicModule.forRoot()&#45;&gt;AppModule</title>
<path fill="none" stroke="#000000" d="M1816,-122.1061C1816,-141.3391 1816,-169 1816,-169 1816,-169 1300.6929,-169 1300.6929,-169"/>
<polygon fill="#000000" stroke="#000000" points="1300.6929,-165.5001 1290.6929,-169 1300.6928,-172.5001 1300.6929,-165.5001"/>
</g>
<!-- AuthModule.forRoot() -->
<g id="node5" class="node">
<title>AuthModule.forRoot()</title>
<polygon fill="#8dd3c7" stroke="#000000" points="1725.9166,-122 1722.9166,-126 1701.9166,-126 1698.9166,-122 1582.0834,-122 1582.0834,-86 1725.9166,-86 1725.9166,-122"/>
<text text-anchor="middle" x="1654" y="-99.8" font-family="Times,serif" font-size="14.00" fill="#000000">AuthModule.forRoot()</text>
</g>
<!-- AuthModule.forRoot()&#45;&gt;AppModule -->
<g id="edge4" class="edge">
<title>AuthModule.forRoot()&#45;&gt;AppModule</title>
<path fill="none" stroke="#000000" d="M1654,-122.0225C1654,-139.3734 1654,-163 1654,-163 1654,-163 1300.8167,-163 1300.8167,-163"/>
<polygon fill="#000000" stroke="#000000" points="1300.8167,-159.5001 1290.8167,-163 1300.8167,-166.5001 1300.8167,-159.5001"/>
</g>
<!-- DataModule.forRoot() -->
<g id="node6" class="node">
<title>DataModule.forRoot()</title>
<polygon fill="#8dd3c7" stroke="#000000" points="1564.3462,-122 1561.3462,-126 1540.3462,-126 1537.3462,-122 1421.6538,-122 1421.6538,-86 1564.3462,-86 1564.3462,-122"/>
<text text-anchor="middle" x="1493" y="-99.8" font-family="Times,serif" font-size="14.00" fill="#000000">DataModule.forRoot()</text>
</g>
<!-- DataModule.forRoot()&#45;&gt;AppModule -->
<g id="edge5" class="edge">
<title>DataModule.forRoot()&#45;&gt;AppModule</title>
<path fill="none" stroke="#000000" d="M1493,-122.2396C1493,-137.5706 1493,-157 1493,-157 1493,-157 1300.6679,-157 1300.6679,-157"/>
<polygon fill="#000000" stroke="#000000" points="1300.6679,-153.5001 1290.6679,-157 1300.6678,-160.5001 1300.6679,-153.5001"/>
</g>
<!-- NativeModule.forRoot() -->
<g id="node7" class="node">
<title>NativeModule.forRoot()</title>
<polygon fill="#8dd3c7" stroke="#000000" points="1403.7366,-122 1400.7366,-126 1379.7366,-126 1376.7366,-122 1250.2634,-122 1250.2634,-86 1403.7366,-86 1403.7366,-122"/>
<text text-anchor="middle" x="1327" y="-99.8" font-family="Times,serif" font-size="14.00" fill="#000000">NativeModule.forRoot()</text>
</g>
<!-- NativeModule.forRoot()&#45;&gt;AppModule -->
<g id="edge6" class="edge">
<title>NativeModule.forRoot()&#45;&gt;AppModule</title>
<path fill="none" stroke="#000000" d="M1270.605,-122.1061C1270.605,-122.1061 1270.605,-140.991 1270.605,-140.991"/>
<polygon fill="#000000" stroke="#000000" points="1267.1051,-140.9909 1270.605,-150.991 1274.1051,-140.991 1267.1051,-140.9909"/>
</g>
<!-- AppConfigModule -->
<g id="node8" class="node">
<title>AppConfigModule</title>
<polygon fill="#8dd3c7" stroke="#000000" points="1232.045,-122 1229.045,-126 1208.045,-126 1205.045,-122 1109.955,-122 1109.955,-86 1232.045,-86 1232.045,-122"/>
<text text-anchor="middle" x="1171" y="-99.8" font-family="Times,serif" font-size="14.00" fill="#000000">AppConfigModule</text>
</g>
<!-- AppConfigModule&#45;&gt;AppModule -->
<g id="edge7" class="edge">
<title>AppConfigModule&#45;&gt;AppModule</title>
<path fill="none" stroke="#000000" d="M1219.722,-122.1061C1219.722,-122.1061 1219.722,-140.991 1219.722,-140.991"/>
<polygon fill="#000000" stroke="#000000" points="1216.222,-140.9909 1219.722,-150.991 1223.222,-140.991 1216.222,-140.9909"/>
</g>
<!-- AppRoutingModule -->
<g id="node9" class="node">
<title>AppRoutingModule</title>
<polygon fill="#8dd3c7" stroke="#000000" points="1091.2744,-122 1088.2744,-126 1067.2744,-126 1064.2744,-122 962.7256,-122 962.7256,-86 1091.2744,-86 1091.2744,-122"/>
<text text-anchor="middle" x="1027" y="-99.8" font-family="Times,serif" font-size="14.00" fill="#000000">AppRoutingModule</text>
</g>
<!-- AppRoutingModule&#45;&gt;AppModule -->
<g id="edge8" class="edge">
<title>AppRoutingModule&#45;&gt;AppModule</title>
<path fill="none" stroke="#000000" d="M1027,-122.2396C1027,-137.5706 1027,-157 1027,-157 1027,-157 1197.2435,-157 1197.2435,-157"/>
<polygon fill="#000000" stroke="#000000" points="1197.2435,-160.5001 1207.2435,-157 1197.2435,-153.5001 1197.2435,-160.5001"/>
</g>
<!-- AnnotationModule -->
<g id="node10" class="node">
<title>AnnotationModule</title>
<polygon fill="#8dd3c7" stroke="#000000" points="944.0436,-122 941.0436,-126 920.0436,-126 917.0436,-122 821.9564,-122 821.9564,-86 944.0436,-86 944.0436,-122"/>
<text text-anchor="middle" x="883" y="-99.8" font-family="Times,serif" font-size="14.00" fill="#000000">AnnotationModule</text>
</g>
<!-- AnnotationModule&#45;&gt;AppModule -->
<g id="edge9" class="edge">
<title>AnnotationModule&#45;&gt;AppModule</title>
<path fill="none" stroke="#000000" d="M883,-122.0225C883,-139.3734 883,-163 883,-163 883,-163 1197.0151,-163 1197.0151,-163"/>
<polygon fill="#000000" stroke="#000000" points="1197.0152,-166.5001 1207.0151,-163 1197.0151,-159.5001 1197.0152,-166.5001"/>
</g>
<!-- StatusBar -->
<g id="node12" class="node">
<title>StatusBar</title>
<ellipse fill="#fdb462" stroke="#000000" cx="749" cy="-104" rx="48.6694" ry="18"/>
<text text-anchor="middle" x="749" y="-99.8" font-family="Times,serif" font-size="14.00" fill="#000000">StatusBar</text>
</g>
<!-- StatusBar&#45;&gt;AppModule -->
<g id="edge11" class="edge">
<title>StatusBar&#45;&gt;AppModule</title>
<path fill="none" stroke="#000000" d="M749,-122.1061C749,-141.3391 749,-169 749,-169 749,-169 1197.2303,-169 1197.2303,-169"/>
<polygon fill="#000000" stroke="#000000" points="1197.2303,-172.5001 1207.2303,-169 1197.2302,-165.5001 1197.2303,-172.5001"/>
</g>
<!-- SplashScreen -->
<g id="node13" class="node">
<title>SplashScreen</title>
<ellipse fill="#fdb462" stroke="#000000" cx="619" cy="-104" rx="63.1189" ry="18"/>
<text text-anchor="middle" x="619" y="-99.8" font-family="Times,serif" font-size="14.00" fill="#000000">SplashScreen</text>
</g>
<!-- SplashScreen&#45;&gt;AppModule -->
<g id="edge12" class="edge">
<title>SplashScreen&#45;&gt;AppModule</title>
<path fill="none" stroke="#000000" d="M619,-122.2843C619,-143.3211 619,-175 619,-175 619,-175 1197.176,-175 1197.176,-175"/>
<polygon fill="#000000" stroke="#000000" points="1197.1761,-178.5001 1207.176,-175 1197.176,-171.5001 1197.1761,-178.5001"/>
</g>
<!-- { provide: RouteReuseStrategy, useClass: IonicRouteStrategy } -->
<g id="node14" class="node">
<title>{ provide: RouteReuseStrategy, useClass: IonicRouteStrategy }</title>
<ellipse fill="#fdb462" stroke="#000000" cx="281" cy="-104" rx="257.2723" ry="18"/>
<text text-anchor="middle" x="281" y="-99.8" font-family="Times,serif" font-size="14.00" fill="#000000">{ provide: RouteReuseStrategy, useClass: IonicRouteStrategy }</text>
</g>
<!-- { provide: RouteReuseStrategy, useClass: IonicRouteStrategy }&#45;&gt;AppModule -->
<g id="edge13" class="edge">
<title>{ provide: RouteReuseStrategy, useClass: IonicRouteStrategy }&#45;&gt;AppModule</title>
<path fill="none" stroke="#000000" d="M281,-122.2479C281,-145.0179 281,-181 281,-181 281,-181 1197.0956,-181 1197.0956,-181"/>
<polygon fill="#000000" stroke="#000000" points="1197.0956,-184.5001 1207.0956,-181 1197.0955,-177.5001 1197.0956,-184.5001"/>
</g>
</g>
</svg>
