<?xml version="1.0" encoding="UTF-8" standalone="no"?>
<!DOCTYPE svg PUBLIC "-//W3C//DTD SVG 1.1//EN"
 "http://www.w3.org/Graphics/SVG/1.1/DTD/svg11.dtd">
<!-- Generated by graphviz version 2.40.1 (20161225.0304)
 -->
<!-- Title: dependencies Pages: 1 -->
<svg width="920pt" height="284pt"
 viewBox="0.00 0.00 920.00 284.00" xmlns="http://www.w3.org/2000/svg" xmlns:xlink="http://www.w3.org/1999/xlink">
<g id="graph0" class="graph" transform="scale(1 1) rotate(0) translate(4 280)">
<title>dependencies</title>
<polygon fill="#ffffff" stroke="transparent" points="-4,4 -4,-280 916,-280 916,4 -4,4"/>
<text text-anchor="start" x="435.0091" y="-42.4" font-family="sans-serif" font-weight="bold" font-size="14.00" fill="#000000">Legend</text>
<polygon fill="#ffffb3" stroke="transparent" points="222,-10 222,-30 242,-30 242,-10 222,-10"/>
<text text-anchor="start" x="245.629" y="-15.4" font-family="sans-serif" font-size="14.00" fill="#000000"> &#160;Declarations</text>
<polygon fill="#8dd3c7" stroke="transparent" points="335,-10 335,-30 355,-30 355,-10 335,-10"/>
<text text-anchor="start" x="358.7251" y="-15.4" font-family="sans-serif" font-size="14.00" fill="#000000"> &#160;Module</text>
<polygon fill="#80b1d3" stroke="transparent" points="421,-10 421,-30 441,-30 441,-10 421,-10"/>
<text text-anchor="start" x="444.7812" y="-15.4" font-family="sans-serif" font-size="14.00" fill="#000000"> &#160;Bootstrap</text>
<polygon fill="#fdb462" stroke="transparent" points="518,-10 518,-30 538,-30 538,-10 518,-10"/>
<text text-anchor="start" x="541.6732" y="-15.4" font-family="sans-serif" font-size="14.00" fill="#000000"> &#160;Providers</text>
<polygon fill="#fb8072" stroke="transparent" points="614,-10 614,-30 634,-30 634,-10 614,-10"/>
<text text-anchor="start" x="637.7258" y="-15.4" font-family="sans-serif" font-size="14.00" fill="#000000"> &#160;Exports</text>
<g id="clust1" class="cluster">
<title>cluster_AppModule</title>
<polygon fill="none" stroke="#000000" stroke-dasharray="1,5" points="8,-70 8,-268 904,-268 904,-70 8,-70"/>
</g>
<g id="clust2" class="cluster">
<title>cluster_AppModule_declarations</title>
<polygon fill="none" stroke="#000000" points="774,-78 774,-130 896,-130 896,-78 774,-78"/>
</g>
<g id="clust4" class="cluster">
<title>cluster_AppModule_imports</title>
<polygon fill="none" stroke="#000000" points="16,-78 16,-130 766,-130 766,-78 16,-78"/>
</g>
<g id="clust6" class="cluster">
<title>cluster_AppModule_bootstrap</title>
<polygon fill="none" stroke="#000000" points="350,-208 350,-260 474,-260 474,-208 350,-208"/>
</g>
<!-- AppComponent -->
<g id="node1" class="node">
<title>AppComponent</title>
<polygon fill="#ffffb3" stroke="#000000" points="887.9399,-122 782.0601,-122 782.0601,-86 887.9399,-86 887.9399,-122"/>
<text text-anchor="middle" x="835" y="-99.8" font-family="Times,serif" font-size="14.00" fill="#000000">AppComponent</text>
</g>
<!-- AppModule -->
<g id="node2" class="node">
<title>AppModule</title>
<polygon fill="#8dd3c7" stroke="#000000" points="453.6571,-187 450.6571,-191 429.6571,-191 426.6571,-187 370.3429,-187 370.3429,-151 453.6571,-151 453.6571,-187"/>
<text text-anchor="middle" x="412" y="-164.8" font-family="Times,serif" font-size="14.00" fill="#000000">AppModule</text>
</g>
<!-- AppComponent&#45;&gt;AppModule -->
<g id="edge1" class="edge">
<title>AppComponent&#45;&gt;AppModule</title>
<path fill="none" stroke="#000000" d="M835,-122.2921C835,-144.2057 835,-178 835,-178 835,-178 463.7165,-178 463.7165,-178"/>
<polygon fill="#000000" stroke="#000000" points="463.7166,-174.5001 453.7165,-178 463.7165,-181.5001 463.7166,-174.5001"/>
</g>
<!-- AppComponent  -->
<g id="node9" class="node">
<title>AppComponent </title>
<polygon fill="#80b1d3" stroke="#000000" points="466.439,-252 357.561,-252 357.561,-216 466.439,-216 466.439,-252"/>
<text text-anchor="middle" x="412" y="-229.8" font-family="Times,serif" font-size="14.00" fill="#000000">AppComponent </text>
</g>
<!-- AppModule&#45;&gt;AppComponent  -->
<g id="edge8" class="edge">
<title>AppModule&#45;&gt;AppComponent </title>
<path fill="none" stroke="#000000" stroke-dasharray="1,5" d="M412,-187.1061C412,-187.1061 412,-205.991 412,-205.991"/>
<polygon fill="#000000" stroke="#000000" points="408.5001,-205.9909 412,-215.991 415.5001,-205.991 408.5001,-205.9909"/>
</g>
<!-- AnnotationModule -->
<g id="node3" class="node">
<title>AnnotationModule</title>
<polygon fill="#8dd3c7" stroke="#000000" points="758.0436,-122 755.0436,-126 734.0436,-126 731.0436,-122 635.9564,-122 635.9564,-86 758.0436,-86 758.0436,-122"/>
<text text-anchor="middle" x="697" y="-99.8" font-family="Times,serif" font-size="14.00" fill="#000000">AnnotationModule</text>
</g>
<!-- AnnotationModule&#45;&gt;AppModule -->
<g id="edge2" class="edge">
<title>AnnotationModule&#45;&gt;AppModule</title>
<path fill="none" stroke="#000000" d="M697,-122.1061C697,-141.3391 697,-169 697,-169 697,-169 463.7467,-169 463.7467,-169"/>
<polygon fill="#000000" stroke="#000000" points="463.7467,-165.5001 453.7467,-169 463.7466,-172.5001 463.7467,-165.5001"/>
</g>
<!-- AppConfigModule -->
<g id="node4" class="node">
<title>AppConfigModule</title>
<polygon fill="#8dd3c7" stroke="#000000" points="617.045,-122 614.045,-126 593.045,-126 590.045,-122 494.955,-122 494.955,-86 617.045,-86 617.045,-122"/>
<text text-anchor="middle" x="556" y="-99.8" font-family="Times,serif" font-size="14.00" fill="#000000">AppConfigModule</text>
</g>
<!-- AppConfigModule&#45;&gt;AppModule -->
<g id="edge3" class="edge">
<title>AppConfigModule&#45;&gt;AppModule</title>
<path fill="none" stroke="#000000" d="M556,-122.027C556,-138.3976 556,-160 556,-160 556,-160 464.0379,-160 464.0379,-160"/>
<polygon fill="#000000" stroke="#000000" points="464.0379,-156.5001 454.0379,-160 464.0378,-163.5001 464.0379,-156.5001"/>
</g>
<!-- AppRoutingModule -->
<g id="node5" class="node">
<title>AppRoutingModule</title>
<polygon fill="#8dd3c7" stroke="#000000" points="476.2744,-122 473.2744,-126 452.2744,-126 449.2744,-122 347.7256,-122 347.7256,-86 476.2744,-86 476.2744,-122"/>
<text text-anchor="middle" x="412" y="-99.8" font-family="Times,serif" font-size="14.00" fill="#000000">AppRoutingModule</text>
</g>
<!-- AppRoutingModule&#45;&gt;AppModule -->
<g id="edge4" class="edge">
<title>AppRoutingModule&#45;&gt;AppModule</title>
<path fill="none" stroke="#000000" d="M412,-122.1061C412,-122.1061 412,-140.991 412,-140.991"/>
<polygon fill="#000000" stroke="#000000" points="408.5001,-140.9909 412,-150.991 415.5001,-140.991 408.5001,-140.9909"/>
</g>
<!-- AuthModule -->
<g id="node6" class="node">
<title>AuthModule</title>
<polygon fill="#8dd3c7" stroke="#000000" points="329.5482,-122 326.5482,-126 305.5482,-126 302.5482,-122 242.4518,-122 242.4518,-86 329.5482,-86 329.5482,-122"/>
<text text-anchor="middle" x="286" y="-99.8" font-family="Times,serif" font-size="14.00" fill="#000000">AuthModule</text>
</g>
<!-- AuthModule&#45;&gt;AppModule -->
<g id="edge5" class="edge">
<title>AuthModule&#45;&gt;AppModule</title>
<path fill="none" stroke="#000000" d="M286,-122.027C286,-138.3976 286,-160 286,-160 286,-160 360.0438,-160 360.0438,-160"/>
<polygon fill="#000000" stroke="#000000" points="360.0439,-163.5001 370.0438,-160 360.0438,-156.5001 360.0439,-163.5001"/>
</g>
<!-- DataModule -->
<g id="node7" class="node">
<title>DataModule</title>
<polygon fill="#8dd3c7" stroke="#000000" points="223.9762,-122 220.9762,-126 199.9762,-126 196.9762,-122 138.0238,-122 138.0238,-86 223.9762,-86 223.9762,-122"/>
<text text-anchor="middle" x="181" y="-99.8" font-family="Times,serif" font-size="14.00" fill="#000000">DataModule</text>
</g>
<!-- DataModule&#45;&gt;AppModule -->
<g id="edge6" class="edge">
<title>DataModule&#45;&gt;AppModule</title>
<path fill="none" stroke="#000000" d="M181,-122.1061C181,-141.3391 181,-169 181,-169 181,-169 360.1676,-169 360.1676,-169"/>
<polygon fill="#000000" stroke="#000000" points="360.1677,-172.5001 370.1676,-169 360.1676,-165.5001 360.1677,-172.5001"/>
</g>
<!-- NativeModule -->
<g id="node8" class="node">
<title>NativeModule</title>
<polygon fill="#8dd3c7" stroke="#000000" points="120.3669,-122 117.3669,-126 96.3669,-126 93.3669,-122 23.6331,-122 23.6331,-86 120.3669,-86 120.3669,-122"/>
<text text-anchor="middle" x="72" y="-99.8" font-family="Times,serif" font-size="14.00" fill="#000000">NativeModule</text>
</g>
<!-- NativeModule&#45;&gt;AppModule -->
<g id="edge7" class="edge">
<title>NativeModule&#45;&gt;AppModule</title>
<path fill="none" stroke="#000000" d="M72,-122.2921C72,-144.2057 72,-178 72,-178 72,-178 360.3093,-178 360.3093,-178"/>
<polygon fill="#000000" stroke="#000000" points="360.3094,-181.5001 370.3093,-178 360.3093,-174.5001 360.3094,-181.5001"/>
</g>
</g>
</svg>
