<?xml version="1.0" encoding="UTF-8" standalone="no"?>
<!DOCTYPE svg PUBLIC "-//W3C//DTD SVG 1.1//EN"
 "http://www.w3.org/Graphics/SVG/1.1/DTD/svg11.dtd">
<!-- Generated by graphviz version 2.40.1 (20161225.0304)
 -->
<!-- Title: dependencies Pages: 1 -->
<svg width="736pt" height="211pt"
 viewBox="0.00 0.00 736.00 211.00" xmlns="http://www.w3.org/2000/svg" xmlns:xlink="http://www.w3.org/1999/xlink">
<g id="graph0" class="graph" transform="scale(1 1) rotate(0) translate(4 207)">
<title>dependencies</title>
<polygon fill="#ffffff" stroke="transparent" points="-4,4 -4,-207 732,-207 732,4 -4,4"/>
<text text-anchor="start" x="343.0091" y="-42.4" font-family="sans-serif" font-weight="bold" font-size="14.00" fill="#000000">Legend</text>
<polygon fill="#ffffb3" stroke="transparent" points="130,-10 130,-30 150,-30 150,-10 130,-10"/>
<text text-anchor="start" x="153.629" y="-15.4" font-family="sans-serif" font-size="14.00" fill="#000000"> &#160;Declarations</text>
<polygon fill="#8dd3c7" stroke="transparent" points="243,-10 243,-30 263,-30 263,-10 243,-10"/>
<text text-anchor="start" x="266.7251" y="-15.4" font-family="sans-serif" font-size="14.00" fill="#000000"> &#160;Module</text>
<polygon fill="#80b1d3" stroke="transparent" points="329,-10 329,-30 349,-30 349,-10 329,-10"/>
<text text-anchor="start" x="352.7812" y="-15.4" font-family="sans-serif" font-size="14.00" fill="#000000"> &#160;Bootstrap</text>
<polygon fill="#fdb462" stroke="transparent" points="426,-10 426,-30 446,-30 446,-10 426,-10"/>
<text text-anchor="start" x="449.6732" y="-15.4" font-family="sans-serif" font-size="14.00" fill="#000000"> &#160;Providers</text>
<polygon fill="#fb8072" stroke="transparent" points="522,-10 522,-30 542,-30 542,-10 522,-10"/>
<text text-anchor="start" x="545.7258" y="-15.4" font-family="sans-serif" font-size="14.00" fill="#000000"> &#160;Exports</text>
<g id="clust1" class="cluster">
<title>cluster_ProfileModule</title>
<polygon fill="none" stroke="#000000" stroke-dasharray="1,5" points="8,-70 8,-195 720,-195 720,-70 8,-70"/>
</g>
<g id="clust2" class="cluster">
<title>cluster_ProfileModule_declarations</title>
<polygon fill="none" stroke="#000000" points="299,-78 299,-130 712,-130 712,-78 299,-78"/>
</g>
<g id="clust7" class="cluster">
<title>cluster_ProfileModule_imports</title>
<polygon fill="none" stroke="#000000" points="16,-78 16,-130 291,-130 291,-78 16,-78"/>
</g>
<!-- ProfilePage -->
<g id="node1" class="node">
<title>ProfilePage</title>
<polygon fill="#ffffb3" stroke="#000000" points="703.812,-122 622.188,-122 622.188,-86 703.812,-86 703.812,-122"/>
<text text-anchor="middle" x="663" y="-99.8" font-family="Times,serif" font-size="14.00" fill="#000000">ProfilePage</text>
</g>
<!-- ProfileModule -->
<g id="node5" class="node">
<title>ProfileModule</title>
<polygon fill="#8dd3c7" stroke="#000000" points="456.65,-187 453.65,-191 432.65,-191 429.65,-187 359.35,-187 359.35,-151 456.65,-151 456.65,-187"/>
<text text-anchor="middle" x="408" y="-164.8" font-family="Times,serif" font-size="14.00" fill="#000000">ProfileModule</text>
</g>
<!-- ProfilePage&#45;&gt;ProfileModule -->
<g id="edge1" class="edge">
<title>ProfilePage&#45;&gt;ProfileModule</title>
<path fill="none" stroke="#000000" d="M663,-122.2843C663,-143.3211 663,-175 663,-175 663,-175 466.8648,-175 466.8648,-175"/>
<polygon fill="#000000" stroke="#000000" points="466.8649,-171.5001 456.8648,-175 466.8648,-178.5001 466.8649,-171.5001"/>
</g>
<!-- PublicPage -->
<g id="node2" class="node">
<title>PublicPage</title>
<polygon fill="#ffffb3" stroke="#000000" points="604.4902,-122 525.5098,-122 525.5098,-86 604.4902,-86 604.4902,-122"/>
<text text-anchor="middle" x="565" y="-99.8" font-family="Times,serif" font-size="14.00" fill="#000000">PublicPage</text>
</g>
<!-- PublicPage&#45;&gt;ProfileModule -->
<g id="edge2" class="edge">
<title>PublicPage&#45;&gt;ProfileModule</title>
<path fill="none" stroke="#000000" d="M565,-122.0225C565,-139.3734 565,-163 565,-163 565,-163 466.8152,-163 466.8152,-163"/>
<polygon fill="#000000" stroke="#000000" points="466.8152,-159.5001 456.8152,-163 466.8151,-166.5001 466.8152,-159.5001"/>
</g>
<!-- SettingsPage -->
<g id="node3" class="node">
<title>SettingsPage</title>
<polygon fill="#ffffb3" stroke="#000000" points="507.326,-122 418.674,-122 418.674,-86 507.326,-86 507.326,-122"/>
<text text-anchor="middle" x="463" y="-99.8" font-family="Times,serif" font-size="14.00" fill="#000000">SettingsPage</text>
</g>
<!-- SettingsPage&#45;&gt;ProfileModule -->
<g id="edge3" class="edge">
<title>SettingsPage&#45;&gt;ProfileModule</title>
<path fill="none" stroke="#000000" d="M437.831,-122.1061C437.831,-122.1061 437.831,-140.991 437.831,-140.991"/>
<polygon fill="#000000" stroke="#000000" points="434.3311,-140.9909 437.831,-150.991 441.3311,-140.991 434.3311,-140.9909"/>
</g>
<!-- TimelinePage -->
<g id="node4" class="node">
<title>TimelinePage</title>
<polygon fill="#ffffb3" stroke="#000000" points="400.7563,-122 307.2437,-122 307.2437,-86 400.7563,-86 400.7563,-122"/>
<text text-anchor="middle" x="354" y="-99.8" font-family="Times,serif" font-size="14.00" fill="#000000">TimelinePage</text>
</g>
<!-- TimelinePage&#45;&gt;ProfileModule -->
<g id="edge4" class="edge">
<title>TimelinePage&#45;&gt;ProfileModule</title>
<path fill="none" stroke="#000000" d="M380.0267,-122.1061C380.0267,-122.1061 380.0267,-140.991 380.0267,-140.991"/>
<polygon fill="#000000" stroke="#000000" points="376.5267,-140.9909 380.0267,-150.991 383.5267,-140.991 376.5267,-140.9909"/>
</g>
<!-- ProfileRoutingModule -->
<g id="node6" class="node">
<title>ProfileRoutingModule</title>
<polygon fill="#8dd3c7" stroke="#000000" points="283.2674,-122 280.2674,-126 259.2674,-126 256.2674,-122 140.7326,-122 140.7326,-86 283.2674,-86 283.2674,-122"/>
<text text-anchor="middle" x="212" y="-99.8" font-family="Times,serif" font-size="14.00" fill="#000000">ProfileRoutingModule</text>
</g>
<!-- ProfileRoutingModule&#45;&gt;ProfileModule -->
<g id="edge5" class="edge">
<title>ProfileRoutingModule&#45;&gt;ProfileModule</title>
<path fill="none" stroke="#000000" d="M212,-122.0225C212,-139.3734 212,-163 212,-163 212,-163 349.2987,-163 349.2987,-163"/>
<polygon fill="#000000" stroke="#000000" points="349.2988,-166.5001 359.2987,-163 349.2987,-159.5001 349.2988,-166.5001"/>
</g>
<!-- SharedModule -->
<g id="node7" class="node">
<title>SharedModule</title>
<polygon fill="#8dd3c7" stroke="#000000" points="122.4231,-122 119.4231,-126 98.4231,-126 95.4231,-122 23.5769,-122 23.5769,-86 122.4231,-86 122.4231,-122"/>
<text text-anchor="middle" x="73" y="-99.8" font-family="Times,serif" font-size="14.00" fill="#000000">SharedModule</text>
</g>
<!-- SharedModule&#45;&gt;ProfileModule -->
<g id="edge6" class="edge">
<title>SharedModule&#45;&gt;ProfileModule</title>
<path fill="none" stroke="#000000" d="M73,-122.2843C73,-143.3211 73,-175 73,-175 73,-175 349.2881,-175 349.2881,-175"/>
<polygon fill="#000000" stroke="#000000" points="349.2882,-178.5001 359.2881,-175 349.2881,-171.5001 349.2882,-178.5001"/>
</g>
</g>
</svg>
