<?xml version="1.0" encoding="UTF-8" standalone="no"?>
<!DOCTYPE svg PUBLIC "-//W3C//DTD SVG 1.1//EN"
 "http://www.w3.org/Graphics/SVG/1.1/DTD/svg11.dtd">
<!-- Generated by graphviz version 2.40.1 (20161225.0304)
 -->
<!-- Title: dependencies Pages: 1 -->
<svg width="1247pt" height="211pt"
 viewBox="0.00 0.00 1247.00 211.00" xmlns="http://www.w3.org/2000/svg" xmlns:xlink="http://www.w3.org/1999/xlink">
<g id="graph0" class="graph" transform="scale(1 1) rotate(0) translate(4 207)">
<title>dependencies</title>
<polygon fill="#ffffff" stroke="transparent" points="-4,4 -4,-207 1243,-207 1243,4 -4,4"/>
<text text-anchor="start" x="598.5091" y="-42.4" font-family="sans-serif" font-weight="bold" font-size="14.00" fill="#000000">Legend</text>
<polygon fill="#ffffb3" stroke="transparent" points="385.5,-10 385.5,-30 405.5,-30 405.5,-10 385.5,-10"/>
<text text-anchor="start" x="409.129" y="-15.4" font-family="sans-serif" font-size="14.00" fill="#000000"> &#160;Declarations</text>
<polygon fill="#8dd3c7" stroke="transparent" points="498.5,-10 498.5,-30 518.5,-30 518.5,-10 498.5,-10"/>
<text text-anchor="start" x="522.2251" y="-15.4" font-family="sans-serif" font-size="14.00" fill="#000000"> &#160;Module</text>
<polygon fill="#80b1d3" stroke="transparent" points="584.5,-10 584.5,-30 604.5,-30 604.5,-10 584.5,-10"/>
<text text-anchor="start" x="608.2812" y="-15.4" font-family="sans-serif" font-size="14.00" fill="#000000"> &#160;Bootstrap</text>
<polygon fill="#fdb462" stroke="transparent" points="681.5,-10 681.5,-30 701.5,-30 701.5,-10 681.5,-10"/>
<text text-anchor="start" x="705.1732" y="-15.4" font-family="sans-serif" font-size="14.00" fill="#000000"> &#160;Providers</text>
<polygon fill="#fb8072" stroke="transparent" points="777.5,-10 777.5,-30 797.5,-30 797.5,-10 777.5,-10"/>
<text text-anchor="start" x="801.2258" y="-15.4" font-family="sans-serif" font-size="14.00" fill="#000000"> &#160;Exports</text>
<g id="clust1" class="cluster">
<title>cluster_ProfileModule</title>
<polygon fill="none" stroke="#000000" stroke-dasharray="1,5" points="8,-70 8,-195 1231,-195 1231,-70 8,-70"/>
</g>
<g id="clust2" class="cluster">
<title>cluster_ProfileModule_declarations</title>
<polygon fill="none" stroke="#000000" points="811,-78 811,-130 1223,-130 1223,-78 811,-78"/>
</g>
<g id="clust7" class="cluster">
<title>cluster_ProfileModule_imports</title>
<polygon fill="none" stroke="#000000" points="16,-78 16,-130 803,-130 803,-78 16,-78"/>
</g>
<!-- SettingsPage -->
<g id="node1" class="node">
<title>SettingsPage</title>
<polygon fill="#ffffb3" stroke="#000000" points="1215.326,-122 1126.674,-122 1126.674,-86 1215.326,-86 1215.326,-122"/>
<text text-anchor="middle" x="1171" y="-99.8" font-family="Times,serif" font-size="14.00" fill="#000000">SettingsPage</text>
</g>
<!-- ProfileModule -->
<g id="node5" class="node">
<title>ProfileModule</title>
<polygon fill="#8dd3c7" stroke="#000000" points="714.65,-187 711.65,-191 690.65,-191 687.65,-187 617.35,-187 617.35,-151 714.65,-151 714.65,-187"/>
<text text-anchor="middle" x="666" y="-164.8" font-family="Times,serif" font-size="14.00" fill="#000000">ProfileModule</text>
</g>
<!-- SettingsPage&#45;&gt;ProfileModule -->
<g id="edge1" class="edge">
<title>SettingsPage&#45;&gt;ProfileModule</title>
<path fill="none" stroke="#000000" d="M1171,-122.0109C1171,-144.4852 1171,-180 1171,-180 1171,-180 724.8804,-180 724.8804,-180"/>
<polygon fill="#000000" stroke="#000000" points="724.8804,-176.5001 714.8804,-180 724.8803,-183.5001 724.8804,-176.5001"/>
</g>
<!-- TimelinePage -->
<g id="node2" class="node">
<title>TimelinePage</title>
<polygon fill="#ffffb3" stroke="#000000" points="1108.7563,-122 1015.2437,-122 1015.2437,-86 1108.7563,-86 1108.7563,-122"/>
<text text-anchor="middle" x="1062" y="-99.8" font-family="Times,serif" font-size="14.00" fill="#000000">TimelinePage</text>
</g>
<!-- TimelinePage&#45;&gt;ProfileModule -->
<g id="edge2" class="edge">
<title>TimelinePage&#45;&gt;ProfileModule</title>
<path fill="none" stroke="#000000" d="M1062,-122.1289C1062,-142.5724 1062,-173 1062,-173 1062,-173 724.9545,-173 724.9545,-173"/>
<polygon fill="#000000" stroke="#000000" points="724.9546,-169.5001 714.9545,-173 724.9545,-176.5001 724.9546,-169.5001"/>
</g>
<!-- ProfilePage -->
<g id="node3" class="node">
<title>ProfilePage</title>
<polygon fill="#ffffb3" stroke="#000000" points="996.812,-122 915.188,-122 915.188,-86 996.812,-86 996.812,-122"/>
<text text-anchor="middle" x="956" y="-99.8" font-family="Times,serif" font-size="14.00" fill="#000000">ProfilePage</text>
</g>
<!-- ProfilePage&#45;&gt;ProfileModule -->
<g id="edge3" class="edge">
<title>ProfilePage&#45;&gt;ProfileModule</title>
<path fill="none" stroke="#000000" d="M956,-122.2667C956,-140.5552 956,-166 956,-166 956,-166 724.8666,-166 724.8666,-166"/>
<polygon fill="#000000" stroke="#000000" points="724.8667,-162.5001 714.8666,-166 724.8666,-169.5001 724.8667,-162.5001"/>
</g>
<!-- PublicPage -->
<g id="node4" class="node">
<title>PublicPage</title>
<polygon fill="#ffffb3" stroke="#000000" points="897.4902,-122 818.5098,-122 818.5098,-86 897.4902,-86 897.4902,-122"/>
<text text-anchor="middle" x="858" y="-99.8" font-family="Times,serif" font-size="14.00" fill="#000000">PublicPage</text>
</g>
<!-- PublicPage&#45;&gt;ProfileModule -->
<g id="edge4" class="edge">
<title>PublicPage&#45;&gt;ProfileModule</title>
<path fill="none" stroke="#000000" d="M858,-122.0091C858,-138.0494 858,-159 858,-159 858,-159 724.9465,-159 724.9465,-159"/>
<polygon fill="#000000" stroke="#000000" points="724.9465,-155.5001 714.9465,-159 724.9465,-162.5001 724.9465,-155.5001"/>
</g>
<!-- CommonModule -->
<g id="node6" class="node">
<title>CommonModule</title>
<polygon fill="#8dd3c7" stroke="#000000" points="794.6681,-122 791.6681,-126 770.6681,-126 767.6681,-122 683.3319,-122 683.3319,-86 794.6681,-86 794.6681,-122"/>
<text text-anchor="middle" x="739" y="-99.8" font-family="Times,serif" font-size="14.00" fill="#000000">CommonModule</text>
</g>
<!-- CommonModule&#45;&gt;ProfileModule -->
<g id="edge5" class="edge">
<title>CommonModule&#45;&gt;ProfileModule</title>
<path fill="none" stroke="#000000" d="M698.9955,-122.1061C698.9955,-122.1061 698.9955,-140.991 698.9955,-140.991"/>
<polygon fill="#000000" stroke="#000000" points="695.4955,-140.9909 698.9955,-150.991 702.4955,-140.991 695.4955,-140.9909"/>
</g>
<!-- ProfileRoutingModule -->
<g id="node7" class="node">
<title>ProfileRoutingModule</title>
<polygon fill="#8dd3c7" stroke="#000000" points="665.2674,-122 662.2674,-126 641.2674,-126 638.2674,-122 522.7326,-122 522.7326,-86 665.2674,-86 665.2674,-122"/>
<text text-anchor="middle" x="594" y="-99.8" font-family="Times,serif" font-size="14.00" fill="#000000">ProfileRoutingModule</text>
</g>
<!-- ProfileRoutingModule&#45;&gt;ProfileModule -->
<g id="edge6" class="edge">
<title>ProfileRoutingModule&#45;&gt;ProfileModule</title>
<path fill="none" stroke="#000000" d="M641.2795,-122.1061C641.2795,-122.1061 641.2795,-140.991 641.2795,-140.991"/>
<polygon fill="#000000" stroke="#000000" points="637.7795,-140.9909 641.2795,-150.991 644.7795,-140.991 637.7795,-140.9909"/>
</g>
<!-- IonicModule -->
<g id="node8" class="node">
<title>IonicModule</title>
<polygon fill="#8dd3c7" stroke="#000000" points="504.3162,-122 501.3162,-126 480.3162,-126 477.3162,-122 415.6838,-122 415.6838,-86 504.3162,-86 504.3162,-122"/>
<text text-anchor="middle" x="460" y="-99.8" font-family="Times,serif" font-size="14.00" fill="#000000">IonicModule</text>
</g>
<!-- IonicModule&#45;&gt;ProfileModule -->
<g id="edge7" class="edge">
<title>IonicModule&#45;&gt;ProfileModule</title>
<path fill="none" stroke="#000000" d="M460,-122.0091C460,-138.0494 460,-159 460,-159 460,-159 607.1809,-159 607.1809,-159"/>
<polygon fill="#000000" stroke="#000000" points="607.1809,-162.5001 617.1809,-159 607.1808,-155.5001 607.1809,-162.5001"/>
</g>
<!-- FormsModule -->
<g id="node9" class="node">
<title>FormsModule</title>
<polygon fill="#8dd3c7" stroke="#000000" points="397.8288,-122 394.8288,-126 373.8288,-126 370.8288,-122 302.1712,-122 302.1712,-86 397.8288,-86 397.8288,-122"/>
<text text-anchor="middle" x="350" y="-99.8" font-family="Times,serif" font-size="14.00" fill="#000000">FormsModule</text>
</g>
<!-- FormsModule&#45;&gt;ProfileModule -->
<g id="edge8" class="edge">
<title>FormsModule&#45;&gt;ProfileModule</title>
<path fill="none" stroke="#000000" d="M350,-122.2667C350,-140.5552 350,-166 350,-166 350,-166 607.3175,-166 607.3175,-166"/>
<polygon fill="#000000" stroke="#000000" points="607.3176,-169.5001 617.3175,-166 607.3175,-162.5001 607.3176,-169.5001"/>
</g>
<!-- ReactiveFormsModule -->
<g id="node10" class="node">
<title>ReactiveFormsModule</title>
<polygon fill="#8dd3c7" stroke="#000000" points="284.3047,-122 281.3047,-126 260.3047,-126 257.3047,-122 139.6953,-122 139.6953,-86 284.3047,-86 284.3047,-122"/>
<text text-anchor="middle" x="212" y="-99.8" font-family="Times,serif" font-size="14.00" fill="#000000">ReactiveFormsModule</text>
</g>
<!-- ReactiveFormsModule&#45;&gt;ProfileModule -->
<g id="edge9" class="edge">
<title>ReactiveFormsModule&#45;&gt;ProfileModule</title>
<path fill="none" stroke="#000000" d="M212,-122.1289C212,-142.5724 212,-173 212,-173 212,-173 606.9827,-173 606.9827,-173"/>
<polygon fill="#000000" stroke="#000000" points="606.9827,-176.5001 616.9827,-173 606.9827,-169.5001 606.9827,-176.5001"/>
</g>
<!-- SharedModule -->
<g id="node11" class="node">
<title>SharedModule</title>
<polygon fill="#8dd3c7" stroke="#000000" points="122.4231,-122 119.4231,-126 98.4231,-126 95.4231,-122 23.5769,-122 23.5769,-86 122.4231,-86 122.4231,-122"/>
<text text-anchor="middle" x="73" y="-99.8" font-family="Times,serif" font-size="14.00" fill="#000000">SharedModule</text>
</g>
<!-- SharedModule&#45;&gt;ProfileModule -->
<g id="edge10" class="edge">
<title>SharedModule&#45;&gt;ProfileModule</title>
<path fill="none" stroke="#000000" d="M73,-122.0109C73,-144.4852 73,-180 73,-180 73,-180 607.2203,-180 607.2203,-180"/>
<polygon fill="#000000" stroke="#000000" points="607.2204,-183.5001 617.2203,-180 607.2203,-176.5001 607.2204,-183.5001"/>
</g>
</g>
</svg>
